G04*
G04 #@! TF.GenerationSoftware,Altium Limited,Altium Designer,21.0.9 (235)*
G04*
G04 Layer_Color=32896*
%FSLAX25Y25*%
%MOIN*%
G70*
G04*
G04 #@! TF.SameCoordinates,8E47622B-7771-418E-90A4-0877E0867BD3*
G04*
G04*
G04 #@! TF.FilePolarity,Positive*
G04*
G01*
G75*
%ADD11C,0.01181*%
%ADD12C,0.01000*%
G36*
X303596Y446502D02*
X304035D01*
Y446392D01*
X304144D01*
Y446283D01*
X304364D01*
Y446173D01*
Y446064D01*
X304473D01*
Y445954D01*
X304583D01*
Y445844D01*
Y445735D01*
Y445625D01*
X304692D01*
Y445515D01*
Y445406D01*
Y445296D01*
Y445187D01*
Y445077D01*
Y444968D01*
Y444858D01*
Y444748D01*
Y444639D01*
Y444529D01*
Y444420D01*
Y444310D01*
Y444200D01*
Y444091D01*
Y443981D01*
Y443872D01*
Y443762D01*
Y443652D01*
Y443543D01*
Y443433D01*
Y443324D01*
Y443214D01*
Y443104D01*
Y442995D01*
Y442885D01*
Y442776D01*
Y442666D01*
Y442556D01*
Y442447D01*
Y442337D01*
Y442228D01*
Y442118D01*
Y442008D01*
Y441899D01*
Y441789D01*
Y441680D01*
Y441570D01*
Y441461D01*
Y441351D01*
Y441241D01*
Y441132D01*
Y441022D01*
Y440912D01*
Y440803D01*
Y440693D01*
Y440584D01*
Y440474D01*
Y440365D01*
Y440255D01*
Y440145D01*
Y440036D01*
Y439926D01*
Y439817D01*
Y439707D01*
Y439597D01*
Y439488D01*
Y439378D01*
Y439269D01*
Y439159D01*
Y439049D01*
Y438940D01*
Y438830D01*
Y438721D01*
Y438611D01*
Y438501D01*
Y438392D01*
Y438282D01*
Y438173D01*
Y438063D01*
Y437954D01*
Y437844D01*
Y437734D01*
Y437625D01*
Y437515D01*
Y437405D01*
Y437296D01*
Y437186D01*
Y437077D01*
Y436967D01*
Y436858D01*
Y436748D01*
Y436638D01*
Y436529D01*
Y436419D01*
Y436309D01*
Y436200D01*
Y436090D01*
Y435981D01*
Y435871D01*
Y435761D01*
Y435652D01*
Y435542D01*
Y435433D01*
Y435323D01*
Y435214D01*
Y435104D01*
Y434994D01*
Y434885D01*
Y434775D01*
X305131D01*
Y434666D01*
X305788D01*
Y434556D01*
X306336D01*
Y434446D01*
X306775D01*
Y434337D01*
X307103D01*
Y434227D01*
X307432D01*
Y434118D01*
X307761D01*
Y434008D01*
X308090D01*
Y433898D01*
X308309D01*
Y433789D01*
X308528D01*
Y433679D01*
X308747D01*
Y433570D01*
X308967D01*
Y433460D01*
X309186D01*
Y433350D01*
X309405D01*
Y433241D01*
X309624D01*
Y433131D01*
X309734D01*
Y433022D01*
X309953D01*
Y432912D01*
X310063D01*
Y432802D01*
X310282D01*
Y432693D01*
X310501D01*
Y432583D01*
X310611D01*
Y432474D01*
X310720D01*
Y432364D01*
X310830D01*
Y432255D01*
X311049D01*
Y432145D01*
X311158D01*
Y432255D01*
X311268D01*
Y432364D01*
X311378D01*
Y432474D01*
X311487D01*
Y432583D01*
X311597D01*
Y432693D01*
X311706D01*
Y432802D01*
X311816D01*
Y432912D01*
X311926D01*
Y433022D01*
X312035D01*
Y433131D01*
X312145D01*
Y433241D01*
X312255D01*
Y433350D01*
X312364D01*
Y433460D01*
X312474D01*
Y433570D01*
X312583D01*
Y433679D01*
X312693D01*
Y433789D01*
X312802D01*
Y433898D01*
X312912D01*
Y434008D01*
X313022D01*
Y434118D01*
X313131D01*
Y434227D01*
X313241D01*
Y434337D01*
X313350D01*
Y434446D01*
X313460D01*
Y434556D01*
X313570D01*
Y434666D01*
X313679D01*
Y434775D01*
X313789D01*
Y434885D01*
X313898D01*
Y434994D01*
X314008D01*
Y435104D01*
X314118D01*
Y435214D01*
X314227D01*
Y435323D01*
X314337D01*
Y435433D01*
X314446D01*
Y435542D01*
X314556D01*
Y435652D01*
X314666D01*
Y435761D01*
X314775D01*
Y435871D01*
X314885D01*
Y435981D01*
X314994D01*
Y436090D01*
X315104D01*
Y436200D01*
X315213D01*
Y436309D01*
X315323D01*
Y436419D01*
X315433D01*
Y436529D01*
X315542D01*
Y436638D01*
X315652D01*
Y436748D01*
X315761D01*
Y436858D01*
X315871D01*
Y436967D01*
X315981D01*
Y437077D01*
X316090D01*
Y437186D01*
X316200D01*
Y437296D01*
X316309D01*
Y437405D01*
X316419D01*
Y437515D01*
X316529D01*
Y437625D01*
X316638D01*
Y437734D01*
X316748D01*
Y437844D01*
X316858D01*
Y437954D01*
X316967D01*
Y438063D01*
X317077D01*
Y438173D01*
X317186D01*
Y438282D01*
X317296D01*
Y438392D01*
X317515D01*
Y438501D01*
X317625D01*
Y438611D01*
X317953D01*
Y438721D01*
X318392D01*
Y438611D01*
X318721D01*
Y438501D01*
X318940D01*
Y438392D01*
X319049D01*
Y438282D01*
X319159D01*
Y438173D01*
X319269D01*
Y438063D01*
Y437954D01*
X319378D01*
Y437844D01*
Y437734D01*
Y437625D01*
Y437515D01*
X319488D01*
Y437405D01*
X319378D01*
Y437296D01*
Y437186D01*
Y437077D01*
Y436967D01*
X319269D01*
Y436858D01*
Y436748D01*
X319159D01*
Y436638D01*
X319049D01*
Y436529D01*
X318940D01*
Y436419D01*
X318830D01*
Y436309D01*
X318721D01*
Y436200D01*
X318611D01*
Y436090D01*
X318501D01*
Y435981D01*
X318392D01*
Y435871D01*
X318282D01*
Y435761D01*
X318173D01*
Y435652D01*
X318063D01*
Y435542D01*
X317953D01*
Y435433D01*
X317844D01*
Y435323D01*
X317734D01*
Y435214D01*
X317625D01*
Y435104D01*
X317515D01*
Y434994D01*
X317406D01*
Y434885D01*
X317296D01*
Y434775D01*
X317186D01*
Y434666D01*
X317077D01*
Y434556D01*
X316967D01*
Y434446D01*
X316858D01*
Y434337D01*
X316748D01*
Y434227D01*
X316638D01*
Y434118D01*
X316529D01*
Y434008D01*
X316419D01*
Y433898D01*
X316309D01*
Y433789D01*
X316200D01*
Y433679D01*
X316090D01*
Y433570D01*
X315981D01*
Y433460D01*
X315871D01*
Y433350D01*
X315761D01*
Y433241D01*
X315652D01*
Y433131D01*
X315542D01*
Y433022D01*
X315433D01*
Y432912D01*
X315323D01*
Y432802D01*
X315213D01*
Y432693D01*
X315104D01*
Y432583D01*
X314994D01*
Y432474D01*
X314885D01*
Y432364D01*
X314775D01*
Y432255D01*
X314666D01*
Y432145D01*
X314556D01*
Y432035D01*
X314446D01*
Y431926D01*
X314337D01*
Y431816D01*
X314227D01*
Y431706D01*
X314118D01*
Y431597D01*
X314008D01*
Y431487D01*
X313898D01*
Y431378D01*
X313789D01*
Y431268D01*
X313679D01*
Y431158D01*
X313570D01*
Y431049D01*
X313460D01*
Y430939D01*
X313350D01*
Y430830D01*
X313241D01*
Y430720D01*
X313131D01*
Y430611D01*
X313022D01*
Y430501D01*
X312912D01*
Y430391D01*
Y430282D01*
X313022D01*
Y430172D01*
Y430063D01*
X313131D01*
Y429953D01*
X313241D01*
Y429843D01*
X313350D01*
Y429734D01*
Y429624D01*
X313460D01*
Y429515D01*
X313570D01*
Y429405D01*
Y429295D01*
X313679D01*
Y429186D01*
X313789D01*
Y429076D01*
Y428967D01*
X313898D01*
Y428857D01*
Y428747D01*
X314008D01*
Y428638D01*
X314118D01*
Y428528D01*
Y428419D01*
X314227D01*
Y428309D01*
Y428199D01*
X314337D01*
Y428090D01*
Y427980D01*
X314446D01*
Y427871D01*
Y427761D01*
X314556D01*
Y427652D01*
Y427542D01*
X314666D01*
Y427432D01*
Y427323D01*
Y427213D01*
X314775D01*
Y427104D01*
Y426994D01*
Y426884D01*
X314885D01*
Y426775D01*
Y426665D01*
X314994D01*
Y426555D01*
Y426446D01*
Y426336D01*
Y426227D01*
X315104D01*
Y426117D01*
Y426008D01*
Y425898D01*
X315213D01*
Y425788D01*
Y425679D01*
Y425569D01*
Y425460D01*
X315323D01*
Y425350D01*
Y425240D01*
Y425131D01*
Y425021D01*
Y424912D01*
X315433D01*
Y424802D01*
Y424692D01*
Y424583D01*
Y424473D01*
Y424364D01*
Y424254D01*
Y424144D01*
X315542D01*
Y424035D01*
X326173D01*
Y423925D01*
X326611D01*
Y423816D01*
X326721D01*
Y423706D01*
X326940D01*
Y423596D01*
Y423487D01*
X327050D01*
Y423377D01*
X327160D01*
Y423268D01*
Y423158D01*
X327269D01*
Y423048D01*
Y422939D01*
Y422829D01*
Y422720D01*
Y422610D01*
Y422501D01*
Y422391D01*
X327160D01*
Y422281D01*
Y422172D01*
X327050D01*
Y422062D01*
Y421952D01*
X326940D01*
Y421843D01*
X326721D01*
Y421733D01*
X326611D01*
Y421624D01*
X326283D01*
Y421514D01*
X315433D01*
Y421405D01*
Y421295D01*
Y421185D01*
Y421076D01*
Y420966D01*
Y420857D01*
X315323D01*
Y420747D01*
Y420637D01*
Y420528D01*
Y420418D01*
Y420309D01*
X315213D01*
Y420199D01*
Y420089D01*
Y419980D01*
Y419870D01*
X315104D01*
Y419761D01*
Y419651D01*
Y419541D01*
Y419432D01*
X314994D01*
Y419322D01*
Y419213D01*
Y419103D01*
X314885D01*
Y418993D01*
Y418884D01*
Y418774D01*
X314775D01*
Y418665D01*
Y418555D01*
Y418445D01*
X314666D01*
Y418336D01*
Y418226D01*
X314556D01*
Y418117D01*
Y418007D01*
Y417898D01*
X314446D01*
Y417788D01*
Y417678D01*
X314337D01*
Y417569D01*
Y417459D01*
X314227D01*
Y417349D01*
Y417240D01*
X314118D01*
Y417130D01*
Y417021D01*
Y416911D01*
X314227D01*
Y416802D01*
Y416692D01*
X314337D01*
Y416582D01*
Y416473D01*
X314446D01*
Y416363D01*
X314556D01*
Y416254D01*
Y416144D01*
X314666D01*
Y416034D01*
X314775D01*
Y415925D01*
X314885D01*
Y415815D01*
X314994D01*
Y415706D01*
X315104D01*
Y415596D01*
X315213D01*
Y415486D01*
X315323D01*
Y415377D01*
X315542D01*
Y415267D01*
X315652D01*
Y415158D01*
X315871D01*
Y415048D01*
X316200D01*
Y414938D01*
X316419D01*
Y414829D01*
X317077D01*
Y414719D01*
X317625D01*
Y414829D01*
X318173D01*
Y414938D01*
X318501D01*
Y415048D01*
X318721D01*
Y415158D01*
X318940D01*
Y415267D01*
X319159D01*
Y415377D01*
X319269D01*
Y415486D01*
X319378D01*
Y415596D01*
X319488D01*
Y415706D01*
X319707D01*
Y415815D01*
X319817D01*
Y415925D01*
X319926D01*
Y416034D01*
Y416144D01*
X320036D01*
Y416254D01*
X320145D01*
Y416363D01*
X320255D01*
Y416473D01*
Y416582D01*
X320364D01*
Y416692D01*
Y416802D01*
X320474D01*
Y416911D01*
Y417021D01*
X320584D01*
Y417130D01*
Y417240D01*
X320693D01*
Y417349D01*
Y417459D01*
X320803D01*
Y417569D01*
Y417678D01*
X320913D01*
Y417788D01*
Y417898D01*
X321022D01*
Y418007D01*
X321132D01*
Y418117D01*
X321351D01*
Y418226D01*
X321789D01*
Y418336D01*
X322008D01*
Y418226D01*
X322447D01*
Y418117D01*
X322666D01*
Y418007D01*
X322776D01*
Y417898D01*
X322885D01*
Y417788D01*
X322995D01*
Y417678D01*
Y417569D01*
X323104D01*
Y417459D01*
Y417349D01*
X323214D01*
Y417240D01*
Y417130D01*
Y417021D01*
X323324D01*
Y416911D01*
Y416802D01*
X323433D01*
Y416692D01*
Y416582D01*
X323543D01*
Y416473D01*
X323652D01*
Y416363D01*
Y416254D01*
X323762D01*
Y416144D01*
X323872D01*
Y416034D01*
X323981D01*
Y415925D01*
X324091D01*
Y415815D01*
X324200D01*
Y415706D01*
X324310D01*
Y415596D01*
X324420D01*
Y415486D01*
X324529D01*
Y415377D01*
X324748D01*
Y415267D01*
X324858D01*
Y415158D01*
X325077D01*
Y415048D01*
X325296D01*
Y414938D01*
X325625D01*
Y414829D01*
X326283D01*
Y414719D01*
X326831D01*
Y414829D01*
X327488D01*
Y414938D01*
X327817D01*
Y415048D01*
X328036D01*
Y415158D01*
X328255D01*
Y415267D01*
X328365D01*
Y415377D01*
X328475D01*
Y415486D01*
X328584D01*
Y415596D01*
X328694D01*
Y415706D01*
X328803D01*
Y415815D01*
X328913D01*
Y415925D01*
X329023D01*
Y416034D01*
X329132D01*
Y416144D01*
Y416254D01*
X329242D01*
Y416363D01*
Y416473D01*
X329351D01*
Y416582D01*
Y416692D01*
X329461D01*
Y416802D01*
Y416911D01*
Y417021D01*
X329571D01*
Y417130D01*
Y417240D01*
X329680D01*
Y417349D01*
Y417459D01*
X329790D01*
Y417569D01*
X329899D01*
Y417678D01*
X330009D01*
Y417788D01*
X330228D01*
Y417898D01*
X330557D01*
Y418007D01*
X330776D01*
Y417898D01*
X331214D01*
Y417788D01*
X331434D01*
Y417678D01*
X331543D01*
Y417569D01*
X331653D01*
Y417459D01*
X331763D01*
Y417349D01*
X331872D01*
Y417240D01*
Y417130D01*
Y417021D01*
X331982D01*
Y416911D01*
Y416802D01*
Y416692D01*
Y416582D01*
Y416473D01*
X331872D01*
Y416363D01*
Y416254D01*
Y416144D01*
X331763D01*
Y416034D01*
Y415925D01*
Y415815D01*
X331653D01*
Y415706D01*
Y415596D01*
X331543D01*
Y415486D01*
Y415377D01*
X331434D01*
Y415267D01*
Y415158D01*
X331324D01*
Y415048D01*
Y414938D01*
X331214D01*
Y414829D01*
X331105D01*
Y414719D01*
Y414610D01*
X330995D01*
Y414500D01*
X330886D01*
Y414390D01*
X330776D01*
Y414281D01*
Y414171D01*
X330666D01*
Y414062D01*
X330557D01*
Y413952D01*
X330447D01*
Y413842D01*
X330338D01*
Y413733D01*
X330228D01*
Y413623D01*
X330118D01*
Y413514D01*
X330009D01*
Y413404D01*
X329790D01*
Y413295D01*
X329680D01*
Y413185D01*
X329461D01*
Y413075D01*
X329351D01*
Y412966D01*
X329132D01*
Y412856D01*
X328913D01*
Y412746D01*
X328584D01*
Y412637D01*
X328365D01*
Y412527D01*
X327927D01*
Y412418D01*
X327488D01*
Y412308D01*
X325625D01*
Y412418D01*
X325077D01*
Y412527D01*
X324748D01*
Y412637D01*
X324420D01*
Y412746D01*
X324200D01*
Y412856D01*
X323981D01*
Y412966D01*
X323762D01*
Y413075D01*
X323543D01*
Y413185D01*
X323324D01*
Y413295D01*
X323214D01*
Y413404D01*
X323104D01*
Y413514D01*
X322885D01*
Y413623D01*
X322776D01*
Y413733D01*
X322666D01*
Y413842D01*
X322556D01*
Y413952D01*
X322447D01*
Y414062D01*
X322337D01*
Y414171D01*
X322228D01*
Y414281D01*
X322118D01*
Y414390D01*
X322008D01*
Y414500D01*
X321789D01*
Y414390D01*
X321680D01*
Y414281D01*
X321570D01*
Y414171D01*
X321461D01*
Y414062D01*
X321351D01*
Y413952D01*
X321241D01*
Y413842D01*
X321132D01*
Y413733D01*
X321022D01*
Y413623D01*
X320913D01*
Y413514D01*
X320803D01*
Y413404D01*
X320584D01*
Y413295D01*
X320474D01*
Y413185D01*
X320255D01*
Y413075D01*
X320036D01*
Y412966D01*
X319926D01*
Y412856D01*
X319707D01*
Y412746D01*
X319378D01*
Y412637D01*
X319049D01*
Y412527D01*
X318721D01*
Y412418D01*
X318173D01*
Y412308D01*
X316419D01*
Y412418D01*
X315871D01*
Y412527D01*
X315542D01*
Y412637D01*
X315213D01*
Y412746D01*
X314994D01*
Y412856D01*
X314775D01*
Y412966D01*
X314556D01*
Y413075D01*
X314337D01*
Y413185D01*
X314227D01*
Y413295D01*
X314008D01*
Y413404D01*
X313898D01*
Y413514D01*
X313789D01*
Y413623D01*
X313570D01*
Y413733D01*
X313460D01*
Y413842D01*
X313350D01*
Y413952D01*
X313241D01*
Y414062D01*
X313131D01*
Y414171D01*
X313022D01*
Y414281D01*
X312912D01*
Y414390D01*
X312802D01*
Y414500D01*
X312583D01*
Y414390D01*
Y414281D01*
X312474D01*
Y414171D01*
X312364D01*
Y414062D01*
X312255D01*
Y413952D01*
X312145D01*
Y413842D01*
X312035D01*
Y413733D01*
X311816D01*
Y413623D01*
X311706D01*
Y413514D01*
X311597D01*
Y413404D01*
X311487D01*
Y413295D01*
X311268D01*
Y413185D01*
X311049D01*
Y413075D01*
X310939D01*
Y412966D01*
X310720D01*
Y412856D01*
X310501D01*
Y412746D01*
X310282D01*
Y412637D01*
X309953D01*
Y412527D01*
X309624D01*
Y412418D01*
X309076D01*
Y412308D01*
X307213D01*
Y412418D01*
X306775D01*
Y412527D01*
X306336D01*
Y412637D01*
X306117D01*
Y412746D01*
X305788D01*
Y412856D01*
X305569D01*
Y412966D01*
X305350D01*
Y413075D01*
X305240D01*
Y413185D01*
X305021D01*
Y413295D01*
X304912D01*
Y413404D01*
X304692D01*
Y413514D01*
X304583D01*
Y413623D01*
X304473D01*
Y413733D01*
X304364D01*
Y413842D01*
X304144D01*
Y413952D01*
X304035D01*
Y414062D01*
X303925D01*
Y414171D01*
X303816D01*
Y414281D01*
Y414390D01*
X303706D01*
Y414500D01*
X303487D01*
Y414390D01*
X303377D01*
Y414281D01*
X303268D01*
Y414171D01*
X303158D01*
Y414062D01*
X303048D01*
Y413952D01*
X302939D01*
Y413842D01*
X302829D01*
Y413733D01*
X302720D01*
Y413623D01*
X302610D01*
Y413514D01*
X302391D01*
Y413404D01*
X302281D01*
Y413295D01*
X302062D01*
Y413185D01*
X301953D01*
Y413075D01*
X301733D01*
Y412966D01*
X301514D01*
Y412856D01*
X301295D01*
Y412746D01*
X301076D01*
Y412637D01*
X300747D01*
Y412527D01*
X300418D01*
Y412418D01*
X299870D01*
Y412308D01*
X298117D01*
Y412418D01*
X297569D01*
Y412527D01*
X297240D01*
Y412637D01*
X296911D01*
Y412746D01*
X296692D01*
Y412856D01*
X296363D01*
Y412966D01*
X296253D01*
Y413075D01*
X296034D01*
Y413185D01*
X295815D01*
Y413295D01*
X295706D01*
Y413404D01*
X295596D01*
Y413514D01*
X295377D01*
Y413623D01*
X295267D01*
Y413733D01*
X295158D01*
Y413842D01*
X295048D01*
Y413952D01*
X294938D01*
Y414062D01*
X294829D01*
Y414171D01*
X294719D01*
Y414281D01*
X294610D01*
Y414390D01*
X294500D01*
Y414500D01*
X294281D01*
Y414390D01*
X294171D01*
Y414281D01*
X294062D01*
Y414171D01*
X293952D01*
Y414062D01*
X293842D01*
Y413952D01*
X293733D01*
Y413842D01*
X293623D01*
Y413733D01*
X293514D01*
Y413623D01*
X293404D01*
Y413514D01*
X293185D01*
Y413404D01*
X293075D01*
Y413295D01*
X292966D01*
Y413185D01*
X292746D01*
Y413075D01*
X292527D01*
Y412966D01*
X292418D01*
Y412856D01*
X292089D01*
Y412746D01*
X291870D01*
Y412637D01*
X291541D01*
Y412527D01*
X291212D01*
Y412418D01*
X290664D01*
Y412308D01*
X288801D01*
Y412418D01*
X288363D01*
Y412527D01*
X287924D01*
Y412637D01*
X287705D01*
Y412746D01*
X287376D01*
Y412856D01*
X287157D01*
Y412966D01*
X286938D01*
Y413075D01*
X286828D01*
Y413185D01*
X286609D01*
Y413295D01*
X286500D01*
Y413404D01*
X286280D01*
Y413514D01*
X286171D01*
Y413623D01*
X286061D01*
Y413733D01*
X285951D01*
Y413842D01*
X285842D01*
Y413952D01*
X285732D01*
Y414062D01*
X285623D01*
Y414171D01*
X285513D01*
Y414281D01*
Y414390D01*
X285404D01*
Y414500D01*
X285294D01*
Y414610D01*
X285184D01*
Y414719D01*
Y414829D01*
X285075D01*
Y414938D01*
Y415048D01*
X284965D01*
Y415158D01*
X284856D01*
Y415267D01*
Y415377D01*
X284746D01*
Y415486D01*
Y415596D01*
X284636D01*
Y415706D01*
Y415815D01*
Y415925D01*
X284527D01*
Y416034D01*
Y416144D01*
X284417D01*
Y416254D01*
Y416363D01*
Y416473D01*
Y416582D01*
X284308D01*
Y416692D01*
Y416802D01*
Y416911D01*
X284417D01*
Y417021D01*
Y417130D01*
Y417240D01*
Y417349D01*
X284527D01*
Y417459D01*
X284636D01*
Y417569D01*
X284746D01*
Y417678D01*
X284856D01*
Y417788D01*
X285075D01*
Y417898D01*
X285513D01*
Y418007D01*
X285732D01*
Y417898D01*
X286061D01*
Y417788D01*
X286280D01*
Y417678D01*
X286390D01*
Y417569D01*
X286500D01*
Y417459D01*
X286609D01*
Y417349D01*
Y417240D01*
X286719D01*
Y417130D01*
Y417021D01*
X286828D01*
Y416911D01*
Y416802D01*
X286938D01*
Y416692D01*
Y416582D01*
Y416473D01*
X287048D01*
Y416363D01*
Y416254D01*
X287157D01*
Y416144D01*
X287267D01*
Y416034D01*
Y415925D01*
X287376D01*
Y415815D01*
X287486D01*
Y415706D01*
X287596D01*
Y415596D01*
X287705D01*
Y415486D01*
X287815D01*
Y415377D01*
X287924D01*
Y415267D01*
X288143D01*
Y415158D01*
X288253D01*
Y415048D01*
X288472D01*
Y414938D01*
X288801D01*
Y414829D01*
X289459D01*
Y414719D01*
X290116D01*
Y414829D01*
X290664D01*
Y414938D01*
X290993D01*
Y415048D01*
X291212D01*
Y415158D01*
X291431D01*
Y415267D01*
X291651D01*
Y415377D01*
X291760D01*
Y415486D01*
X291870D01*
Y415596D01*
X291979D01*
Y415706D01*
X292198D01*
Y415815D01*
Y415925D01*
X292308D01*
Y416034D01*
X292418D01*
Y416144D01*
X292527D01*
Y416254D01*
X292637D01*
Y416363D01*
Y416473D01*
X292746D01*
Y416582D01*
X292856D01*
Y416692D01*
Y416802D01*
X292966D01*
Y416911D01*
Y417021D01*
Y417130D01*
Y417240D01*
X292856D01*
Y417349D01*
Y417459D01*
X292746D01*
Y417569D01*
Y417678D01*
X292637D01*
Y417788D01*
Y417898D01*
X292527D01*
Y418007D01*
Y418117D01*
X292418D01*
Y418226D01*
Y418336D01*
Y418445D01*
X292308D01*
Y418555D01*
Y418665D01*
X292198D01*
Y418774D01*
Y418884D01*
Y418993D01*
X292089D01*
Y419103D01*
Y419213D01*
X291979D01*
Y419322D01*
Y419432D01*
Y419541D01*
Y419651D01*
X291870D01*
Y419761D01*
Y419870D01*
Y419980D01*
Y420089D01*
X291760D01*
Y420199D01*
Y420309D01*
Y420418D01*
X291651D01*
Y420528D01*
Y420637D01*
Y420747D01*
Y420857D01*
Y420966D01*
Y421076D01*
X291541D01*
Y421185D01*
Y421295D01*
Y421405D01*
Y421514D01*
X280801D01*
Y421624D01*
X280472D01*
Y421733D01*
X280253D01*
Y421843D01*
X280143D01*
Y421952D01*
X280033D01*
Y422062D01*
Y422172D01*
X279924D01*
Y422281D01*
X279814D01*
Y422391D01*
Y422501D01*
Y422610D01*
Y422720D01*
Y422829D01*
Y422939D01*
Y423048D01*
Y423158D01*
Y423268D01*
X279924D01*
Y423377D01*
X280033D01*
Y423487D01*
Y423596D01*
X280143D01*
Y423706D01*
X280362D01*
Y423816D01*
X280472D01*
Y423925D01*
X280910D01*
Y424035D01*
X291541D01*
Y424144D01*
Y424254D01*
Y424364D01*
Y424473D01*
Y424583D01*
Y424692D01*
X291651D01*
Y424802D01*
Y424912D01*
Y425021D01*
Y425131D01*
Y425240D01*
X291760D01*
Y425350D01*
Y425460D01*
Y425569D01*
Y425679D01*
Y425788D01*
X291870D01*
Y425898D01*
Y426008D01*
Y426117D01*
X291979D01*
Y426227D01*
Y426336D01*
Y426446D01*
Y426555D01*
X292089D01*
Y426665D01*
Y426775D01*
X292198D01*
Y426884D01*
Y426994D01*
Y427104D01*
X292308D01*
Y427213D01*
Y427323D01*
Y427432D01*
X292418D01*
Y427542D01*
Y427652D01*
X292527D01*
Y427761D01*
Y427871D01*
X292637D01*
Y427980D01*
Y428090D01*
X292746D01*
Y428199D01*
Y428309D01*
X292856D01*
Y428419D01*
Y428528D01*
X292966D01*
Y428638D01*
Y428747D01*
X293075D01*
Y428857D01*
Y428967D01*
X293185D01*
Y429076D01*
X293294D01*
Y429186D01*
Y429295D01*
X293404D01*
Y429405D01*
X293514D01*
Y429515D01*
Y429624D01*
X293623D01*
Y429734D01*
X293733D01*
Y429843D01*
Y429953D01*
X293842D01*
Y430063D01*
X293952D01*
Y430172D01*
X294062D01*
Y430282D01*
Y430391D01*
Y430501D01*
X293952D01*
Y430611D01*
X293842D01*
Y430720D01*
X293733D01*
Y430830D01*
X293623D01*
Y430939D01*
X293514D01*
Y431049D01*
X293404D01*
Y431158D01*
X293294D01*
Y431268D01*
X293185D01*
Y431378D01*
X293075D01*
Y431487D01*
X292966D01*
Y431597D01*
X292856D01*
Y431706D01*
X292746D01*
Y431816D01*
X292637D01*
Y431926D01*
X292527D01*
Y432035D01*
X292418D01*
Y432145D01*
X292308D01*
Y432255D01*
X292198D01*
Y432364D01*
X292089D01*
Y432474D01*
X291979D01*
Y432583D01*
X291870D01*
Y432693D01*
X291760D01*
Y432802D01*
X291651D01*
Y432912D01*
X291541D01*
Y433022D01*
X291431D01*
Y433131D01*
X291322D01*
Y433241D01*
X291212D01*
Y433350D01*
X291103D01*
Y433460D01*
X290993D01*
Y433570D01*
X290883D01*
Y433679D01*
X290774D01*
Y433789D01*
X290664D01*
Y433898D01*
X290555D01*
Y434008D01*
X290445D01*
Y434118D01*
X290335D01*
Y434227D01*
X290226D01*
Y434337D01*
X290116D01*
Y434446D01*
X290007D01*
Y434556D01*
X289897D01*
Y434666D01*
X289787D01*
Y434775D01*
X289678D01*
Y434885D01*
X289568D01*
Y434994D01*
X289459D01*
Y435104D01*
X289349D01*
Y435214D01*
X289239D01*
Y435323D01*
X289130D01*
Y435433D01*
X289020D01*
Y435542D01*
X288911D01*
Y435652D01*
X288801D01*
Y435761D01*
X288691D01*
Y435871D01*
X288582D01*
Y435981D01*
X288472D01*
Y436090D01*
X288363D01*
Y436200D01*
X288253D01*
Y436309D01*
X288143D01*
Y436419D01*
X288034D01*
Y436529D01*
X287924D01*
Y436638D01*
Y436748D01*
X287815D01*
Y436858D01*
X287705D01*
Y436967D01*
Y437077D01*
X287596D01*
Y437186D01*
Y437296D01*
Y437405D01*
Y437515D01*
Y437625D01*
Y437734D01*
Y437844D01*
X287705D01*
Y437954D01*
Y438063D01*
X287815D01*
Y438173D01*
Y438282D01*
X287924D01*
Y438392D01*
X288034D01*
Y438501D01*
X288253D01*
Y438611D01*
X288582D01*
Y438721D01*
X289020D01*
Y438611D01*
X289349D01*
Y438501D01*
X289568D01*
Y438392D01*
X289678D01*
Y438282D01*
X289787D01*
Y438173D01*
X289897D01*
Y438063D01*
X290007D01*
Y437954D01*
X290116D01*
Y437844D01*
X290226D01*
Y437734D01*
X290335D01*
Y437625D01*
X290445D01*
Y437515D01*
X290555D01*
Y437405D01*
X290664D01*
Y437296D01*
X290774D01*
Y437186D01*
X290883D01*
Y437077D01*
X290993D01*
Y436967D01*
X291103D01*
Y436858D01*
X291212D01*
Y436748D01*
X291322D01*
Y436638D01*
X291431D01*
Y436529D01*
X291541D01*
Y436419D01*
X291651D01*
Y436309D01*
X291760D01*
Y436200D01*
X291870D01*
Y436090D01*
X291979D01*
Y435981D01*
X292089D01*
Y435871D01*
X292198D01*
Y435761D01*
X292308D01*
Y435652D01*
X292418D01*
Y435542D01*
X292527D01*
Y435433D01*
X292637D01*
Y435323D01*
X292746D01*
Y435214D01*
X292856D01*
Y435104D01*
X292966D01*
Y434994D01*
X293075D01*
Y434885D01*
X293185D01*
Y434775D01*
X293294D01*
Y434666D01*
X293404D01*
Y434556D01*
X293514D01*
Y434446D01*
X293623D01*
Y434337D01*
X293733D01*
Y434227D01*
X293842D01*
Y434118D01*
X293952D01*
Y434008D01*
X294062D01*
Y433898D01*
X294171D01*
Y433789D01*
X294281D01*
Y433679D01*
X294390D01*
Y433570D01*
X294500D01*
Y433460D01*
X294610D01*
Y433350D01*
X294719D01*
Y433241D01*
X294829D01*
Y433131D01*
X294938D01*
Y433022D01*
X295048D01*
Y432912D01*
X295158D01*
Y432802D01*
X295267D01*
Y432693D01*
X295377D01*
Y432583D01*
X295486D01*
Y432474D01*
X295596D01*
Y432364D01*
X295706D01*
Y432255D01*
X295815D01*
Y432145D01*
X296034D01*
Y432255D01*
X296144D01*
Y432364D01*
X296253D01*
Y432474D01*
X296473D01*
Y432583D01*
X296582D01*
Y432693D01*
X296692D01*
Y432802D01*
X296911D01*
Y432912D01*
X297021D01*
Y433022D01*
X297240D01*
Y433131D01*
X297459D01*
Y433241D01*
X297678D01*
Y433350D01*
X297788D01*
Y433460D01*
X298007D01*
Y433570D01*
X298226D01*
Y433679D01*
X298445D01*
Y433789D01*
X298665D01*
Y433898D01*
X298993D01*
Y434008D01*
X299213D01*
Y434118D01*
X299541D01*
Y434227D01*
X299870D01*
Y434337D01*
X300309D01*
Y434446D01*
X300637D01*
Y434556D01*
X301185D01*
Y434666D01*
X301843D01*
Y434775D01*
X302281D01*
Y434885D01*
Y434994D01*
Y435104D01*
Y435214D01*
Y435323D01*
Y435433D01*
Y435542D01*
Y435652D01*
Y435761D01*
Y435871D01*
Y435981D01*
Y436090D01*
Y436200D01*
Y436309D01*
Y436419D01*
Y436529D01*
Y436638D01*
Y436748D01*
Y436858D01*
Y436967D01*
Y437077D01*
Y437186D01*
Y437296D01*
Y437405D01*
Y437515D01*
Y437625D01*
Y437734D01*
Y437844D01*
Y437954D01*
Y438063D01*
Y438173D01*
Y438282D01*
Y438392D01*
Y438501D01*
Y438611D01*
Y438721D01*
Y438830D01*
Y438940D01*
Y439049D01*
Y439159D01*
Y439269D01*
Y439378D01*
Y439488D01*
Y439597D01*
Y439707D01*
Y439817D01*
Y439926D01*
Y440036D01*
Y440145D01*
Y440255D01*
Y440365D01*
Y440474D01*
Y440584D01*
Y440693D01*
Y440803D01*
Y440912D01*
Y441022D01*
Y441132D01*
Y441241D01*
Y441351D01*
Y441461D01*
Y441570D01*
Y441680D01*
Y441789D01*
Y441899D01*
Y442008D01*
Y442118D01*
Y442228D01*
Y442337D01*
Y442447D01*
Y442556D01*
Y442666D01*
Y442776D01*
Y442885D01*
Y442995D01*
Y443104D01*
Y443214D01*
Y443324D01*
Y443433D01*
Y443543D01*
Y443652D01*
Y443762D01*
Y443872D01*
Y443981D01*
Y444091D01*
Y444200D01*
Y444310D01*
Y444420D01*
Y444529D01*
Y444639D01*
Y444748D01*
Y444858D01*
Y444968D01*
Y445077D01*
Y445187D01*
Y445296D01*
Y445406D01*
Y445515D01*
Y445625D01*
Y445735D01*
Y445844D01*
X302391D01*
Y445954D01*
X302501D01*
Y446064D01*
Y446173D01*
X302610D01*
Y446283D01*
X302720D01*
Y446392D01*
X302939D01*
Y446502D01*
X303377D01*
Y446611D01*
X303596D01*
Y446502D01*
D02*
G37*
G36*
X313898Y410116D02*
X314118D01*
Y410007D01*
X314227D01*
Y409897D01*
X314337D01*
Y409787D01*
X314446D01*
Y409678D01*
X314556D01*
Y409568D01*
Y409459D01*
X314666D01*
Y409349D01*
Y409239D01*
X314775D01*
Y409130D01*
Y409020D01*
X314885D01*
Y408911D01*
Y408801D01*
X314994D01*
Y408691D01*
Y408582D01*
X315104D01*
Y408472D01*
Y408363D01*
X315213D01*
Y408253D01*
X315323D01*
Y408144D01*
X315433D01*
Y408034D01*
Y407924D01*
X315542D01*
Y407815D01*
X315652D01*
Y407705D01*
X315761D01*
Y407595D01*
X315871D01*
Y407486D01*
X316090D01*
Y407376D01*
X316200D01*
Y407267D01*
X316309D01*
Y407157D01*
X316529D01*
Y407048D01*
X316748D01*
Y406938D01*
X317077D01*
Y406828D01*
X317515D01*
Y406719D01*
X318721D01*
Y406828D01*
X319159D01*
Y406938D01*
X319378D01*
Y407048D01*
X319597D01*
Y407157D01*
X319817D01*
Y407267D01*
X319926D01*
Y407376D01*
X320036D01*
Y407486D01*
X320255D01*
Y407595D01*
X320364D01*
Y407705D01*
Y407815D01*
X320474D01*
Y407924D01*
X320584D01*
Y408034D01*
X320693D01*
Y408144D01*
Y408253D01*
X320803D01*
Y408363D01*
Y408472D01*
X320913D01*
Y408582D01*
Y408691D01*
X321022D01*
Y408801D01*
Y408911D01*
Y409020D01*
X321132D01*
Y409130D01*
Y409239D01*
X321241D01*
Y409349D01*
X321351D01*
Y409459D01*
Y409568D01*
X321461D01*
Y409678D01*
X321680D01*
Y409787D01*
X321899D01*
Y409897D01*
X322776D01*
Y409787D01*
X322885D01*
Y409678D01*
X323104D01*
Y409568D01*
X323214D01*
Y409459D01*
X323324D01*
Y409349D01*
Y409239D01*
X323433D01*
Y409130D01*
Y409020D01*
Y408911D01*
X323543D01*
Y408801D01*
Y408691D01*
Y408582D01*
X323433D01*
Y408472D01*
Y408363D01*
Y408253D01*
Y408144D01*
X323324D01*
Y408034D01*
Y407924D01*
Y407815D01*
X323214D01*
Y407705D01*
Y407595D01*
X323104D01*
Y407486D01*
Y407376D01*
X322995D01*
Y407267D01*
Y407157D01*
X322885D01*
Y407048D01*
Y406938D01*
X322776D01*
Y406828D01*
X322666D01*
Y406719D01*
Y406609D01*
X322556D01*
Y406499D01*
X322447D01*
Y406390D01*
Y406280D01*
X322337D01*
Y406171D01*
X322228D01*
Y406061D01*
X322118D01*
Y405951D01*
X322008D01*
Y405842D01*
X321899D01*
Y405732D01*
X321789D01*
Y405623D01*
X321680D01*
Y405513D01*
X321570D01*
Y405404D01*
X321461D01*
Y405294D01*
X321241D01*
Y405184D01*
X321132D01*
Y405075D01*
X320913D01*
Y404965D01*
X320693D01*
Y404856D01*
X320474D01*
Y404746D01*
X320255D01*
Y404636D01*
X320036D01*
Y404527D01*
X319597D01*
Y404417D01*
X319159D01*
Y404308D01*
X318063D01*
Y404198D01*
X317953D01*
Y404308D01*
X316967D01*
Y404417D01*
X316529D01*
Y404527D01*
X316200D01*
Y404636D01*
X315871D01*
Y404746D01*
X315652D01*
Y404856D01*
X315433D01*
Y404965D01*
X315213D01*
Y405075D01*
X314994D01*
Y405184D01*
X314885D01*
Y405294D01*
X314666D01*
Y405404D01*
X314556D01*
Y405513D01*
X314446D01*
Y405623D01*
X314337D01*
Y405732D01*
X314118D01*
Y405842D01*
X314008D01*
Y405951D01*
X313898D01*
Y406061D01*
X313789D01*
Y406171D01*
X313679D01*
Y406280D01*
Y406390D01*
X313570D01*
Y406499D01*
X313350D01*
Y406390D01*
X313241D01*
Y406280D01*
X313131D01*
Y406171D01*
Y406061D01*
X313022D01*
Y405951D01*
X312912D01*
Y405842D01*
X312693D01*
Y405732D01*
X312583D01*
Y405623D01*
X312474D01*
Y405513D01*
X312364D01*
Y405404D01*
X312145D01*
Y405294D01*
X312035D01*
Y405184D01*
X311926D01*
Y405075D01*
X311706D01*
Y404965D01*
X311487D01*
Y404856D01*
X311268D01*
Y404746D01*
X311049D01*
Y404636D01*
X310720D01*
Y404527D01*
X310391D01*
Y404417D01*
X309953D01*
Y404308D01*
X308967D01*
Y404198D01*
X308857D01*
Y404308D01*
X307761D01*
Y404417D01*
X307323D01*
Y404527D01*
X306994D01*
Y404636D01*
X306775D01*
Y404746D01*
X306446D01*
Y404856D01*
X306227D01*
Y404965D01*
X306008D01*
Y405075D01*
X305898D01*
Y405184D01*
X305679D01*
Y405294D01*
X305569D01*
Y405404D01*
X305350D01*
Y405513D01*
X305240D01*
Y405623D01*
X305131D01*
Y405732D01*
X305021D01*
Y405842D01*
X304912D01*
Y405951D01*
X304802D01*
Y406061D01*
X304692D01*
Y406171D01*
X304583D01*
Y406280D01*
X304473D01*
Y406390D01*
X304364D01*
Y406499D01*
X304254D01*
Y406390D01*
X304144D01*
Y406280D01*
X304035D01*
Y406171D01*
X303925D01*
Y406061D01*
X303816D01*
Y405951D01*
X303706D01*
Y405842D01*
X303596D01*
Y405732D01*
X303487D01*
Y405623D01*
X303377D01*
Y405513D01*
X303158D01*
Y405404D01*
X303048D01*
Y405294D01*
X302829D01*
Y405184D01*
X302720D01*
Y405075D01*
X302501D01*
Y404965D01*
X302281D01*
Y404856D01*
X302062D01*
Y404746D01*
X301843D01*
Y404636D01*
X301624D01*
Y404527D01*
X301185D01*
Y404417D01*
X300747D01*
Y404308D01*
X299761D01*
Y404198D01*
X299651D01*
Y404308D01*
X298665D01*
Y404417D01*
X298226D01*
Y404527D01*
X297788D01*
Y404636D01*
X297569D01*
Y404746D01*
X297350D01*
Y404856D01*
X297021D01*
Y404965D01*
X296911D01*
Y405075D01*
X296692D01*
Y405184D01*
X296473D01*
Y405294D01*
X296363D01*
Y405404D01*
X296253D01*
Y405513D01*
X296034D01*
Y405623D01*
X295925D01*
Y405732D01*
X295815D01*
Y405842D01*
X295706D01*
Y405951D01*
X295596D01*
Y406061D01*
X295486D01*
Y406171D01*
X295377D01*
Y406280D01*
X295267D01*
Y406390D01*
X295158D01*
Y406499D01*
X295048D01*
Y406390D01*
X294938D01*
Y406280D01*
X294829D01*
Y406171D01*
X294719D01*
Y406061D01*
X294610D01*
Y405951D01*
X294500D01*
Y405842D01*
X294390D01*
Y405732D01*
X294281D01*
Y405623D01*
X294171D01*
Y405513D01*
X293952D01*
Y405404D01*
X293842D01*
Y405294D01*
X293733D01*
Y405184D01*
X293514D01*
Y405075D01*
X293294D01*
Y404965D01*
X293185D01*
Y404856D01*
X292966D01*
Y404746D01*
X292637D01*
Y404636D01*
X292418D01*
Y404527D01*
X292089D01*
Y404417D01*
X291541D01*
Y404308D01*
X290555D01*
Y404198D01*
X290445D01*
Y404308D01*
X289459D01*
Y404417D01*
X289020D01*
Y404527D01*
X288691D01*
Y404636D01*
X288363D01*
Y404746D01*
X288143D01*
Y404856D01*
X287924D01*
Y404965D01*
X287705D01*
Y405075D01*
X287486D01*
Y405184D01*
X287376D01*
Y405294D01*
X287157D01*
Y405404D01*
X287048D01*
Y405513D01*
X286938D01*
Y405623D01*
X286719D01*
Y405732D01*
X286609D01*
Y405842D01*
X286500D01*
Y405951D01*
X286390D01*
Y406061D01*
X286280D01*
Y406171D01*
X286171D01*
Y406280D01*
X286061D01*
Y406390D01*
Y406499D01*
X285842D01*
Y406390D01*
X285732D01*
Y406280D01*
X285623D01*
Y406171D01*
Y406061D01*
X285513D01*
Y405951D01*
X285294D01*
Y405842D01*
X285184D01*
Y405732D01*
X285075D01*
Y405623D01*
X284965D01*
Y405513D01*
X284856D01*
Y405404D01*
X284636D01*
Y405294D01*
X284527D01*
Y405184D01*
X284308D01*
Y405075D01*
X284198D01*
Y404965D01*
X283979D01*
Y404856D01*
X283760D01*
Y404746D01*
X283540D01*
Y404636D01*
X283212D01*
Y404527D01*
X282883D01*
Y404417D01*
X282445D01*
Y404308D01*
X281458D01*
Y404198D01*
X281348D01*
Y404308D01*
X280253D01*
Y404417D01*
X279705D01*
Y404527D01*
X279376D01*
Y404636D01*
X279157D01*
Y404746D01*
X278828D01*
Y404856D01*
X278609D01*
Y404965D01*
X278499D01*
Y405075D01*
X278280D01*
Y405184D01*
X278170D01*
Y405294D01*
X277951D01*
Y405404D01*
X277841D01*
Y405513D01*
X277732D01*
Y405623D01*
X277622D01*
Y405732D01*
X277513D01*
Y405842D01*
X277403D01*
Y405951D01*
X277293D01*
Y406061D01*
X277184D01*
Y406171D01*
X277074D01*
Y406280D01*
X276965D01*
Y406390D01*
X276855D01*
Y406499D01*
Y406609D01*
X276746D01*
Y406719D01*
X276636D01*
Y406828D01*
Y406938D01*
X276526D01*
Y407048D01*
Y407157D01*
X276417D01*
Y407267D01*
X276307D01*
Y407376D01*
Y407486D01*
Y407595D01*
X276198D01*
Y407705D01*
Y407815D01*
X276088D01*
Y407924D01*
Y408034D01*
X275978D01*
Y408144D01*
Y408253D01*
Y408363D01*
X275869D01*
Y408472D01*
Y408582D01*
Y408691D01*
Y408801D01*
Y408911D01*
Y409020D01*
X275978D01*
Y409130D01*
Y409239D01*
Y409349D01*
X276088D01*
Y409459D01*
X276198D01*
Y409568D01*
X276307D01*
Y409678D01*
X276417D01*
Y409787D01*
X276636D01*
Y409897D01*
X277513D01*
Y409787D01*
X277732D01*
Y409678D01*
X277951D01*
Y409568D01*
X278061D01*
Y409459D01*
Y409349D01*
X278170D01*
Y409239D01*
X278280D01*
Y409130D01*
Y409020D01*
Y408911D01*
X278389D01*
Y408801D01*
Y408691D01*
X278499D01*
Y408582D01*
Y408472D01*
X278609D01*
Y408363D01*
Y408253D01*
X278718D01*
Y408144D01*
Y408034D01*
X278828D01*
Y407924D01*
X278937D01*
Y407815D01*
Y407705D01*
X279047D01*
Y407595D01*
X279157D01*
Y407486D01*
X279266D01*
Y407376D01*
X279485D01*
Y407267D01*
X279595D01*
Y407157D01*
X279814D01*
Y407048D01*
X280033D01*
Y406938D01*
X280253D01*
Y406828D01*
X280691D01*
Y406719D01*
X281896D01*
Y406828D01*
X282335D01*
Y406938D01*
X282554D01*
Y407048D01*
X282883D01*
Y407157D01*
X282993D01*
Y407267D01*
X283212D01*
Y407376D01*
X283321D01*
Y407486D01*
X283540D01*
Y407595D01*
X283650D01*
Y407705D01*
X283760D01*
Y407815D01*
X283869D01*
Y407924D01*
X283979D01*
Y408034D01*
Y408144D01*
X284088D01*
Y408253D01*
X284198D01*
Y408363D01*
X284308D01*
Y408472D01*
Y408582D01*
X284417D01*
Y408691D01*
Y408801D01*
X284527D01*
Y408911D01*
Y409020D01*
X284636D01*
Y409130D01*
Y409239D01*
X284746D01*
Y409349D01*
Y409459D01*
Y409568D01*
X284856D01*
Y409678D01*
X284965D01*
Y409787D01*
Y409897D01*
X285075D01*
Y410007D01*
X285294D01*
Y410116D01*
X285513D01*
Y410226D01*
X286390D01*
Y410116D01*
X286609D01*
Y410007D01*
X286719D01*
Y409897D01*
X286828D01*
Y409787D01*
X286938D01*
Y409678D01*
X287048D01*
Y409568D01*
Y409459D01*
X287157D01*
Y409349D01*
Y409239D01*
X287267D01*
Y409130D01*
Y409020D01*
Y408911D01*
X287376D01*
Y408801D01*
Y408691D01*
X287486D01*
Y408582D01*
X287596D01*
Y408472D01*
Y408363D01*
X287705D01*
Y408253D01*
X287815D01*
Y408144D01*
Y408034D01*
X287924D01*
Y407924D01*
X288034D01*
Y407815D01*
X288143D01*
Y407705D01*
X288253D01*
Y407595D01*
X288363D01*
Y407486D01*
X288472D01*
Y407376D01*
X288691D01*
Y407267D01*
X288801D01*
Y407157D01*
X289020D01*
Y407048D01*
X289239D01*
Y406938D01*
X289568D01*
Y406828D01*
X290007D01*
Y406719D01*
X291103D01*
Y406828D01*
X291541D01*
Y406938D01*
X291760D01*
Y407048D01*
X291979D01*
Y407157D01*
X292198D01*
Y407267D01*
X292418D01*
Y407376D01*
X292527D01*
Y407486D01*
X292637D01*
Y407595D01*
X292746D01*
Y407705D01*
X292856D01*
Y407815D01*
X292966D01*
Y407924D01*
X293075D01*
Y408034D01*
X293185D01*
Y408144D01*
X293294D01*
Y408253D01*
X293404D01*
Y408363D01*
Y408472D01*
X293514D01*
Y408582D01*
Y408691D01*
X293623D01*
Y408801D01*
X293733D01*
Y408911D01*
Y409020D01*
Y409130D01*
X293842D01*
Y409239D01*
Y409349D01*
X293952D01*
Y409459D01*
Y409568D01*
X294062D01*
Y409678D01*
Y409787D01*
X294171D01*
Y409897D01*
X294281D01*
Y410007D01*
X294390D01*
Y410116D01*
X294610D01*
Y410226D01*
X295596D01*
Y410116D01*
X295815D01*
Y410007D01*
X295925D01*
Y409897D01*
X296034D01*
Y409787D01*
X296144D01*
Y409678D01*
Y409568D01*
X296253D01*
Y409459D01*
Y409349D01*
X296363D01*
Y409239D01*
Y409130D01*
X296473D01*
Y409020D01*
Y408911D01*
X296582D01*
Y408801D01*
Y408691D01*
X296692D01*
Y408582D01*
Y408472D01*
X296801D01*
Y408363D01*
X296911D01*
Y408253D01*
Y408144D01*
X297021D01*
Y408034D01*
X297130D01*
Y407924D01*
X297240D01*
Y407815D01*
X297350D01*
Y407705D01*
X297459D01*
Y407595D01*
X297569D01*
Y407486D01*
X297678D01*
Y407376D01*
X297897D01*
Y407267D01*
X298007D01*
Y407157D01*
X298226D01*
Y407048D01*
X298445D01*
Y406938D01*
X298774D01*
Y406828D01*
X299103D01*
Y406719D01*
X300309D01*
Y406828D01*
X300637D01*
Y406938D01*
X300966D01*
Y407048D01*
X301185D01*
Y407157D01*
X301405D01*
Y407267D01*
X301514D01*
Y407376D01*
X301733D01*
Y407486D01*
X301843D01*
Y407595D01*
X301953D01*
Y407705D01*
X302062D01*
Y407815D01*
X302172D01*
Y407924D01*
X302281D01*
Y408034D01*
X302391D01*
Y408144D01*
X302501D01*
Y408253D01*
Y408363D01*
X302610D01*
Y408472D01*
X302720D01*
Y408582D01*
Y408691D01*
X302829D01*
Y408801D01*
Y408911D01*
X302939D01*
Y409020D01*
Y409130D01*
X303048D01*
Y409239D01*
Y409349D01*
Y409459D01*
X303158D01*
Y409568D01*
Y409678D01*
X303268D01*
Y409787D01*
X303377D01*
Y409897D01*
X303487D01*
Y410007D01*
X303596D01*
Y410116D01*
X303816D01*
Y410226D01*
X304692D01*
Y410116D01*
X304912D01*
Y410007D01*
X305131D01*
Y409897D01*
X305240D01*
Y409787D01*
X305350D01*
Y409678D01*
Y409568D01*
X305460D01*
Y409459D01*
Y409349D01*
X305569D01*
Y409239D01*
Y409130D01*
Y409020D01*
X305679D01*
Y408911D01*
Y408801D01*
X305788D01*
Y408691D01*
Y408582D01*
X305898D01*
Y408472D01*
X306008D01*
Y408363D01*
Y408253D01*
X306117D01*
Y408144D01*
X306227D01*
Y408034D01*
X306336D01*
Y407924D01*
Y407815D01*
X306446D01*
Y407705D01*
X306665D01*
Y407595D01*
X306775D01*
Y407486D01*
X306884D01*
Y407376D01*
X306994D01*
Y407267D01*
X307213D01*
Y407157D01*
X307432D01*
Y407048D01*
X307651D01*
Y406938D01*
X307871D01*
Y406828D01*
X308309D01*
Y406719D01*
X309405D01*
Y406828D01*
X309843D01*
Y406938D01*
X310172D01*
Y407048D01*
X310391D01*
Y407157D01*
X310501D01*
Y407267D01*
X310720D01*
Y407376D01*
X310830D01*
Y407486D01*
X311049D01*
Y407595D01*
X311158D01*
Y407705D01*
X311268D01*
Y407815D01*
X311378D01*
Y407924D01*
X311487D01*
Y408034D01*
Y408144D01*
X311597D01*
Y408253D01*
X311706D01*
Y408363D01*
X311816D01*
Y408472D01*
Y408582D01*
X311926D01*
Y408691D01*
Y408801D01*
X312035D01*
Y408911D01*
Y409020D01*
X312145D01*
Y409130D01*
Y409239D01*
X312255D01*
Y409349D01*
Y409459D01*
X312364D01*
Y409568D01*
Y409678D01*
X312474D01*
Y409787D01*
Y409897D01*
X312693D01*
Y410007D01*
X312802D01*
Y410116D01*
X313022D01*
Y410226D01*
X313898D01*
Y410116D01*
D02*
G37*
G36*
X308638Y402116D02*
X308857D01*
Y402006D01*
X309076D01*
Y401896D01*
X309186D01*
Y401787D01*
X309295D01*
Y401677D01*
Y401568D01*
X309405D01*
Y401458D01*
X309515D01*
Y401348D01*
Y401239D01*
Y401129D01*
X309624D01*
Y401020D01*
Y400910D01*
X309734D01*
Y400801D01*
Y400691D01*
X309843D01*
Y400581D01*
Y400472D01*
X309953D01*
Y400362D01*
X310063D01*
Y400253D01*
Y400143D01*
X310172D01*
Y400033D01*
X310282D01*
Y399924D01*
X310391D01*
Y399814D01*
X310501D01*
Y399705D01*
X310611D01*
Y399595D01*
X310720D01*
Y399485D01*
X310830D01*
Y399376D01*
X310939D01*
Y399266D01*
X311158D01*
Y399157D01*
X311378D01*
Y399047D01*
X311597D01*
Y398937D01*
X311816D01*
Y398828D01*
X312255D01*
Y398718D01*
X313570D01*
Y398828D01*
X314008D01*
Y398937D01*
X314227D01*
Y399047D01*
X314446D01*
Y399157D01*
X314666D01*
Y399266D01*
X314775D01*
Y399376D01*
X314885D01*
Y399485D01*
X314994D01*
Y399595D01*
X315104D01*
Y399705D01*
X315213D01*
Y399814D01*
X315323D01*
Y399924D01*
X315433D01*
Y400033D01*
Y400143D01*
X315542D01*
Y400253D01*
X315652D01*
Y400362D01*
Y400472D01*
X315761D01*
Y400581D01*
Y400691D01*
Y400801D01*
X315871D01*
Y400910D01*
Y401020D01*
X315981D01*
Y401129D01*
Y401239D01*
X316090D01*
Y401348D01*
Y401458D01*
X316200D01*
Y401568D01*
X316309D01*
Y401677D01*
X316529D01*
Y401787D01*
X316748D01*
Y401896D01*
X317515D01*
Y401787D01*
X317734D01*
Y401677D01*
X317844D01*
Y401568D01*
X317953D01*
Y401458D01*
X318063D01*
Y401348D01*
X318173D01*
Y401239D01*
Y401129D01*
X318282D01*
Y401020D01*
Y400910D01*
Y400801D01*
Y400691D01*
Y400581D01*
Y400472D01*
Y400362D01*
Y400253D01*
Y400143D01*
X318173D01*
Y400033D01*
Y399924D01*
X318063D01*
Y399814D01*
Y399705D01*
Y399595D01*
X317953D01*
Y399485D01*
Y399376D01*
X317844D01*
Y399266D01*
Y399157D01*
X317734D01*
Y399047D01*
X317625D01*
Y398937D01*
Y398828D01*
X317515D01*
Y398718D01*
Y398609D01*
X317406D01*
Y398499D01*
X317296D01*
Y398390D01*
X317186D01*
Y398280D01*
Y398170D01*
X317077D01*
Y398061D01*
X316967D01*
Y397951D01*
X316858D01*
Y397842D01*
X316748D01*
Y397732D01*
X316638D01*
Y397622D01*
X316529D01*
Y397513D01*
X316419D01*
Y397403D01*
X316309D01*
Y397293D01*
X316090D01*
Y397184D01*
X315981D01*
Y397074D01*
X315761D01*
Y396965D01*
X315542D01*
Y396855D01*
X315433D01*
Y396745D01*
X315104D01*
Y396636D01*
X314885D01*
Y396526D01*
X314556D01*
Y396417D01*
X314118D01*
Y396307D01*
X313241D01*
Y396198D01*
X312474D01*
Y396307D01*
X311706D01*
Y396417D01*
X311268D01*
Y396526D01*
X310939D01*
Y396636D01*
X310611D01*
Y396745D01*
X310391D01*
Y396855D01*
X310172D01*
Y396965D01*
X309953D01*
Y397074D01*
X309843D01*
Y397184D01*
X309624D01*
Y397293D01*
X309515D01*
Y397403D01*
X309405D01*
Y397513D01*
X309186D01*
Y397622D01*
X309076D01*
Y397732D01*
X308967D01*
Y397842D01*
X308857D01*
Y397951D01*
X308747D01*
Y398061D01*
X308638D01*
Y398170D01*
X308528D01*
Y398280D01*
X308419D01*
Y398390D01*
X308309D01*
Y398499D01*
X308199D01*
Y398390D01*
X308090D01*
Y398280D01*
X307980D01*
Y398170D01*
X307871D01*
Y398061D01*
Y397951D01*
X307651D01*
Y397842D01*
X307542D01*
Y397732D01*
X307432D01*
Y397622D01*
X307323D01*
Y397513D01*
X307213D01*
Y397403D01*
X306994D01*
Y397293D01*
X306884D01*
Y397184D01*
X306775D01*
Y397074D01*
X306556D01*
Y396965D01*
X306336D01*
Y396855D01*
X306117D01*
Y396745D01*
X305898D01*
Y396636D01*
X305679D01*
Y396526D01*
X305240D01*
Y396417D01*
X304912D01*
Y396307D01*
X304144D01*
Y396198D01*
X303268D01*
Y396307D01*
X302501D01*
Y396417D01*
X302062D01*
Y396526D01*
X301733D01*
Y396636D01*
X301514D01*
Y396745D01*
X301185D01*
Y396855D01*
X301076D01*
Y396965D01*
X300856D01*
Y397074D01*
X300637D01*
Y397184D01*
X300528D01*
Y397293D01*
X300309D01*
Y397403D01*
X300199D01*
Y397513D01*
X300089D01*
Y397622D01*
X299870D01*
Y397732D01*
X299761D01*
Y397842D01*
X299651D01*
Y397951D01*
X299541D01*
Y398061D01*
X299432D01*
Y398170D01*
X299322D01*
Y398280D01*
X299213D01*
Y398390D01*
X299103D01*
Y398499D01*
X298993D01*
Y398390D01*
Y398280D01*
X298884D01*
Y398170D01*
X298774D01*
Y398061D01*
X298665D01*
Y397951D01*
X298555D01*
Y397842D01*
X298445D01*
Y397732D01*
X298336D01*
Y397622D01*
X298117D01*
Y397513D01*
X298007D01*
Y397403D01*
X297897D01*
Y397293D01*
X297678D01*
Y397184D01*
X297569D01*
Y397074D01*
X297350D01*
Y396965D01*
X297130D01*
Y396855D01*
X297021D01*
Y396745D01*
X296692D01*
Y396636D01*
X296473D01*
Y396526D01*
X296144D01*
Y396417D01*
X295706D01*
Y396307D01*
X294938D01*
Y396198D01*
X294281D01*
Y396307D01*
X293404D01*
Y396417D01*
X292966D01*
Y396526D01*
X292637D01*
Y396636D01*
X292308D01*
Y396745D01*
X292089D01*
Y396855D01*
X291870D01*
Y396965D01*
X291651D01*
Y397074D01*
X291541D01*
Y397184D01*
X291322D01*
Y397293D01*
X291103D01*
Y397403D01*
X290993D01*
Y397513D01*
X290883D01*
Y397622D01*
X290774D01*
Y397732D01*
X290664D01*
Y397842D01*
X290555D01*
Y397951D01*
X290335D01*
Y398061D01*
X290226D01*
Y398170D01*
Y398280D01*
X290116D01*
Y398390D01*
X290007D01*
Y398499D01*
X289897D01*
Y398609D01*
X289787D01*
Y398718D01*
X289678D01*
Y398828D01*
Y398937D01*
X289568D01*
Y399047D01*
Y399157D01*
X289459D01*
Y399266D01*
X289349D01*
Y399376D01*
Y399485D01*
X289239D01*
Y399595D01*
Y399705D01*
X289130D01*
Y399814D01*
Y399924D01*
X289020D01*
Y400033D01*
Y400143D01*
X288911D01*
Y400253D01*
Y400362D01*
Y400472D01*
X288801D01*
Y400581D01*
Y400691D01*
Y400801D01*
Y400910D01*
X288691D01*
Y401020D01*
Y401129D01*
Y401239D01*
X288801D01*
Y401348D01*
Y401458D01*
Y401568D01*
X288911D01*
Y401677D01*
X289020D01*
Y401787D01*
Y401896D01*
X289130D01*
Y402006D01*
X289349D01*
Y402116D01*
X289568D01*
Y402225D01*
X290226D01*
Y402116D01*
X290555D01*
Y402006D01*
X290664D01*
Y401896D01*
X290883D01*
Y401787D01*
Y401677D01*
X290993D01*
Y401568D01*
X291103D01*
Y401458D01*
Y401348D01*
X291212D01*
Y401239D01*
Y401129D01*
Y401020D01*
X291322D01*
Y400910D01*
Y400801D01*
X291431D01*
Y400691D01*
Y400581D01*
X291541D01*
Y400472D01*
X291651D01*
Y400362D01*
Y400253D01*
X291760D01*
Y400143D01*
X291870D01*
Y400033D01*
Y399924D01*
X291979D01*
Y399814D01*
X292089D01*
Y399705D01*
X292198D01*
Y399595D01*
X292308D01*
Y399485D01*
X292527D01*
Y399376D01*
X292637D01*
Y399266D01*
X292856D01*
Y399157D01*
X292966D01*
Y399047D01*
X293185D01*
Y398937D01*
X293514D01*
Y398828D01*
X293842D01*
Y398718D01*
X295158D01*
Y398828D01*
X295596D01*
Y398937D01*
X295815D01*
Y399047D01*
X296034D01*
Y399157D01*
X296253D01*
Y399266D01*
X296363D01*
Y399376D01*
X296582D01*
Y399485D01*
X296692D01*
Y399595D01*
X296801D01*
Y399705D01*
X296911D01*
Y399814D01*
X297021D01*
Y399924D01*
X297130D01*
Y400033D01*
X297240D01*
Y400143D01*
Y400253D01*
X297350D01*
Y400362D01*
X297459D01*
Y400472D01*
Y400581D01*
X297569D01*
Y400691D01*
X297678D01*
Y400801D01*
Y400910D01*
Y401020D01*
X297788D01*
Y401129D01*
Y401239D01*
X297897D01*
Y401348D01*
Y401458D01*
X298007D01*
Y401568D01*
Y401677D01*
X298117D01*
Y401787D01*
X298226D01*
Y401896D01*
X298336D01*
Y402006D01*
X298445D01*
Y402116D01*
X298665D01*
Y402225D01*
X299541D01*
Y402116D01*
X299761D01*
Y402006D01*
X299870D01*
Y401896D01*
X299980D01*
Y401787D01*
X300089D01*
Y401677D01*
X300199D01*
Y401568D01*
Y401458D01*
X300309D01*
Y401348D01*
Y401239D01*
X300418D01*
Y401129D01*
Y401020D01*
Y400910D01*
X300528D01*
Y400801D01*
Y400691D01*
X300637D01*
Y400581D01*
X300747D01*
Y400472D01*
Y400362D01*
X300856D01*
Y400253D01*
X300966D01*
Y400143D01*
Y400033D01*
X301076D01*
Y399924D01*
X301185D01*
Y399814D01*
X301295D01*
Y399705D01*
X301405D01*
Y399595D01*
X301514D01*
Y399485D01*
X301624D01*
Y399376D01*
X301843D01*
Y399266D01*
X301953D01*
Y399157D01*
X302172D01*
Y399047D01*
X302391D01*
Y398937D01*
X302610D01*
Y398828D01*
X303048D01*
Y398718D01*
X304364D01*
Y398828D01*
X304692D01*
Y398937D01*
X305021D01*
Y399047D01*
X305240D01*
Y399157D01*
X305350D01*
Y399266D01*
X305569D01*
Y399376D01*
X305679D01*
Y399485D01*
X305898D01*
Y399595D01*
X306008D01*
Y399705D01*
X306117D01*
Y399814D01*
X306227D01*
Y399924D01*
Y400033D01*
X306336D01*
Y400143D01*
X306446D01*
Y400253D01*
X306556D01*
Y400362D01*
Y400472D01*
X306665D01*
Y400581D01*
X306775D01*
Y400691D01*
Y400801D01*
X306884D01*
Y400910D01*
Y401020D01*
X306994D01*
Y401129D01*
Y401239D01*
Y401348D01*
X307103D01*
Y401458D01*
Y401568D01*
X307213D01*
Y401677D01*
Y401787D01*
X307323D01*
Y401896D01*
X307432D01*
Y402006D01*
X307651D01*
Y402116D01*
X307871D01*
Y402225D01*
X308638D01*
Y402116D01*
D02*
G37*
%LPC*%
G36*
X304583Y432364D02*
X302391D01*
Y432255D01*
X301733D01*
Y432145D01*
X301295D01*
Y432035D01*
X300856D01*
Y431926D01*
X300418D01*
Y431816D01*
X300199D01*
Y431706D01*
X299870D01*
Y431597D01*
X299651D01*
Y431487D01*
X299432D01*
Y431378D01*
X299213D01*
Y431268D01*
X298884D01*
Y431158D01*
X298774D01*
Y431049D01*
X298555D01*
Y430939D01*
X298445D01*
Y430830D01*
X298226D01*
Y430720D01*
X298007D01*
Y430611D01*
X297897D01*
Y430501D01*
X297788D01*
Y430391D01*
X297569D01*
Y430282D01*
X297459D01*
Y430172D01*
X297350D01*
Y430063D01*
X297240D01*
Y429953D01*
X297130D01*
Y429843D01*
X297021D01*
Y429734D01*
X296801D01*
Y429624D01*
X296692D01*
Y429515D01*
X296582D01*
Y429405D01*
Y429295D01*
X296473D01*
Y429186D01*
X296363D01*
Y429076D01*
X296253D01*
Y428967D01*
X296144D01*
Y428857D01*
X296034D01*
Y428747D01*
X295925D01*
Y428638D01*
Y428528D01*
X295815D01*
Y428419D01*
X295706D01*
Y428309D01*
X295596D01*
Y428199D01*
Y428090D01*
X295486D01*
Y427980D01*
X295377D01*
Y427871D01*
Y427761D01*
X295267D01*
Y427652D01*
Y427542D01*
X295158D01*
Y427432D01*
X295048D01*
Y427323D01*
Y427213D01*
X294938D01*
Y427104D01*
Y426994D01*
X294829D01*
Y426884D01*
Y426775D01*
X294719D01*
Y426665D01*
Y426555D01*
X294610D01*
Y426446D01*
Y426336D01*
Y426227D01*
X294500D01*
Y426117D01*
Y426008D01*
Y425898D01*
X294390D01*
Y425788D01*
Y425679D01*
Y425569D01*
X294281D01*
Y425460D01*
Y425350D01*
Y425240D01*
Y425131D01*
X294171D01*
Y425021D01*
Y424912D01*
Y424802D01*
Y424692D01*
X294062D01*
Y424583D01*
Y424473D01*
Y424364D01*
Y424254D01*
Y424144D01*
Y424035D01*
X293952D01*
Y423925D01*
Y423816D01*
Y423706D01*
Y423596D01*
Y423487D01*
Y423377D01*
Y423268D01*
Y423158D01*
Y423048D01*
Y422939D01*
Y422829D01*
Y422720D01*
Y422610D01*
Y422501D01*
Y422391D01*
Y422281D01*
Y422172D01*
Y422062D01*
Y421952D01*
Y421843D01*
Y421733D01*
Y421624D01*
Y421514D01*
X294062D01*
Y421405D01*
Y421295D01*
Y421185D01*
Y421076D01*
X294171D01*
Y420966D01*
Y420857D01*
Y420747D01*
Y420637D01*
Y420528D01*
X294281D01*
Y420418D01*
Y420309D01*
Y420199D01*
X294390D01*
Y420089D01*
Y419980D01*
Y419870D01*
X294500D01*
Y419761D01*
Y419651D01*
Y419541D01*
X294610D01*
Y419432D01*
Y419322D01*
X294719D01*
Y419213D01*
Y419103D01*
Y418993D01*
X294829D01*
Y418884D01*
Y418774D01*
X294938D01*
Y418665D01*
Y418555D01*
X295048D01*
Y418445D01*
X295158D01*
Y418336D01*
Y418226D01*
X295267D01*
Y418117D01*
Y418007D01*
X295377D01*
Y417898D01*
Y417788D01*
X295486D01*
Y417678D01*
Y417569D01*
X295596D01*
Y417459D01*
Y417349D01*
Y417240D01*
X295706D01*
Y417130D01*
Y417021D01*
X295815D01*
Y416911D01*
Y416802D01*
X295925D01*
Y416692D01*
Y416582D01*
X296034D01*
Y416473D01*
X296144D01*
Y416363D01*
Y416254D01*
X296253D01*
Y416144D01*
X296363D01*
Y416034D01*
X296473D01*
Y415925D01*
Y415815D01*
X296692D01*
Y415706D01*
X296801D01*
Y415596D01*
X296911D01*
Y415486D01*
X297021D01*
Y415377D01*
X297240D01*
Y415267D01*
X297350D01*
Y415158D01*
X297569D01*
Y415048D01*
X297788D01*
Y414938D01*
X298117D01*
Y414829D01*
X298774D01*
Y414719D01*
X299213D01*
Y414829D01*
X299870D01*
Y414938D01*
X300199D01*
Y415048D01*
X300418D01*
Y415158D01*
X300637D01*
Y415267D01*
X300747D01*
Y415377D01*
X300966D01*
Y415486D01*
X301076D01*
Y415596D01*
X301185D01*
Y415706D01*
X301295D01*
Y415815D01*
X301405D01*
Y415925D01*
X301514D01*
Y416034D01*
X301624D01*
Y416144D01*
X301733D01*
Y416254D01*
X301843D01*
Y416363D01*
Y416473D01*
X301953D01*
Y416582D01*
Y416692D01*
X302062D01*
Y416802D01*
X302172D01*
Y416911D01*
Y417021D01*
Y417130D01*
X302281D01*
Y417240D01*
Y417349D01*
X302391D01*
Y417459D01*
Y417569D01*
X302501D01*
Y417678D01*
Y417788D01*
X302610D01*
Y417898D01*
X302720D01*
Y418007D01*
X302829D01*
Y418117D01*
X303048D01*
Y418226D01*
X303487D01*
Y418336D01*
X303706D01*
Y418226D01*
X304035D01*
Y418117D01*
X304254D01*
Y418007D01*
X304364D01*
Y417898D01*
X304583D01*
Y417788D01*
Y417678D01*
X304692D01*
Y417569D01*
Y417459D01*
X304802D01*
Y417349D01*
Y417240D01*
X304912D01*
Y417130D01*
Y417021D01*
Y416911D01*
X305021D01*
Y416802D01*
Y416692D01*
X305131D01*
Y416582D01*
X305240D01*
Y416473D01*
Y416363D01*
X305350D01*
Y416254D01*
X305460D01*
Y416144D01*
X305569D01*
Y416034D01*
Y415925D01*
X305679D01*
Y415815D01*
X305788D01*
Y415706D01*
X305898D01*
Y415596D01*
X306008D01*
Y415486D01*
X306227D01*
Y415377D01*
X306336D01*
Y415267D01*
X306556D01*
Y415158D01*
X306775D01*
Y415048D01*
X306994D01*
Y414938D01*
X307323D01*
Y414829D01*
X307871D01*
Y414719D01*
X308419D01*
Y414829D01*
X308967D01*
Y414938D01*
X309295D01*
Y415048D01*
X309624D01*
Y415158D01*
X309734D01*
Y415267D01*
X309953D01*
Y415377D01*
X310063D01*
Y415486D01*
X310282D01*
Y415596D01*
X310391D01*
Y415706D01*
X310501D01*
Y415815D01*
X310611D01*
Y415925D01*
X310720D01*
Y416034D01*
X310830D01*
Y416144D01*
Y416254D01*
X310939D01*
Y416363D01*
X311049D01*
Y416473D01*
Y416582D01*
X311158D01*
Y416692D01*
X311268D01*
Y416802D01*
Y416911D01*
X311378D01*
Y417021D01*
Y417130D01*
X311487D01*
Y417240D01*
Y417349D01*
Y417459D01*
X311597D01*
Y417569D01*
Y417678D01*
X311706D01*
Y417788D01*
Y417898D01*
X311816D01*
Y418007D01*
Y418117D01*
X311926D01*
Y418226D01*
Y418336D01*
Y418445D01*
X312035D01*
Y418555D01*
Y418665D01*
X312145D01*
Y418774D01*
Y418884D01*
X312255D01*
Y418993D01*
Y419103D01*
X312364D01*
Y419213D01*
Y419322D01*
X312474D01*
Y419432D01*
Y419541D01*
Y419651D01*
X312583D01*
Y419761D01*
Y419870D01*
Y419980D01*
X312693D01*
Y420089D01*
Y420199D01*
Y420309D01*
X312802D01*
Y420418D01*
Y420528D01*
Y420637D01*
Y420747D01*
Y420857D01*
X312912D01*
Y420966D01*
Y421076D01*
Y421185D01*
Y421295D01*
X313022D01*
Y421405D01*
Y421514D01*
Y421624D01*
Y421733D01*
Y421843D01*
Y421952D01*
Y422062D01*
Y422172D01*
Y422281D01*
Y422391D01*
X313131D01*
Y422501D01*
Y422610D01*
Y422720D01*
Y422829D01*
Y422939D01*
Y423048D01*
Y423158D01*
Y423268D01*
Y423377D01*
X313022D01*
Y423487D01*
Y423596D01*
Y423706D01*
Y423816D01*
Y423925D01*
Y424035D01*
Y424144D01*
Y424254D01*
Y424364D01*
X312912D01*
Y424473D01*
Y424583D01*
Y424692D01*
Y424802D01*
Y424912D01*
X312802D01*
Y425021D01*
Y425131D01*
Y425240D01*
Y425350D01*
X312693D01*
Y425460D01*
Y425569D01*
Y425679D01*
X312583D01*
Y425788D01*
Y425898D01*
Y426008D01*
X312474D01*
Y426117D01*
Y426227D01*
Y426336D01*
X312364D01*
Y426446D01*
Y426555D01*
X312255D01*
Y426665D01*
Y426775D01*
X312145D01*
Y426884D01*
Y426994D01*
X312035D01*
Y427104D01*
Y427213D01*
Y427323D01*
X311926D01*
Y427432D01*
X311816D01*
Y427542D01*
Y427652D01*
X311706D01*
Y427761D01*
Y427871D01*
X311597D01*
Y427980D01*
X311487D01*
Y428090D01*
Y428199D01*
X311378D01*
Y428309D01*
X311268D01*
Y428419D01*
Y428528D01*
X311158D01*
Y428638D01*
X311049D01*
Y428747D01*
X310939D01*
Y428857D01*
X310830D01*
Y428967D01*
Y429076D01*
X310720D01*
Y429186D01*
X310611D01*
Y429295D01*
X310501D01*
Y429405D01*
X310391D01*
Y429515D01*
X310282D01*
Y429624D01*
X310172D01*
Y429734D01*
X310063D01*
Y429843D01*
X309953D01*
Y429953D01*
X309843D01*
Y430063D01*
X309624D01*
Y430172D01*
X309515D01*
Y430282D01*
X309405D01*
Y430391D01*
X309295D01*
Y430501D01*
X309076D01*
Y430611D01*
X308967D01*
Y430720D01*
X308747D01*
Y430830D01*
X308638D01*
Y430939D01*
X308419D01*
Y431049D01*
X308309D01*
Y431158D01*
X308090D01*
Y431268D01*
X307871D01*
Y431378D01*
X307651D01*
Y431487D01*
X307432D01*
Y431597D01*
X307103D01*
Y431706D01*
X306884D01*
Y431816D01*
X306556D01*
Y431926D01*
X306227D01*
Y432035D01*
X305788D01*
Y432145D01*
X305240D01*
Y432255D01*
X304583D01*
Y432364D01*
D02*
G37*
%LPD*%
D11*
X294948Y267555D02*
X303052D01*
X294948Y274445D02*
X303052D01*
X294948Y276555D02*
X303052D01*
X294948Y283445D02*
X303052D01*
X294948Y285555D02*
X303052D01*
X294948Y292445D02*
X303052D01*
X294948Y294055D02*
X303052D01*
X294948Y300945D02*
X303052D01*
X294948Y303555D02*
X303052D01*
X294948Y310445D02*
X303052D01*
X294948Y312555D02*
X303052D01*
X294948Y319445D02*
X303052D01*
X294948Y321555D02*
X303052D01*
X294948Y328445D02*
X303052D01*
X294948Y330055D02*
X303052D01*
X294948Y336945D02*
X303052D01*
X294948Y339555D02*
X303052D01*
X294948Y346445D02*
X303052D01*
X294948Y348555D02*
X303052D01*
X294948Y355445D02*
X303052D01*
X294948Y366555D02*
X303052D01*
X294948Y373445D02*
X303052D01*
X294948Y357555D02*
X303052D01*
X294948Y364445D02*
X303052D01*
X294948Y384055D02*
X303052D01*
X294948Y390945D02*
X303052D01*
X294948Y375555D02*
X303052D01*
X294948Y382445D02*
X303052D01*
D12*
X291498Y268001D02*
Y273999D01*
X288499D01*
X287499Y272999D01*
Y271000D01*
X288499Y270000D01*
X291498D01*
X289498D02*
X287499Y268001D01*
X282501D02*
Y273999D01*
X285500Y271000D01*
X281501D01*
X276503Y268001D02*
Y273999D01*
X279502Y271000D01*
X275503D01*
X291498Y276501D02*
Y282499D01*
X288499D01*
X287499Y281499D01*
Y279500D01*
X288499Y278500D01*
X291498D01*
X289498D02*
X287499Y276501D01*
X282501D02*
Y282499D01*
X285500Y279500D01*
X281501D01*
X279502Y281499D02*
X278502Y282499D01*
X276503D01*
X275503Y281499D01*
Y280500D01*
X276503Y279500D01*
X277502D01*
X276503D01*
X275503Y278500D01*
Y277501D01*
X276503Y276501D01*
X278502D01*
X279502Y277501D01*
X291498Y286001D02*
Y291999D01*
X288499D01*
X287499Y290999D01*
Y289000D01*
X288499Y288000D01*
X291498D01*
X289498D02*
X287499Y286001D01*
X282501D02*
Y291999D01*
X285500Y289000D01*
X281501D01*
X275503Y286001D02*
X279502D01*
X275503Y290000D01*
Y290999D01*
X276503Y291999D01*
X278502D01*
X279502Y290999D01*
X291498Y295001D02*
Y300999D01*
X288499D01*
X287499Y299999D01*
Y298000D01*
X288499Y297000D01*
X291498D01*
X289498D02*
X287499Y295001D01*
X282501D02*
Y300999D01*
X285500Y298000D01*
X281501D01*
X279502Y295001D02*
X277502D01*
X278502D01*
Y300999D01*
X279502Y299999D01*
X291498Y304001D02*
Y309999D01*
X288499D01*
X287499Y308999D01*
Y307000D01*
X288499Y306000D01*
X291498D01*
X289498D02*
X287499Y304001D01*
X282501D02*
Y309999D01*
X285500Y307000D01*
X281501D01*
X279502Y308999D02*
X278502Y309999D01*
X276503D01*
X275503Y308999D01*
Y305001D01*
X276503Y304001D01*
X278502D01*
X279502Y305001D01*
Y308999D01*
X291498Y313501D02*
Y319499D01*
X288499D01*
X287499Y318499D01*
Y316500D01*
X288499Y315500D01*
X291498D01*
X289498D02*
X287499Y313501D01*
X285500Y318499D02*
X284500Y319499D01*
X282501D01*
X281501Y318499D01*
Y317500D01*
X282501Y316500D01*
X283500D01*
X282501D01*
X281501Y315500D01*
Y314501D01*
X282501Y313501D01*
X284500D01*
X285500Y314501D01*
X279502D02*
X278502Y313501D01*
X276503D01*
X275503Y314501D01*
Y318499D01*
X276503Y319499D01*
X278502D01*
X279502Y318499D01*
Y317500D01*
X278502Y316500D01*
X275503D01*
X291498Y321501D02*
Y327499D01*
X288499D01*
X287499Y326499D01*
Y324500D01*
X288499Y323500D01*
X291498D01*
X289498D02*
X287499Y321501D01*
X285500Y326499D02*
X284500Y327499D01*
X282501D01*
X281501Y326499D01*
Y325500D01*
X282501Y324500D01*
X283500D01*
X282501D01*
X281501Y323500D01*
Y322501D01*
X282501Y321501D01*
X284500D01*
X285500Y322501D01*
X279502Y326499D02*
X278502Y327499D01*
X276503D01*
X275503Y326499D01*
Y325500D01*
X276503Y324500D01*
X275503Y323500D01*
Y322501D01*
X276503Y321501D01*
X278502D01*
X279502Y322501D01*
Y323500D01*
X278502Y324500D01*
X279502Y325500D01*
Y326499D01*
X278502Y324500D02*
X276503D01*
X291498Y331001D02*
Y336999D01*
X288499D01*
X287499Y335999D01*
Y334000D01*
X288499Y333000D01*
X291498D01*
X289498D02*
X287499Y331001D01*
X285500Y335999D02*
X284500Y336999D01*
X282501D01*
X281501Y335999D01*
Y335000D01*
X282501Y334000D01*
X283500D01*
X282501D01*
X281501Y333000D01*
Y332001D01*
X282501Y331001D01*
X284500D01*
X285500Y332001D01*
X279502Y336999D02*
X275503D01*
Y335999D01*
X279502Y332001D01*
Y331001D01*
X291498Y340001D02*
Y345999D01*
X288499D01*
X287499Y344999D01*
Y343000D01*
X288499Y342000D01*
X291498D01*
X289498D02*
X287499Y340001D01*
X285500Y344999D02*
X284500Y345999D01*
X282501D01*
X281501Y344999D01*
Y344000D01*
X282501Y343000D01*
X283500D01*
X282501D01*
X281501Y342000D01*
Y341001D01*
X282501Y340001D01*
X284500D01*
X285500Y341001D01*
X275503Y345999D02*
X277502Y344999D01*
X279502Y343000D01*
Y341001D01*
X278502Y340001D01*
X276503D01*
X275503Y341001D01*
Y342000D01*
X276503Y343000D01*
X279502D01*
X291498Y349001D02*
Y354999D01*
X288499D01*
X287499Y353999D01*
Y352000D01*
X288499Y351000D01*
X291498D01*
X289498D02*
X287499Y349001D01*
X285500Y353999D02*
X284500Y354999D01*
X282501D01*
X281501Y353999D01*
Y353000D01*
X282501Y352000D01*
X283500D01*
X282501D01*
X281501Y351000D01*
Y350001D01*
X282501Y349001D01*
X284500D01*
X285500Y350001D01*
X275503Y354999D02*
X279502D01*
Y352000D01*
X277502Y353000D01*
X276503D01*
X275503Y352000D01*
Y350001D01*
X276503Y349001D01*
X278502D01*
X279502Y350001D01*
X291498Y357001D02*
Y362999D01*
X288499D01*
X287499Y361999D01*
Y360000D01*
X288499Y359000D01*
X291498D01*
X289498D02*
X287499Y357001D01*
X285500Y361999D02*
X284500Y362999D01*
X282501D01*
X281501Y361999D01*
Y361000D01*
X282501Y360000D01*
X283500D01*
X282501D01*
X281501Y359000D01*
Y358001D01*
X282501Y357001D01*
X284500D01*
X285500Y358001D01*
X276503Y357001D02*
Y362999D01*
X279502Y360000D01*
X275503D01*
X291498Y366501D02*
Y372499D01*
X288499D01*
X287499Y371499D01*
Y369500D01*
X288499Y368500D01*
X291498D01*
X289498D02*
X287499Y366501D01*
X285500Y371499D02*
X284500Y372499D01*
X282501D01*
X281501Y371499D01*
Y370500D01*
X282501Y369500D01*
X283500D01*
X282501D01*
X281501Y368500D01*
Y367501D01*
X282501Y366501D01*
X284500D01*
X285500Y367501D01*
X279502Y371499D02*
X278502Y372499D01*
X276503D01*
X275503Y371499D01*
Y370500D01*
X276503Y369500D01*
X277502D01*
X276503D01*
X275503Y368500D01*
Y367501D01*
X276503Y366501D01*
X278502D01*
X279502Y367501D01*
X291498Y376001D02*
Y381999D01*
X288499D01*
X287499Y380999D01*
Y379000D01*
X288499Y378000D01*
X291498D01*
X289498D02*
X287499Y376001D01*
X285500Y380999D02*
X284500Y381999D01*
X282501D01*
X281501Y380999D01*
Y380000D01*
X282501Y379000D01*
X283500D01*
X282501D01*
X281501Y378000D01*
Y377001D01*
X282501Y376001D01*
X284500D01*
X285500Y377001D01*
X275503Y376001D02*
X279502D01*
X275503Y380000D01*
Y380999D01*
X276503Y381999D01*
X278502D01*
X279502Y380999D01*
X291498Y385501D02*
Y391499D01*
X288499D01*
X287499Y390499D01*
Y388500D01*
X288499Y387500D01*
X291498D01*
X289498D02*
X287499Y385501D01*
X285500Y390499D02*
X284500Y391499D01*
X282501D01*
X281501Y390499D01*
Y389500D01*
X282501Y388500D01*
X283500D01*
X282501D01*
X281501Y387500D01*
Y386501D01*
X282501Y385501D01*
X284500D01*
X285500Y386501D01*
X279502Y385501D02*
X277502D01*
X278502D01*
Y391499D01*
X279502Y390499D01*
M02*
