G04*
G04 #@! TF.GenerationSoftware,Altium Limited,Altium Designer,21.0.9 (235)*
G04*
G04 Layer_Color=65535*
%FSLAX25Y25*%
%MOIN*%
G70*
G04*
G04 #@! TF.SameCoordinates,8E47622B-7771-418E-90A4-0877E0867BD3*
G04*
G04*
G04 #@! TF.FilePolarity,Positive*
G04*
G01*
G75*
%ADD10C,0.00984*%
%ADD11C,0.01181*%
%ADD12C,0.01000*%
%ADD13C,0.00600*%
D10*
X271417Y393016D02*
X270679Y393442D01*
Y392590D01*
X271417Y393016D01*
D11*
X342827Y228035D02*
Y437090D01*
X407000D01*
Y228035D02*
Y437090D01*
X342827Y228035D02*
X407000D01*
X269134Y226756D02*
Y437071D01*
X208347Y226756D02*
X269134D01*
X208347Y437071D02*
X269134D01*
X307448Y274945D02*
X315552D01*
X307448Y268055D02*
X315552D01*
X307448Y284445D02*
X315552D01*
X307448Y277555D02*
X315552D01*
X307448Y293445D02*
X315552D01*
X307448Y286555D02*
X315552D01*
X307448Y302445D02*
X315552D01*
X307448Y295555D02*
X315552D01*
X307448Y310945D02*
X315552D01*
X307448Y304055D02*
X315552D01*
X307448Y319945D02*
X315552D01*
X307448Y313055D02*
X315552D01*
X307448Y328945D02*
X315552D01*
X307448Y322055D02*
X315552D01*
X307448Y337945D02*
X315552D01*
X307448Y331055D02*
X315552D01*
X307448Y346945D02*
X315552D01*
X307448Y340055D02*
X315552D01*
X307448Y356445D02*
X315552D01*
X307448Y349555D02*
X315552D01*
X307448Y365445D02*
X315552D01*
X307448Y358555D02*
X315552D01*
X307448Y374445D02*
X315552D01*
X307448Y367555D02*
X315552D01*
X307448Y383445D02*
X315552D01*
X307448Y376555D02*
X315552D01*
X307448Y391945D02*
X315552D01*
X307448Y385055D02*
X315552D01*
X307448Y401445D02*
X315552D01*
X307448Y394555D02*
X315552D01*
X275948Y396945D02*
X284052D01*
X275948Y390055D02*
X284052D01*
X275948Y387445D02*
X284052D01*
X275948Y380555D02*
X284052D01*
X275948Y378445D02*
X284052D01*
X275948Y371555D02*
X284052D01*
X275948Y368945D02*
X284052D01*
X275948Y362055D02*
X284052D01*
X275948Y360445D02*
X284052D01*
X275948Y353555D02*
X284052D01*
X275948Y351445D02*
X284052D01*
X275948Y344555D02*
X284052D01*
X275948Y342445D02*
X284052D01*
X275948Y335555D02*
X284052D01*
X275948Y333445D02*
X284052D01*
X275948Y326555D02*
X284052D01*
X275948Y324445D02*
X284052D01*
X275948Y317555D02*
X284052D01*
X275948Y315445D02*
X284052D01*
X275948Y308555D02*
X284052D01*
X275948Y305945D02*
X284052D01*
X275948Y299055D02*
X284052D01*
X275948Y296945D02*
X284052D01*
X275948Y290055D02*
X284052D01*
X275948Y287945D02*
X284052D01*
X275948Y281055D02*
X284052D01*
X275948Y279445D02*
X284052D01*
X275948Y272555D02*
X284052D01*
X275948Y270945D02*
X284052D01*
X275948Y264055D02*
X284052D01*
D12*
X276500Y231270D02*
X277500Y232270D01*
X279499D01*
X280499Y231270D01*
Y230270D01*
X279499Y229271D01*
X278499D01*
X279499D01*
X280499Y228271D01*
Y227271D01*
X279499Y226272D01*
X277500D01*
X276500Y227271D01*
X282498Y226272D02*
Y227271D01*
X283498D01*
Y226272D01*
X282498D01*
X287496D02*
X289496D01*
X288496D01*
Y232270D01*
X287496Y231270D01*
X292495Y232270D02*
X296494D01*
Y231270D01*
X292495Y227271D01*
Y226272D01*
X298493D02*
Y227271D01*
X299493D01*
Y226272D01*
X298493D01*
X307490D02*
X303491D01*
X307490Y230270D01*
Y231270D01*
X306490Y232270D01*
X304491D01*
X303491Y231270D01*
X309489Y226272D02*
X311489D01*
X310489D01*
Y232270D01*
X309489Y231270D01*
X276500Y239500D02*
Y245498D01*
X279499D01*
X280499Y244498D01*
Y242499D01*
X279499Y241499D01*
X276500D01*
X278499D02*
X280499Y239500D01*
X285497D02*
X283498D01*
X282498Y240500D01*
Y242499D01*
X283498Y243499D01*
X285497D01*
X286497Y242499D01*
Y241499D01*
X282498D01*
X288496Y243499D02*
X290495Y239500D01*
X292495Y243499D01*
X300492Y239500D02*
X302492D01*
X301492D01*
Y245498D01*
X300492Y244498D01*
X305491Y239500D02*
Y240500D01*
X306490D01*
Y239500D01*
X305491D01*
X310489Y244498D02*
X311489Y245498D01*
X313488D01*
X314488Y244498D01*
Y240500D01*
X313488Y239500D01*
X311489D01*
X310489Y240500D01*
Y244498D01*
X316487Y239500D02*
Y240500D01*
X317487D01*
Y239500D01*
X316487D01*
X321485Y244498D02*
X322485Y245498D01*
X324484D01*
X325484Y244498D01*
Y240500D01*
X324484Y239500D01*
X322485D01*
X321485Y240500D01*
Y244498D01*
X319003Y269001D02*
Y274999D01*
X322002D01*
X323001Y273999D01*
Y272000D01*
X322002Y271000D01*
X319003D01*
X321002D02*
X323001Y269001D01*
X325001Y273999D02*
X326000Y274999D01*
X328000D01*
X328999Y273999D01*
Y273000D01*
X328000Y272000D01*
X327000D01*
X328000D01*
X328999Y271000D01*
Y270001D01*
X328000Y269001D01*
X326000D01*
X325001Y270001D01*
X330999Y273999D02*
X331998Y274999D01*
X333998D01*
X334997Y273999D01*
Y270001D01*
X333998Y269001D01*
X331998D01*
X330999Y270001D01*
Y273999D01*
X319003Y278501D02*
Y284499D01*
X322002D01*
X323001Y283499D01*
Y281500D01*
X322002Y280500D01*
X319003D01*
X321002D02*
X323001Y278501D01*
X328999D02*
X325001D01*
X328999Y282500D01*
Y283499D01*
X328000Y284499D01*
X326000D01*
X325001Y283499D01*
X330999Y279501D02*
X331998Y278501D01*
X333998D01*
X334997Y279501D01*
Y283499D01*
X333998Y284499D01*
X331998D01*
X330999Y283499D01*
Y282500D01*
X331998Y281500D01*
X334997D01*
X319003Y287501D02*
Y293499D01*
X322002D01*
X323001Y292499D01*
Y290500D01*
X322002Y289500D01*
X319003D01*
X321002D02*
X323001Y287501D01*
X328999D02*
X325001D01*
X328999Y291500D01*
Y292499D01*
X328000Y293499D01*
X326000D01*
X325001Y292499D01*
X330999D02*
X331998Y293499D01*
X333998D01*
X334997Y292499D01*
Y291500D01*
X333998Y290500D01*
X334997Y289500D01*
Y288501D01*
X333998Y287501D01*
X331998D01*
X330999Y288501D01*
Y289500D01*
X331998Y290500D01*
X330999Y291500D01*
Y292499D01*
X331998Y290500D02*
X333998D01*
X319003Y295501D02*
Y301499D01*
X322002D01*
X323001Y300499D01*
Y298500D01*
X322002Y297500D01*
X319003D01*
X321002D02*
X323001Y295501D01*
X328999D02*
X325001D01*
X328999Y299500D01*
Y300499D01*
X328000Y301499D01*
X326000D01*
X325001Y300499D01*
X330999Y301499D02*
X334997D01*
Y300499D01*
X330999Y296501D01*
Y295501D01*
X319003Y305001D02*
Y310999D01*
X322002D01*
X323001Y309999D01*
Y308000D01*
X322002Y307000D01*
X319003D01*
X321002D02*
X323001Y305001D01*
X328999D02*
X325001D01*
X328999Y309000D01*
Y309999D01*
X328000Y310999D01*
X326000D01*
X325001Y309999D01*
X334997Y310999D02*
X332998Y309999D01*
X330999Y308000D01*
Y306001D01*
X331998Y305001D01*
X333998D01*
X334997Y306001D01*
Y307000D01*
X333998Y308000D01*
X330999D01*
X319003Y314001D02*
Y319999D01*
X322002D01*
X323001Y318999D01*
Y317000D01*
X322002Y316000D01*
X319003D01*
X321002D02*
X323001Y314001D01*
X328999D02*
X325001D01*
X328999Y318000D01*
Y318999D01*
X328000Y319999D01*
X326000D01*
X325001Y318999D01*
X334997Y319999D02*
X330999D01*
Y317000D01*
X332998Y318000D01*
X333998D01*
X334997Y317000D01*
Y315001D01*
X333998Y314001D01*
X331998D01*
X330999Y315001D01*
X319003Y322501D02*
Y328499D01*
X322002D01*
X323001Y327499D01*
Y325500D01*
X322002Y324500D01*
X319003D01*
X321002D02*
X323001Y322501D01*
X328999D02*
X325001D01*
X328999Y326500D01*
Y327499D01*
X328000Y328499D01*
X326000D01*
X325001Y327499D01*
X333998Y322501D02*
Y328499D01*
X330999Y325500D01*
X334997D01*
X319003Y332001D02*
Y337999D01*
X322002D01*
X323001Y336999D01*
Y335000D01*
X322002Y334000D01*
X319003D01*
X321002D02*
X323001Y332001D01*
X328999D02*
X325001D01*
X328999Y336000D01*
Y336999D01*
X328000Y337999D01*
X326000D01*
X325001Y336999D01*
X330999D02*
X331998Y337999D01*
X333998D01*
X334997Y336999D01*
Y336000D01*
X333998Y335000D01*
X332998D01*
X333998D01*
X334997Y334000D01*
Y333001D01*
X333998Y332001D01*
X331998D01*
X330999Y333001D01*
X319003Y341501D02*
Y347499D01*
X322002D01*
X323001Y346499D01*
Y344500D01*
X322002Y343500D01*
X319003D01*
X321002D02*
X323001Y341501D01*
X328999D02*
X325001D01*
X328999Y345500D01*
Y346499D01*
X328000Y347499D01*
X326000D01*
X325001Y346499D01*
X334997Y341501D02*
X330999D01*
X334997Y345500D01*
Y346499D01*
X333998Y347499D01*
X331998D01*
X330999Y346499D01*
X319003Y350501D02*
Y356499D01*
X322002D01*
X323001Y355499D01*
Y353500D01*
X322002Y352500D01*
X319003D01*
X321002D02*
X323001Y350501D01*
X328999D02*
X325001D01*
X328999Y354500D01*
Y355499D01*
X328000Y356499D01*
X326000D01*
X325001Y355499D01*
X330999Y350501D02*
X332998D01*
X331998D01*
Y356499D01*
X330999Y355499D01*
X319003Y359001D02*
Y364999D01*
X322002D01*
X323001Y363999D01*
Y362000D01*
X322002Y361000D01*
X319003D01*
X321002D02*
X323001Y359001D01*
X328999D02*
X325001D01*
X328999Y363000D01*
Y363999D01*
X328000Y364999D01*
X326000D01*
X325001Y363999D01*
X330999D02*
X331998Y364999D01*
X333998D01*
X334997Y363999D01*
Y360001D01*
X333998Y359001D01*
X331998D01*
X330999Y360001D01*
Y363999D01*
X319003Y368001D02*
Y373999D01*
X322002D01*
X323001Y372999D01*
Y371000D01*
X322002Y370000D01*
X319003D01*
X321002D02*
X323001Y368001D01*
X325001D02*
X327000D01*
X326000D01*
Y373999D01*
X325001Y372999D01*
X329999Y369001D02*
X330999Y368001D01*
X332998D01*
X333998Y369001D01*
Y372999D01*
X332998Y373999D01*
X330999D01*
X329999Y372999D01*
Y372000D01*
X330999Y371000D01*
X333998D01*
X319003Y377501D02*
Y383499D01*
X322002D01*
X323001Y382499D01*
Y380500D01*
X322002Y379500D01*
X319003D01*
X321002D02*
X323001Y377501D01*
X325001D02*
X327000D01*
X326000D01*
Y383499D01*
X325001Y382499D01*
X329999D02*
X330999Y383499D01*
X332998D01*
X333998Y382499D01*
Y381500D01*
X332998Y380500D01*
X333998Y379500D01*
Y378501D01*
X332998Y377501D01*
X330999D01*
X329999Y378501D01*
Y379500D01*
X330999Y380500D01*
X329999Y381500D01*
Y382499D01*
X330999Y380500D02*
X332998D01*
X319003Y386501D02*
Y392499D01*
X322002D01*
X323001Y391499D01*
Y389500D01*
X322002Y388500D01*
X319003D01*
X321002D02*
X323001Y386501D01*
X325001D02*
X327000D01*
X326000D01*
Y392499D01*
X325001Y391499D01*
X329999Y392499D02*
X333998D01*
Y391499D01*
X329999Y387501D01*
Y386501D01*
X319003Y396001D02*
Y401999D01*
X322002D01*
X323001Y400999D01*
Y399000D01*
X322002Y398000D01*
X319003D01*
X321002D02*
X323001Y396001D01*
X325001D02*
X327000D01*
X326000D01*
Y401999D01*
X325001Y400999D01*
X333998Y401999D02*
X331998Y400999D01*
X329999Y399000D01*
Y397001D01*
X330999Y396001D01*
X332998D01*
X333998Y397001D01*
Y398000D01*
X332998Y399000D01*
X329999D01*
X288502Y265001D02*
Y270999D01*
X291501D01*
X292501Y269999D01*
Y268000D01*
X291501Y267000D01*
X288502D01*
X290502D02*
X292501Y265001D01*
X294500D02*
X296500D01*
X295500D01*
Y270999D01*
X294500Y269999D01*
X303498Y270999D02*
X299499D01*
Y268000D01*
X301498Y269000D01*
X302498D01*
X303498Y268000D01*
Y266001D01*
X302498Y265001D01*
X300499D01*
X299499Y266001D01*
X288502Y273501D02*
Y279499D01*
X291501D01*
X292501Y278499D01*
Y276500D01*
X291501Y275500D01*
X288502D01*
X290502D02*
X292501Y273501D01*
X294500D02*
X296500D01*
X295500D01*
Y279499D01*
X294500Y278499D01*
X302498Y273501D02*
Y279499D01*
X299499Y276500D01*
X303498D01*
X288502Y282001D02*
Y287999D01*
X291501D01*
X292501Y286999D01*
Y285000D01*
X291501Y284000D01*
X288502D01*
X290502D02*
X292501Y282001D01*
X294500D02*
X296500D01*
X295500D01*
Y287999D01*
X294500Y286999D01*
X299499D02*
X300499Y287999D01*
X302498D01*
X303498Y286999D01*
Y286000D01*
X302498Y285000D01*
X301498D01*
X302498D01*
X303498Y284000D01*
Y283001D01*
X302498Y282001D01*
X300499D01*
X299499Y283001D01*
X288502Y291001D02*
Y296999D01*
X291501D01*
X292501Y295999D01*
Y294000D01*
X291501Y293000D01*
X288502D01*
X290502D02*
X292501Y291001D01*
X294500D02*
X296500D01*
X295500D01*
Y296999D01*
X294500Y295999D01*
X303498Y291001D02*
X299499D01*
X303498Y295000D01*
Y295999D01*
X302498Y296999D01*
X300499D01*
X299499Y295999D01*
X288502Y299501D02*
Y305499D01*
X291501D01*
X292501Y304499D01*
Y302500D01*
X291501Y301500D01*
X288502D01*
X290502D02*
X292501Y299501D01*
X294500D02*
X296500D01*
X295500D01*
Y305499D01*
X294500Y304499D01*
X299499Y299501D02*
X301498D01*
X300499D01*
Y305499D01*
X299499Y304499D01*
X288502Y309001D02*
Y314999D01*
X291501D01*
X292501Y313999D01*
Y312000D01*
X291501Y311000D01*
X288502D01*
X290502D02*
X292501Y309001D01*
X294500D02*
X296500D01*
X295500D01*
Y314999D01*
X294500Y313999D01*
X299499D02*
X300499Y314999D01*
X302498D01*
X303498Y313999D01*
Y310001D01*
X302498Y309001D01*
X300499D01*
X299499Y310001D01*
Y313999D01*
X288502Y318501D02*
Y324499D01*
X291501D01*
X292501Y323499D01*
Y321500D01*
X291501Y320500D01*
X288502D01*
X290502D02*
X292501Y318501D01*
X294500Y319501D02*
X295500Y318501D01*
X297499D01*
X298499Y319501D01*
Y323499D01*
X297499Y324499D01*
X295500D01*
X294500Y323499D01*
Y322500D01*
X295500Y321500D01*
X298499D01*
X288502Y327501D02*
Y333499D01*
X291501D01*
X292501Y332499D01*
Y330500D01*
X291501Y329500D01*
X288502D01*
X290502D02*
X292501Y327501D01*
X294500Y332499D02*
X295500Y333499D01*
X297499D01*
X298499Y332499D01*
Y331500D01*
X297499Y330500D01*
X298499Y329500D01*
Y328501D01*
X297499Y327501D01*
X295500D01*
X294500Y328501D01*
Y329500D01*
X295500Y330500D01*
X294500Y331500D01*
Y332499D01*
X295500Y330500D02*
X297499D01*
X288502Y336501D02*
Y342499D01*
X291501D01*
X292501Y341499D01*
Y339500D01*
X291501Y338500D01*
X288502D01*
X290502D02*
X292501Y336501D01*
X294500Y342499D02*
X298499D01*
Y341499D01*
X294500Y337501D01*
Y336501D01*
X288502Y345001D02*
Y350999D01*
X291501D01*
X292501Y349999D01*
Y348000D01*
X291501Y347000D01*
X288502D01*
X290502D02*
X292501Y345001D01*
X298499Y350999D02*
X296500Y349999D01*
X294500Y348000D01*
Y346001D01*
X295500Y345001D01*
X297499D01*
X298499Y346001D01*
Y347000D01*
X297499Y348000D01*
X294500D01*
X288502Y354001D02*
Y359999D01*
X291501D01*
X292501Y358999D01*
Y357000D01*
X291501Y356000D01*
X288502D01*
X290502D02*
X292501Y354001D01*
X298499Y359999D02*
X294500D01*
Y357000D01*
X296500Y358000D01*
X297499D01*
X298499Y357000D01*
Y355001D01*
X297499Y354001D01*
X295500D01*
X294500Y355001D01*
X288502Y363001D02*
Y368999D01*
X291501D01*
X292501Y367999D01*
Y366000D01*
X291501Y365000D01*
X288502D01*
X290502D02*
X292501Y363001D01*
X297499D02*
Y368999D01*
X294500Y366000D01*
X298499D01*
X288502Y372001D02*
Y377999D01*
X291501D01*
X292501Y376999D01*
Y375000D01*
X291501Y374000D01*
X288502D01*
X290502D02*
X292501Y372001D01*
X294500Y376999D02*
X295500Y377999D01*
X297499D01*
X298499Y376999D01*
Y376000D01*
X297499Y375000D01*
X296500D01*
X297499D01*
X298499Y374000D01*
Y373001D01*
X297499Y372001D01*
X295500D01*
X294500Y373001D01*
X288502Y381001D02*
Y386999D01*
X291501D01*
X292501Y385999D01*
Y384000D01*
X291501Y383000D01*
X288502D01*
X290502D02*
X292501Y381001D01*
X298499D02*
X294500D01*
X298499Y385000D01*
Y385999D01*
X297499Y386999D01*
X295500D01*
X294500Y385999D01*
X288502Y391001D02*
Y396999D01*
X291501D01*
X292501Y395999D01*
Y394000D01*
X291501Y393000D01*
X288502D01*
X290502D02*
X292501Y391001D01*
X294500D02*
X296500D01*
X295500D01*
Y396999D01*
X294500Y395999D01*
X331500Y433499D02*
X329501D01*
X330501D01*
Y428501D01*
X329501Y427501D01*
X328501D01*
X327502Y428501D01*
X337498Y427501D02*
X333500D01*
X337498Y431500D01*
Y432499D01*
X336499Y433499D01*
X334499D01*
X333500Y432499D01*
X278000Y433499D02*
X276001D01*
X277000D01*
Y428501D01*
X276001Y427501D01*
X275001D01*
X274001Y428501D01*
X279999Y427501D02*
X281999D01*
X280999D01*
Y433499D01*
X279999Y432499D01*
D13*
X374000Y265999D02*
X370001D01*
X372001Y264000D01*
Y266666D01*
X374000Y269998D02*
X370001D01*
X372001Y267999D01*
Y270665D01*
M02*
