M48
;Layer_Color=9474304
;FILE_FORMAT=2:4
INCH,TZ
;TYPE=PLATED
T1F00S00C0.0394
T2F00S00C0.0433
T3F00S00C0.1260
%
T01
X35200Y26748
Y27650
Y28552
Y29453
Y30355
X36200Y30804
Y29902
Y29000
Y28099
Y27197
X37200Y27650
Y28552
Y29453
Y30355
Y31256
Y32158
Y33059
Y33961
Y34863
Y35764
Y36666
Y37567
Y38469
Y39370
X36200Y39819
Y38918
Y38016
Y37115
Y36213
Y35311
Y34410
Y33508
Y32607
Y31705
X35200Y31256
Y32158
Y33059
Y33961
Y34863
Y35764
Y36666
Y37567
Y38469
Y39370
T02
X24000Y27581
Y28483
Y29384
Y30286
Y31187
X25000Y30737
Y29835
Y28933
Y28032
Y27130
X26000Y26680
Y27581
Y28483
Y29384
Y30286
Y31187
Y32089
Y32991
Y33892
Y34794
Y35695
Y36597
Y37498
Y38400
Y39302
X25000Y38851
Y39752
X24000Y39302
Y38400
Y37498
Y36597
Y35695
Y34794
Y33892
Y32991
Y32089
X25000Y32540
Y33441
Y34343
Y35244
Y36146
Y37048
Y37949
Y31638
T03
X36200Y23985
X25000Y23932
Y42451
X36200Y42528
M30
