G04*
G04 #@! TF.GenerationSoftware,Altium Limited,Altium Designer,21.0.9 (235)*
G04*
G04 Layer_Color=16711935*
%FSLAX25Y25*%
%MOIN*%
G70*
G04*
G04 #@! TF.SameCoordinates,F387145F-AE4B-4741-B797-563D352F3EA4*
G04*
G04*
G04 #@! TF.FilePolarity,Positive*
G04*
G01*
G75*
%ADD11C,0.01181*%
%ADD12C,0.01000*%
D11*
X222260Y449267D02*
X384755Y449261D01*
X209499Y228260D02*
X209500Y436507D01*
X222494Y215021D02*
X387940Y215016D01*
X400700Y227776D02*
X400701Y436022D01*
X404500Y436233D02*
X404500Y228000D01*
X221767Y211233D02*
X387733Y211233D01*
X205000Y228000D02*
X205000Y437000D01*
X221767Y453697D02*
X387500Y453233D01*
D12*
X222260Y449267D02*
X221259Y449228D01*
X220264Y449110D01*
X219281Y448914D01*
X218317Y448642D01*
X217377Y448295D01*
X216467Y447876D01*
X215593Y447386D01*
X214760Y446830D01*
X213973Y446209D01*
X213237Y445529D01*
X212557Y444794D01*
X211937Y444007D01*
X211380Y443174D01*
X210891Y442300D01*
X210471Y441390D01*
X210124Y440450D01*
X209853Y439485D01*
X209657Y438503D01*
X209539Y437508D01*
X209500Y436507D01*
X209733Y228260D02*
X209773Y227259D01*
X209890Y226264D01*
X210086Y225281D01*
X210358Y224317D01*
X210704Y223377D01*
X211124Y222467D01*
X211614Y221593D01*
X212170Y220760D01*
X212790Y219973D01*
X213471Y219237D01*
X214206Y218557D01*
X214993Y217937D01*
X215826Y217380D01*
X216700Y216891D01*
X217610Y216471D01*
X218550Y216125D01*
X219515Y215853D01*
X220497Y215657D01*
X221492Y215539D01*
X222494Y215500D01*
X387940Y215016D02*
X388941Y215055D01*
X389936Y215173D01*
X390918Y215368D01*
X391883Y215640D01*
X392823Y215987D01*
X393733Y216407D01*
X394607Y216896D01*
X395440Y217453D01*
X396227Y218073D01*
X396962Y218753D01*
X397642Y219489D01*
X398263Y220276D01*
X398819Y221109D01*
X399309Y221983D01*
X399728Y222893D01*
X400075Y223833D01*
X400347Y224797D01*
X400543Y225780D01*
X400661Y226775D01*
X400700Y227776D01*
X400201Y434016D02*
X400168Y435026D01*
X400069Y436032D01*
X399904Y437029D01*
X399675Y438014D01*
X399381Y438981D01*
X399025Y439927D01*
X398608Y440848D01*
X398132Y441739D01*
X397598Y442597D01*
X397009Y443419D01*
X396368Y444200D01*
X395677Y444938D01*
X394939Y445629D01*
X394158Y446270D01*
X393336Y446859D01*
X392478Y447393D01*
X391586Y447869D01*
X390666Y448286D01*
X389720Y448643D01*
X388752Y448936D01*
X387768Y449165D01*
X386771Y449330D01*
X385765Y449429D01*
X384755Y449462D01*
X205000Y228000D02*
X205031Y226988D01*
X205122Y225979D01*
X205275Y224978D01*
X205487Y223987D01*
X205759Y223012D01*
X206090Y222054D01*
X206477Y221119D01*
X206921Y220208D01*
X207418Y219326D01*
X207968Y218475D01*
X208568Y217660D01*
X209217Y216882D01*
X209911Y216144D01*
X210648Y215450D01*
X211426Y214802D01*
X212242Y214201D01*
X213093Y213651D01*
X213975Y213154D01*
X214885Y212710D01*
X215821Y212323D01*
X216779Y211992D01*
X217754Y211720D01*
X218744Y211508D01*
X219746Y211355D01*
X220754Y211264D01*
X221767Y211233D01*
X221767Y453767D02*
X220754Y453736D01*
X219746Y453645D01*
X218744Y453492D01*
X217754Y453280D01*
X216779Y453008D01*
X215821Y452677D01*
X214885Y452290D01*
X213975Y451846D01*
X213093Y451349D01*
X212242Y450799D01*
X211426Y450199D01*
X210648Y449550D01*
X209911Y448856D01*
X209217Y448118D01*
X208568Y447340D01*
X207968Y446525D01*
X207418Y445674D01*
X206921Y444792D01*
X206477Y443881D01*
X206090Y442946D01*
X205759Y441988D01*
X205487Y441013D01*
X205275Y440022D01*
X205122Y439021D01*
X205031Y438012D01*
X205000Y437000D01*
X404500Y436233D02*
X404471Y437222D01*
X404385Y438207D01*
X404242Y439185D01*
X404042Y440154D01*
X403786Y441109D01*
X403475Y442048D01*
X403110Y442967D01*
X402692Y443863D01*
X402222Y444733D01*
X401703Y445575D01*
X401136Y446385D01*
X400523Y447161D01*
X399865Y447899D01*
X399166Y448599D01*
X398427Y449256D01*
X397652Y449869D01*
X396842Y450436D01*
X396000Y450956D01*
X395130Y451425D01*
X394233Y451843D01*
X393314Y452208D01*
X392376Y452519D01*
X391421Y452775D01*
X390452Y452975D01*
X389474Y453118D01*
X388489Y453204D01*
X387500Y453233D01*
X387733Y211233D02*
X388746Y211264D01*
X389754Y211355D01*
X390756Y211508D01*
X391746Y211720D01*
X392721Y211992D01*
X393679Y212323D01*
X394615Y212710D01*
X395525Y213154D01*
X396407Y213651D01*
X397258Y214201D01*
X398074Y214802D01*
X398852Y215450D01*
X399589Y216144D01*
X400283Y216882D01*
X400932Y217660D01*
X401532Y218475D01*
X402082Y219326D01*
X402579Y220208D01*
X403023Y221119D01*
X403410Y222055D01*
X403741Y223012D01*
X404013Y223988D01*
X404225Y224978D01*
X404378Y225979D01*
X404469Y226988D01*
X404500Y228000D01*
M02*
