G04*
G04 #@! TF.GenerationSoftware,Altium Limited,Altium Designer,21.0.9 (235)*
G04*
G04 Layer_Color=32896*
%FSLAX25Y25*%
%MOIN*%
G70*
G04*
G04 #@! TF.SameCoordinates,8E47622B-7771-418E-90A4-0877E0867BD3*
G04*
G04*
G04 #@! TF.FilePolarity,Positive*
G04*
G01*
G75*
%ADD11C,0.01181*%
G36*
X299000Y270259D02*
X298666D01*
Y271380D01*
X298236D01*
X298197Y271376D01*
X298167D01*
X298140Y271373D01*
X298121Y271369D01*
X298105D01*
X298098Y271365D01*
X298094D01*
X298036Y271346D01*
X297990Y271323D01*
X297971Y271311D01*
X297955Y271303D01*
X297948Y271300D01*
X297944Y271296D01*
X297913Y271276D01*
X297886Y271250D01*
X297829Y271196D01*
X297810Y271169D01*
X297790Y271146D01*
X297779Y271131D01*
X297775Y271127D01*
X297737Y271077D01*
X297698Y271023D01*
X297656Y270965D01*
X297618Y270908D01*
X297583Y270858D01*
X297556Y270819D01*
X297549Y270804D01*
X297541Y270793D01*
X297533Y270785D01*
Y270781D01*
X297199Y270259D01*
X296780D01*
X297218Y270942D01*
X297268Y271015D01*
X297318Y271081D01*
X297364Y271138D01*
X297406Y271188D01*
X297441Y271227D01*
X297468Y271257D01*
X297487Y271273D01*
X297495Y271280D01*
X297522Y271303D01*
X297556Y271326D01*
X297621Y271369D01*
X297648Y271384D01*
X297671Y271395D01*
X297687Y271403D01*
X297694Y271407D01*
X297629Y271419D01*
X297568Y271430D01*
X297510Y271445D01*
X297460Y271465D01*
X297410Y271484D01*
X297368Y271503D01*
X297326Y271522D01*
X297291Y271541D01*
X297260Y271561D01*
X297234Y271576D01*
X297211Y271595D01*
X297191Y271607D01*
X297180Y271622D01*
X297168Y271630D01*
X297161Y271637D01*
X297130Y271672D01*
X297103Y271710D01*
X297057Y271787D01*
X297026Y271860D01*
X297007Y271933D01*
X296992Y271995D01*
X296988Y272021D01*
Y272044D01*
X296984Y272064D01*
Y272079D01*
Y272087D01*
Y272091D01*
X296988Y272167D01*
X296999Y272236D01*
X297019Y272302D01*
X297038Y272359D01*
X297057Y272405D01*
X297076Y272440D01*
X297088Y272463D01*
X297092Y272471D01*
X297134Y272532D01*
X297180Y272582D01*
X297226Y272624D01*
X297272Y272655D01*
X297310Y272682D01*
X297341Y272701D01*
X297364Y272709D01*
X297368Y272713D01*
X297372D01*
X297406Y272724D01*
X297445Y272736D01*
X297525Y272751D01*
X297610Y272766D01*
X297691Y272774D01*
X297767Y272778D01*
X297798D01*
X297829Y272782D01*
X299000D01*
Y270259D01*
D02*
G37*
G36*
X296692Y271146D02*
Y270862D01*
X295598D01*
Y270259D01*
X295287D01*
Y270862D01*
X294945D01*
Y271146D01*
X295287D01*
Y272778D01*
X295540D01*
X296692Y271146D01*
D02*
G37*
G36*
X294734D02*
Y270862D01*
X293639D01*
Y270259D01*
X293328D01*
Y270862D01*
X292987D01*
Y271146D01*
X293328D01*
Y272778D01*
X293582D01*
X294734Y271146D01*
D02*
G37*
G36*
X293947Y281828D02*
X294043Y281809D01*
X294131Y281782D01*
X294204Y281751D01*
X294261Y281716D01*
X294285Y281701D01*
X294304Y281690D01*
X294323Y281678D01*
X294334Y281670D01*
X294338Y281667D01*
X294342Y281663D01*
X294411Y281594D01*
X294465Y281517D01*
X294511Y281436D01*
X294542Y281359D01*
X294569Y281290D01*
X294576Y281259D01*
X294584Y281233D01*
X294588Y281213D01*
X294592Y281198D01*
X294596Y281187D01*
Y281183D01*
X294285Y281129D01*
X294269Y281210D01*
X294246Y281279D01*
X294223Y281336D01*
X294196Y281382D01*
X294173Y281421D01*
X294154Y281448D01*
X294139Y281463D01*
X294135Y281467D01*
X294085Y281505D01*
X294035Y281532D01*
X293985Y281555D01*
X293935Y281567D01*
X293897Y281574D01*
X293862Y281582D01*
X293831D01*
X293766Y281578D01*
X293708Y281563D01*
X293659Y281547D01*
X293616Y281524D01*
X293582Y281505D01*
X293555Y281486D01*
X293540Y281471D01*
X293536Y281467D01*
X293497Y281425D01*
X293470Y281375D01*
X293447Y281329D01*
X293436Y281286D01*
X293428Y281244D01*
X293421Y281213D01*
Y281194D01*
Y281190D01*
Y281187D01*
X293428Y281110D01*
X293447Y281045D01*
X293470Y280991D01*
X293501Y280948D01*
X293532Y280914D01*
X293555Y280887D01*
X293574Y280872D01*
X293582Y280868D01*
X293643Y280833D01*
X293705Y280810D01*
X293762Y280791D01*
X293816Y280780D01*
X293866Y280772D01*
X293900Y280768D01*
X293950D01*
X293966Y280772D01*
X293985D01*
X294020Y280499D01*
X293973Y280511D01*
X293931Y280518D01*
X293893Y280522D01*
X293862Y280526D01*
X293835Y280530D01*
X293801D01*
X293724Y280522D01*
X293659Y280507D01*
X293597Y280488D01*
X293547Y280461D01*
X293505Y280434D01*
X293474Y280415D01*
X293459Y280399D01*
X293451Y280392D01*
X293405Y280338D01*
X293371Y280280D01*
X293344Y280219D01*
X293328Y280165D01*
X293317Y280115D01*
X293313Y280077D01*
X293309Y280061D01*
Y280050D01*
Y280046D01*
Y280042D01*
X293317Y279962D01*
X293332Y279889D01*
X293355Y279823D01*
X293382Y279770D01*
X293413Y279724D01*
X293436Y279693D01*
X293451Y279674D01*
X293459Y279666D01*
X293516Y279616D01*
X293578Y279578D01*
X293639Y279555D01*
X293701Y279535D01*
X293751Y279524D01*
X293789Y279520D01*
X293805Y279516D01*
X293828D01*
X293893Y279520D01*
X293954Y279535D01*
X294008Y279555D01*
X294050Y279574D01*
X294089Y279597D01*
X294115Y279612D01*
X294131Y279627D01*
X294139Y279631D01*
X294181Y279681D01*
X294219Y279739D01*
X294250Y279804D01*
X294273Y279866D01*
X294292Y279923D01*
X294304Y279969D01*
X294311Y279985D01*
Y280000D01*
X294315Y280008D01*
Y280012D01*
X294626Y279969D01*
X294619Y279912D01*
X294607Y279858D01*
X294572Y279758D01*
X294534Y279670D01*
X294488Y279593D01*
X294469Y279562D01*
X294446Y279535D01*
X294427Y279512D01*
X294411Y279489D01*
X294396Y279474D01*
X294384Y279462D01*
X294380Y279459D01*
X294377Y279455D01*
X294334Y279420D01*
X294288Y279389D01*
X294246Y279363D01*
X294200Y279343D01*
X294108Y279305D01*
X294020Y279282D01*
X293981Y279274D01*
X293943Y279270D01*
X293912Y279267D01*
X293881Y279263D01*
X293858Y279259D01*
X293828D01*
X293762Y279263D01*
X293697Y279270D01*
X293636Y279278D01*
X293578Y279293D01*
X293524Y279313D01*
X293474Y279332D01*
X293428Y279351D01*
X293386Y279374D01*
X293351Y279393D01*
X293317Y279413D01*
X293286Y279432D01*
X293263Y279451D01*
X293244Y279466D01*
X293232Y279474D01*
X293225Y279482D01*
X293221Y279485D01*
X293179Y279532D01*
X293140Y279578D01*
X293109Y279624D01*
X293083Y279670D01*
X293056Y279716D01*
X293037Y279766D01*
X293010Y279854D01*
X292998Y279892D01*
X292990Y279931D01*
X292987Y279962D01*
X292983Y279992D01*
X292979Y280015D01*
Y280031D01*
Y280042D01*
Y280046D01*
X292983Y280134D01*
X292998Y280215D01*
X293017Y280284D01*
X293040Y280342D01*
X293067Y280388D01*
X293086Y280422D01*
X293102Y280445D01*
X293106Y280453D01*
X293156Y280511D01*
X293213Y280557D01*
X293271Y280595D01*
X293324Y280622D01*
X293374Y280645D01*
X293413Y280657D01*
X293428Y280664D01*
X293440D01*
X293447Y280668D01*
X293451D01*
X293390Y280699D01*
X293336Y280737D01*
X293294Y280772D01*
X293255Y280806D01*
X293229Y280837D01*
X293205Y280860D01*
X293194Y280875D01*
X293190Y280883D01*
X293159Y280933D01*
X293140Y280987D01*
X293125Y281037D01*
X293113Y281083D01*
X293106Y281121D01*
X293102Y281152D01*
Y281171D01*
Y281179D01*
X293106Y281244D01*
X293117Y281302D01*
X293132Y281356D01*
X293148Y281405D01*
X293163Y281444D01*
X293179Y281475D01*
X293190Y281494D01*
X293194Y281501D01*
X293232Y281555D01*
X293275Y281605D01*
X293321Y281647D01*
X293363Y281682D01*
X293401Y281709D01*
X293432Y281728D01*
X293455Y281739D01*
X293459Y281743D01*
X293463D01*
X293528Y281774D01*
X293593Y281797D01*
X293659Y281813D01*
X293716Y281824D01*
X293766Y281832D01*
X293805Y281836D01*
X293893D01*
X293947Y281828D01*
D02*
G37*
G36*
X299000Y279301D02*
X298666D01*
Y280422D01*
X298236D01*
X298197Y280419D01*
X298167D01*
X298140Y280415D01*
X298121Y280411D01*
X298105D01*
X298098Y280407D01*
X298094D01*
X298036Y280388D01*
X297990Y280365D01*
X297971Y280353D01*
X297955Y280346D01*
X297948Y280342D01*
X297944Y280338D01*
X297913Y280319D01*
X297886Y280292D01*
X297829Y280238D01*
X297810Y280211D01*
X297790Y280188D01*
X297779Y280173D01*
X297775Y280169D01*
X297737Y280119D01*
X297698Y280065D01*
X297656Y280008D01*
X297618Y279950D01*
X297583Y279900D01*
X297556Y279862D01*
X297549Y279846D01*
X297541Y279835D01*
X297533Y279827D01*
Y279823D01*
X297199Y279301D01*
X296780D01*
X297218Y279985D01*
X297268Y280058D01*
X297318Y280123D01*
X297364Y280181D01*
X297406Y280230D01*
X297441Y280269D01*
X297468Y280299D01*
X297487Y280315D01*
X297495Y280323D01*
X297522Y280346D01*
X297556Y280369D01*
X297621Y280411D01*
X297648Y280426D01*
X297671Y280438D01*
X297687Y280445D01*
X297694Y280449D01*
X297629Y280461D01*
X297568Y280472D01*
X297510Y280488D01*
X297460Y280507D01*
X297410Y280526D01*
X297368Y280545D01*
X297326Y280564D01*
X297291Y280584D01*
X297260Y280603D01*
X297234Y280618D01*
X297211Y280637D01*
X297191Y280649D01*
X297180Y280664D01*
X297168Y280672D01*
X297161Y280680D01*
X297130Y280714D01*
X297103Y280753D01*
X297057Y280829D01*
X297026Y280902D01*
X297007Y280975D01*
X296992Y281037D01*
X296988Y281064D01*
Y281087D01*
X296984Y281106D01*
Y281121D01*
Y281129D01*
Y281133D01*
X296988Y281210D01*
X296999Y281279D01*
X297019Y281344D01*
X297038Y281402D01*
X297057Y281448D01*
X297076Y281482D01*
X297088Y281505D01*
X297092Y281513D01*
X297134Y281574D01*
X297180Y281624D01*
X297226Y281667D01*
X297272Y281697D01*
X297310Y281724D01*
X297341Y281743D01*
X297364Y281751D01*
X297368Y281755D01*
X297372D01*
X297406Y281766D01*
X297445Y281778D01*
X297525Y281793D01*
X297610Y281809D01*
X297691Y281816D01*
X297767Y281820D01*
X297798D01*
X297829Y281824D01*
X299000D01*
Y279301D01*
D02*
G37*
G36*
X296692Y280188D02*
Y279904D01*
X295598D01*
Y279301D01*
X295287D01*
Y279904D01*
X294945D01*
Y280188D01*
X295287D01*
Y281820D01*
X295540D01*
X296692Y280188D01*
D02*
G37*
G36*
X293862Y290789D02*
X293923Y290786D01*
X294039Y290763D01*
X294089Y290751D01*
X294139Y290736D01*
X294181Y290717D01*
X294219Y290701D01*
X294254Y290682D01*
X294285Y290667D01*
X294311Y290647D01*
X294334Y290636D01*
X294350Y290624D01*
X294361Y290613D01*
X294369Y290609D01*
X294373Y290605D01*
X294411Y290567D01*
X294442Y290528D01*
X294499Y290440D01*
X294542Y290352D01*
X294572Y290263D01*
X294596Y290187D01*
X294599Y290152D01*
X294607Y290121D01*
X294611Y290098D01*
X294615Y290079D01*
Y290068D01*
Y290064D01*
X294296Y290029D01*
X294288Y290114D01*
X294273Y290187D01*
X294254Y290248D01*
X294227Y290302D01*
X294204Y290344D01*
X294181Y290375D01*
X294165Y290390D01*
X294162Y290398D01*
X294108Y290444D01*
X294050Y290478D01*
X293989Y290501D01*
X293931Y290521D01*
X293881Y290528D01*
X293843Y290532D01*
X293828Y290536D01*
X293805D01*
X293728Y290532D01*
X293659Y290517D01*
X293601Y290498D01*
X293551Y290475D01*
X293513Y290448D01*
X293482Y290428D01*
X293467Y290413D01*
X293459Y290409D01*
X293413Y290359D01*
X293382Y290306D01*
X293359Y290256D01*
X293340Y290206D01*
X293332Y290163D01*
X293328Y290129D01*
X293324Y290106D01*
Y290102D01*
Y290098D01*
X293332Y290033D01*
X293348Y289964D01*
X293371Y289902D01*
X293397Y289845D01*
X293424Y289795D01*
X293447Y289756D01*
X293455Y289741D01*
X293463Y289730D01*
X293470Y289726D01*
Y289722D01*
X293501Y289684D01*
X293536Y289641D01*
X293574Y289599D01*
X293620Y289557D01*
X293712Y289469D01*
X293805Y289380D01*
X293889Y289307D01*
X293927Y289273D01*
X293962Y289246D01*
X293989Y289219D01*
X294008Y289204D01*
X294023Y289192D01*
X294027Y289188D01*
X294119Y289107D01*
X294204Y289035D01*
X294273Y288969D01*
X294331Y288915D01*
X294377Y288869D01*
X294407Y288835D01*
X294427Y288812D01*
X294434Y288808D01*
Y288804D01*
X294484Y288743D01*
X294523Y288685D01*
X294561Y288628D01*
X294588Y288578D01*
X294611Y288531D01*
X294626Y288501D01*
X294634Y288478D01*
X294638Y288474D01*
Y288470D01*
X294649Y288432D01*
X294661Y288393D01*
X294665Y288359D01*
X294669Y288328D01*
X294672Y288301D01*
Y288278D01*
Y288263D01*
Y288259D01*
X293002D01*
Y288555D01*
X294242D01*
X294200Y288616D01*
X294158Y288666D01*
X294139Y288689D01*
X294123Y288704D01*
X294115Y288716D01*
X294112Y288720D01*
X294092Y288739D01*
X294073Y288758D01*
X294023Y288804D01*
X293962Y288858D01*
X293904Y288912D01*
X293847Y288962D01*
X293801Y289000D01*
X293781Y289015D01*
X293766Y289027D01*
X293758Y289035D01*
X293755Y289038D01*
X293693Y289092D01*
X293639Y289138D01*
X293586Y289184D01*
X293540Y289227D01*
X293497Y289269D01*
X293459Y289303D01*
X293421Y289338D01*
X293390Y289369D01*
X293363Y289395D01*
X293340Y289419D01*
X293305Y289453D01*
X293286Y289476D01*
X293278Y289484D01*
X293229Y289545D01*
X293182Y289599D01*
X293148Y289653D01*
X293121Y289699D01*
X293098Y289737D01*
X293083Y289764D01*
X293075Y289783D01*
X293071Y289791D01*
X293048Y289845D01*
X293033Y289899D01*
X293021Y289949D01*
X293013Y289995D01*
X293010Y290033D01*
X293006Y290064D01*
Y290083D01*
Y290091D01*
X293010Y290144D01*
X293013Y290198D01*
X293040Y290294D01*
X293075Y290379D01*
X293113Y290452D01*
X293152Y290509D01*
X293171Y290532D01*
X293186Y290555D01*
X293202Y290571D01*
X293213Y290582D01*
X293217Y290586D01*
X293221Y290590D01*
X293263Y290624D01*
X293305Y290659D01*
X293351Y290686D01*
X293401Y290709D01*
X293497Y290743D01*
X293589Y290766D01*
X293632Y290778D01*
X293670Y290782D01*
X293705Y290786D01*
X293735Y290789D01*
X293762Y290793D01*
X293797D01*
X293862Y290789D01*
D02*
G37*
G36*
X299000Y288259D02*
X298666D01*
Y289380D01*
X298236D01*
X298197Y289376D01*
X298167D01*
X298140Y289372D01*
X298121Y289369D01*
X298105D01*
X298098Y289365D01*
X298094D01*
X298036Y289346D01*
X297990Y289323D01*
X297971Y289311D01*
X297955Y289303D01*
X297948Y289300D01*
X297944Y289296D01*
X297913Y289277D01*
X297886Y289250D01*
X297829Y289196D01*
X297810Y289169D01*
X297790Y289146D01*
X297779Y289131D01*
X297775Y289127D01*
X297737Y289077D01*
X297698Y289023D01*
X297656Y288965D01*
X297618Y288908D01*
X297583Y288858D01*
X297556Y288820D01*
X297549Y288804D01*
X297541Y288793D01*
X297533Y288785D01*
Y288781D01*
X297199Y288259D01*
X296780D01*
X297218Y288942D01*
X297268Y289015D01*
X297318Y289081D01*
X297364Y289138D01*
X297406Y289188D01*
X297441Y289227D01*
X297468Y289257D01*
X297487Y289273D01*
X297495Y289280D01*
X297522Y289303D01*
X297556Y289326D01*
X297621Y289369D01*
X297648Y289384D01*
X297671Y289395D01*
X297687Y289403D01*
X297694Y289407D01*
X297629Y289419D01*
X297568Y289430D01*
X297510Y289445D01*
X297460Y289465D01*
X297410Y289484D01*
X297368Y289503D01*
X297326Y289522D01*
X297291Y289541D01*
X297260Y289561D01*
X297234Y289576D01*
X297211Y289595D01*
X297191Y289607D01*
X297180Y289622D01*
X297168Y289630D01*
X297161Y289637D01*
X297130Y289672D01*
X297103Y289710D01*
X297057Y289787D01*
X297026Y289860D01*
X297007Y289933D01*
X296992Y289995D01*
X296988Y290021D01*
Y290044D01*
X296984Y290064D01*
Y290079D01*
Y290087D01*
Y290091D01*
X296988Y290167D01*
X296999Y290236D01*
X297019Y290302D01*
X297038Y290359D01*
X297057Y290405D01*
X297076Y290440D01*
X297088Y290463D01*
X297092Y290471D01*
X297134Y290532D01*
X297180Y290582D01*
X297226Y290624D01*
X297272Y290655D01*
X297310Y290682D01*
X297341Y290701D01*
X297364Y290709D01*
X297368Y290713D01*
X297372D01*
X297406Y290724D01*
X297445Y290736D01*
X297525Y290751D01*
X297610Y290766D01*
X297691Y290774D01*
X297767Y290778D01*
X297798D01*
X297829Y290782D01*
X299000D01*
Y288259D01*
D02*
G37*
G36*
X296692Y289146D02*
Y288862D01*
X295598D01*
Y288259D01*
X295287D01*
Y288862D01*
X294945D01*
Y289146D01*
X295287D01*
Y290778D01*
X295540D01*
X296692Y289146D01*
D02*
G37*
G36*
X293701Y299232D02*
X293743Y299170D01*
X293789Y299113D01*
X293835Y299059D01*
X293877Y299017D01*
X293912Y298982D01*
X293935Y298959D01*
X293939Y298955D01*
X293943Y298952D01*
X294016Y298890D01*
X294092Y298833D01*
X294169Y298783D01*
X294238Y298740D01*
X294300Y298706D01*
X294327Y298694D01*
X294350Y298683D01*
X294365Y298671D01*
X294380Y298663D01*
X294388Y298660D01*
X294392D01*
Y298356D01*
X294338Y298379D01*
X294281Y298406D01*
X294227Y298429D01*
X294177Y298456D01*
X294135Y298479D01*
X294100Y298498D01*
X294077Y298514D01*
X294073Y298518D01*
X294069D01*
X294004Y298556D01*
X293947Y298598D01*
X293897Y298633D01*
X293854Y298667D01*
X293820Y298694D01*
X293793Y298713D01*
X293778Y298729D01*
X293774Y298733D01*
Y296759D01*
X293463D01*
Y299293D01*
X293666D01*
X293701Y299232D01*
D02*
G37*
G36*
X299000Y296759D02*
X298666D01*
Y297880D01*
X298236D01*
X298197Y297876D01*
X298167D01*
X298140Y297872D01*
X298121Y297869D01*
X298105D01*
X298098Y297865D01*
X298094D01*
X298036Y297846D01*
X297990Y297823D01*
X297971Y297811D01*
X297955Y297803D01*
X297948Y297799D01*
X297944Y297796D01*
X297913Y297777D01*
X297886Y297750D01*
X297829Y297696D01*
X297810Y297669D01*
X297790Y297646D01*
X297779Y297631D01*
X297775Y297627D01*
X297737Y297577D01*
X297698Y297523D01*
X297656Y297465D01*
X297618Y297408D01*
X297583Y297358D01*
X297556Y297320D01*
X297549Y297304D01*
X297541Y297293D01*
X297533Y297285D01*
Y297281D01*
X297199Y296759D01*
X296780D01*
X297218Y297442D01*
X297268Y297515D01*
X297318Y297581D01*
X297364Y297638D01*
X297406Y297688D01*
X297441Y297727D01*
X297468Y297757D01*
X297487Y297773D01*
X297495Y297780D01*
X297522Y297803D01*
X297556Y297826D01*
X297621Y297869D01*
X297648Y297884D01*
X297671Y297896D01*
X297687Y297903D01*
X297694Y297907D01*
X297629Y297919D01*
X297568Y297930D01*
X297510Y297945D01*
X297460Y297965D01*
X297410Y297984D01*
X297368Y298003D01*
X297326Y298022D01*
X297291Y298041D01*
X297260Y298061D01*
X297234Y298076D01*
X297211Y298095D01*
X297191Y298107D01*
X297180Y298122D01*
X297168Y298130D01*
X297161Y298137D01*
X297130Y298172D01*
X297103Y298210D01*
X297057Y298287D01*
X297026Y298360D01*
X297007Y298433D01*
X296992Y298495D01*
X296988Y298521D01*
Y298545D01*
X296984Y298564D01*
Y298579D01*
Y298587D01*
Y298591D01*
X296988Y298667D01*
X296999Y298737D01*
X297019Y298802D01*
X297038Y298859D01*
X297057Y298905D01*
X297076Y298940D01*
X297088Y298963D01*
X297092Y298971D01*
X297134Y299032D01*
X297180Y299082D01*
X297226Y299124D01*
X297272Y299155D01*
X297310Y299182D01*
X297341Y299201D01*
X297364Y299209D01*
X297368Y299213D01*
X297372D01*
X297406Y299224D01*
X297445Y299236D01*
X297525Y299251D01*
X297610Y299266D01*
X297691Y299274D01*
X297767Y299278D01*
X297798D01*
X297829Y299282D01*
X299000D01*
Y296759D01*
D02*
G37*
G36*
X296692Y297646D02*
Y297362D01*
X295598D01*
Y296759D01*
X295287D01*
Y297362D01*
X294945D01*
Y297646D01*
X295287D01*
Y299278D01*
X295540D01*
X296692Y297646D01*
D02*
G37*
G36*
X299000Y306301D02*
X298666D01*
Y307422D01*
X298236D01*
X298197Y307419D01*
X298167D01*
X298140Y307415D01*
X298121Y307411D01*
X298105D01*
X298098Y307407D01*
X298094D01*
X298036Y307388D01*
X297990Y307365D01*
X297971Y307353D01*
X297955Y307346D01*
X297948Y307342D01*
X297944Y307338D01*
X297913Y307319D01*
X297886Y307292D01*
X297829Y307238D01*
X297810Y307211D01*
X297790Y307188D01*
X297779Y307173D01*
X297775Y307169D01*
X297737Y307119D01*
X297698Y307065D01*
X297656Y307008D01*
X297618Y306950D01*
X297583Y306900D01*
X297556Y306862D01*
X297549Y306846D01*
X297541Y306835D01*
X297533Y306827D01*
Y306823D01*
X297199Y306301D01*
X296780D01*
X297218Y306985D01*
X297268Y307058D01*
X297318Y307123D01*
X297364Y307181D01*
X297406Y307230D01*
X297441Y307269D01*
X297468Y307299D01*
X297487Y307315D01*
X297495Y307323D01*
X297522Y307346D01*
X297556Y307369D01*
X297621Y307411D01*
X297648Y307426D01*
X297671Y307438D01*
X297687Y307445D01*
X297694Y307449D01*
X297629Y307461D01*
X297568Y307472D01*
X297510Y307488D01*
X297460Y307507D01*
X297410Y307526D01*
X297368Y307545D01*
X297326Y307564D01*
X297291Y307584D01*
X297260Y307603D01*
X297234Y307618D01*
X297211Y307637D01*
X297191Y307649D01*
X297180Y307664D01*
X297168Y307672D01*
X297161Y307680D01*
X297130Y307714D01*
X297103Y307753D01*
X297057Y307829D01*
X297026Y307902D01*
X297007Y307975D01*
X296992Y308037D01*
X296988Y308064D01*
Y308087D01*
X296984Y308106D01*
Y308121D01*
Y308129D01*
Y308133D01*
X296988Y308210D01*
X296999Y308279D01*
X297019Y308344D01*
X297038Y308402D01*
X297057Y308448D01*
X297076Y308482D01*
X297088Y308505D01*
X297092Y308513D01*
X297134Y308574D01*
X297180Y308624D01*
X297226Y308667D01*
X297272Y308697D01*
X297310Y308724D01*
X297341Y308743D01*
X297364Y308751D01*
X297368Y308755D01*
X297372D01*
X297406Y308766D01*
X297445Y308778D01*
X297525Y308793D01*
X297610Y308809D01*
X297691Y308816D01*
X297767Y308820D01*
X297798D01*
X297829Y308824D01*
X299000D01*
Y306301D01*
D02*
G37*
G36*
X296692Y307188D02*
Y306904D01*
X295598D01*
Y306301D01*
X295287D01*
Y306904D01*
X294945D01*
Y307188D01*
X295287D01*
Y308820D01*
X295540D01*
X296692Y307188D01*
D02*
G37*
G36*
X293908Y308828D02*
X293997Y308812D01*
X294077Y308789D01*
X294142Y308763D01*
X294196Y308732D01*
X294235Y308709D01*
X294250Y308701D01*
X294261Y308693D01*
X294265Y308686D01*
X294269D01*
X294334Y308624D01*
X294388Y308559D01*
X294434Y308490D01*
X294473Y308421D01*
X294503Y308359D01*
X294515Y308332D01*
X294523Y308309D01*
X294530Y308290D01*
X294538Y308275D01*
X294542Y308267D01*
Y308263D01*
X294557Y308210D01*
X294572Y308156D01*
X294592Y308037D01*
X294607Y307918D01*
X294619Y307803D01*
X294622Y307749D01*
X294626Y307699D01*
Y307657D01*
X294630Y307618D01*
Y307588D01*
Y307564D01*
Y307549D01*
Y307545D01*
X294626Y307419D01*
X294619Y307296D01*
X294607Y307188D01*
X294592Y307084D01*
X294572Y306992D01*
X294553Y306908D01*
X294530Y306831D01*
X294507Y306766D01*
X294484Y306704D01*
X294461Y306654D01*
X294442Y306612D01*
X294423Y306578D01*
X294407Y306551D01*
X294396Y306532D01*
X294388Y306520D01*
X294384Y306516D01*
X294342Y306470D01*
X294300Y306432D01*
X294254Y306397D01*
X294204Y306366D01*
X294158Y306343D01*
X294108Y306320D01*
X294016Y306290D01*
X293973Y306282D01*
X293935Y306274D01*
X293900Y306267D01*
X293870Y306263D01*
X293843Y306259D01*
X293808D01*
X293708Y306267D01*
X293620Y306282D01*
X293543Y306305D01*
X293474Y306332D01*
X293424Y306359D01*
X293382Y306382D01*
X293371Y306393D01*
X293359Y306397D01*
X293355Y306405D01*
X293351D01*
X293286Y306466D01*
X293232Y306535D01*
X293186Y306605D01*
X293148Y306674D01*
X293117Y306735D01*
X293106Y306758D01*
X293094Y306781D01*
X293086Y306800D01*
X293083Y306816D01*
X293079Y306823D01*
Y306827D01*
X293063Y306881D01*
X293048Y306935D01*
X293025Y307054D01*
X293010Y307173D01*
X292998Y307288D01*
X292994Y307342D01*
X292990Y307392D01*
Y307434D01*
X292987Y307472D01*
Y307503D01*
Y307526D01*
Y307541D01*
Y307545D01*
X292990Y307680D01*
Y307737D01*
X292994Y307795D01*
X292998Y307849D01*
X293006Y307899D01*
X293010Y307941D01*
X293013Y307983D01*
X293021Y308018D01*
X293025Y308052D01*
X293029Y308079D01*
X293037Y308098D01*
X293040Y308117D01*
Y308129D01*
X293044Y308137D01*
Y308140D01*
X293067Y308221D01*
X293094Y308294D01*
X293121Y308359D01*
X293144Y308413D01*
X293167Y308455D01*
X293186Y308490D01*
X293198Y308509D01*
X293202Y308517D01*
X293240Y308571D01*
X293282Y308617D01*
X293324Y308659D01*
X293363Y308693D01*
X293401Y308717D01*
X293428Y308736D01*
X293447Y308747D01*
X293455Y308751D01*
X293513Y308778D01*
X293574Y308801D01*
X293636Y308816D01*
X293689Y308824D01*
X293735Y308832D01*
X293774Y308836D01*
X293808D01*
X293908Y308828D01*
D02*
G37*
G36*
X295905Y317828D02*
X296001Y317809D01*
X296089Y317782D01*
X296162Y317751D01*
X296220Y317717D01*
X296243Y317701D01*
X296262Y317690D01*
X296281Y317678D01*
X296293Y317670D01*
X296297Y317667D01*
X296301Y317663D01*
X296370Y317594D01*
X296423Y317517D01*
X296469Y317436D01*
X296500Y317359D01*
X296527Y317290D01*
X296535Y317260D01*
X296542Y317233D01*
X296546Y317213D01*
X296550Y317198D01*
X296554Y317187D01*
Y317183D01*
X296243Y317129D01*
X296228Y317210D01*
X296204Y317279D01*
X296181Y317336D01*
X296155Y317382D01*
X296131Y317421D01*
X296112Y317448D01*
X296097Y317463D01*
X296093Y317467D01*
X296043Y317505D01*
X295993Y317532D01*
X295943Y317555D01*
X295893Y317567D01*
X295855Y317574D01*
X295820Y317582D01*
X295790D01*
X295725Y317578D01*
X295667Y317563D01*
X295617Y317547D01*
X295575Y317525D01*
X295540Y317505D01*
X295513Y317486D01*
X295498Y317471D01*
X295494Y317467D01*
X295456Y317425D01*
X295429Y317375D01*
X295406Y317329D01*
X295394Y317286D01*
X295387Y317244D01*
X295379Y317213D01*
Y317194D01*
Y317190D01*
Y317187D01*
X295387Y317110D01*
X295406Y317044D01*
X295429Y316991D01*
X295460Y316949D01*
X295490Y316914D01*
X295513Y316887D01*
X295532Y316872D01*
X295540Y316868D01*
X295602Y316833D01*
X295663Y316810D01*
X295721Y316791D01*
X295774Y316779D01*
X295824Y316772D01*
X295859Y316768D01*
X295909D01*
X295924Y316772D01*
X295943D01*
X295978Y316499D01*
X295932Y316511D01*
X295890Y316518D01*
X295851Y316522D01*
X295820Y316526D01*
X295794Y316530D01*
X295759D01*
X295682Y316522D01*
X295617Y316507D01*
X295555Y316488D01*
X295506Y316461D01*
X295463Y316434D01*
X295433Y316415D01*
X295417Y316399D01*
X295410Y316392D01*
X295363Y316338D01*
X295329Y316280D01*
X295302Y316219D01*
X295287Y316165D01*
X295275Y316115D01*
X295271Y316077D01*
X295268Y316061D01*
Y316050D01*
Y316046D01*
Y316042D01*
X295275Y315962D01*
X295291Y315889D01*
X295314Y315823D01*
X295340Y315770D01*
X295371Y315723D01*
X295394Y315693D01*
X295410Y315674D01*
X295417Y315666D01*
X295475Y315616D01*
X295536Y315578D01*
X295598Y315555D01*
X295659Y315535D01*
X295709Y315524D01*
X295747Y315520D01*
X295763Y315516D01*
X295786D01*
X295851Y315520D01*
X295913Y315535D01*
X295966Y315555D01*
X296009Y315574D01*
X296047Y315597D01*
X296074Y315612D01*
X296089Y315628D01*
X296097Y315631D01*
X296139Y315681D01*
X296178Y315739D01*
X296208Y315804D01*
X296231Y315866D01*
X296251Y315923D01*
X296262Y315969D01*
X296270Y315985D01*
Y316000D01*
X296274Y316008D01*
Y316012D01*
X296585Y315969D01*
X296577Y315912D01*
X296565Y315858D01*
X296531Y315758D01*
X296493Y315670D01*
X296446Y315593D01*
X296427Y315562D01*
X296404Y315535D01*
X296385Y315512D01*
X296370Y315489D01*
X296354Y315474D01*
X296343Y315462D01*
X296339Y315459D01*
X296335Y315455D01*
X296293Y315420D01*
X296247Y315389D01*
X296204Y315363D01*
X296158Y315343D01*
X296066Y315305D01*
X295978Y315282D01*
X295939Y315274D01*
X295901Y315270D01*
X295870Y315267D01*
X295840Y315263D01*
X295817Y315259D01*
X295786D01*
X295721Y315263D01*
X295655Y315270D01*
X295594Y315278D01*
X295536Y315293D01*
X295483Y315313D01*
X295433Y315332D01*
X295387Y315351D01*
X295344Y315374D01*
X295310Y315393D01*
X295275Y315412D01*
X295245Y315432D01*
X295221Y315451D01*
X295202Y315466D01*
X295191Y315474D01*
X295183Y315482D01*
X295179Y315485D01*
X295137Y315531D01*
X295099Y315578D01*
X295068Y315624D01*
X295041Y315670D01*
X295014Y315716D01*
X294995Y315766D01*
X294968Y315854D01*
X294956Y315893D01*
X294949Y315931D01*
X294945Y315962D01*
X294941Y315992D01*
X294937Y316015D01*
Y316031D01*
Y316042D01*
Y316046D01*
X294941Y316134D01*
X294956Y316215D01*
X294976Y316284D01*
X294999Y316342D01*
X295026Y316388D01*
X295045Y316422D01*
X295060Y316445D01*
X295064Y316453D01*
X295114Y316511D01*
X295171Y316557D01*
X295229Y316595D01*
X295283Y316622D01*
X295333Y316645D01*
X295371Y316657D01*
X295387Y316664D01*
X295398D01*
X295406Y316668D01*
X295410D01*
X295348Y316699D01*
X295294Y316737D01*
X295252Y316772D01*
X295214Y316806D01*
X295187Y316837D01*
X295164Y316860D01*
X295152Y316876D01*
X295148Y316883D01*
X295118Y316933D01*
X295099Y316987D01*
X295083Y317037D01*
X295072Y317083D01*
X295064Y317121D01*
X295060Y317152D01*
Y317171D01*
Y317179D01*
X295064Y317244D01*
X295075Y317302D01*
X295091Y317355D01*
X295106Y317405D01*
X295122Y317444D01*
X295137Y317475D01*
X295148Y317494D01*
X295152Y317501D01*
X295191Y317555D01*
X295233Y317605D01*
X295279Y317647D01*
X295321Y317682D01*
X295360Y317709D01*
X295390Y317728D01*
X295413Y317740D01*
X295417Y317743D01*
X295421D01*
X295486Y317774D01*
X295552Y317797D01*
X295617Y317812D01*
X295675Y317824D01*
X295725Y317832D01*
X295763Y317835D01*
X295851D01*
X295905Y317828D01*
D02*
G37*
G36*
X293900Y317832D02*
X293962Y317824D01*
X294020Y317812D01*
X294073Y317801D01*
X294169Y317763D01*
X294212Y317740D01*
X294250Y317720D01*
X294288Y317697D01*
X294319Y317674D01*
X294346Y317655D01*
X294365Y317640D01*
X294384Y317624D01*
X294396Y317613D01*
X294404Y317605D01*
X294407Y317601D01*
X294446Y317555D01*
X294480Y317509D01*
X294511Y317459D01*
X294534Y317405D01*
X294557Y317355D01*
X294576Y317302D01*
X294603Y317206D01*
X294611Y317160D01*
X294619Y317117D01*
X294622Y317079D01*
X294626Y317048D01*
X294630Y317021D01*
Y316998D01*
Y316987D01*
Y316983D01*
X294626Y316914D01*
X294622Y316849D01*
X294611Y316791D01*
X294596Y316733D01*
X294580Y316680D01*
X294561Y316630D01*
X294542Y316584D01*
X294523Y316545D01*
X294503Y316507D01*
X294484Y316476D01*
X294465Y316449D01*
X294450Y316426D01*
X294434Y316407D01*
X294423Y316395D01*
X294419Y316388D01*
X294415Y316384D01*
X294373Y316346D01*
X294331Y316311D01*
X294285Y316280D01*
X294242Y316253D01*
X294196Y316230D01*
X294154Y316211D01*
X294069Y316184D01*
X293997Y316169D01*
X293966Y316165D01*
X293939Y316161D01*
X293916Y316157D01*
X293885D01*
X293816Y316161D01*
X293751Y316173D01*
X293693Y316184D01*
X293643Y316203D01*
X293601Y316219D01*
X293566Y316230D01*
X293547Y316242D01*
X293540Y316246D01*
X293482Y316284D01*
X293432Y316323D01*
X293386Y316365D01*
X293351Y316403D01*
X293321Y316434D01*
X293301Y316465D01*
X293286Y316480D01*
X293282Y316488D01*
Y316461D01*
Y316442D01*
Y316430D01*
Y316426D01*
Y316353D01*
X293290Y316284D01*
X293298Y316223D01*
X293305Y316165D01*
X293313Y316115D01*
X293321Y316077D01*
X293324Y316065D01*
Y316054D01*
X293328Y316050D01*
Y316046D01*
X293348Y315981D01*
X293367Y315923D01*
X293386Y315873D01*
X293401Y315831D01*
X293421Y315796D01*
X293432Y315770D01*
X293440Y315754D01*
X293443Y315750D01*
X293470Y315712D01*
X293501Y315677D01*
X293528Y315647D01*
X293559Y315624D01*
X293582Y315604D01*
X293601Y315589D01*
X293616Y315581D01*
X293620Y315578D01*
X293662Y315555D01*
X293705Y315539D01*
X293747Y315528D01*
X293785Y315520D01*
X293820Y315516D01*
X293847Y315512D01*
X293870D01*
X293931Y315516D01*
X293985Y315528D01*
X294031Y315543D01*
X294069Y315558D01*
X294104Y315574D01*
X294127Y315589D01*
X294142Y315601D01*
X294146Y315604D01*
X294185Y315643D01*
X294215Y315693D01*
X294238Y315743D01*
X294258Y315793D01*
X294273Y315835D01*
X294281Y315873D01*
X294285Y315889D01*
X294288Y315900D01*
Y315904D01*
Y315908D01*
X294584Y315885D01*
X294565Y315777D01*
X294534Y315685D01*
X294499Y315604D01*
X294461Y315539D01*
X294423Y315489D01*
X294392Y315451D01*
X294369Y315428D01*
X294365Y315424D01*
X294361Y315420D01*
X294285Y315366D01*
X294208Y315328D01*
X294127Y315297D01*
X294050Y315278D01*
X293981Y315267D01*
X293950Y315263D01*
X293927D01*
X293904Y315259D01*
X293877D01*
X293778Y315267D01*
X293682Y315282D01*
X293601Y315305D01*
X293528Y315332D01*
X293470Y315359D01*
X293447Y315370D01*
X293428Y315382D01*
X293409Y315393D01*
X293397Y315397D01*
X293394Y315405D01*
X293390D01*
X293317Y315466D01*
X293255Y315535D01*
X293202Y315608D01*
X293156Y315681D01*
X293121Y315743D01*
X293109Y315770D01*
X293098Y315796D01*
X293090Y315816D01*
X293083Y315831D01*
X293079Y315839D01*
Y315843D01*
X293059Y315900D01*
X293044Y315958D01*
X293017Y316085D01*
X292998Y316215D01*
X292983Y316338D01*
X292979Y316395D01*
X292975Y316445D01*
Y316495D01*
X292971Y316534D01*
Y316568D01*
Y316591D01*
Y316611D01*
Y316614D01*
Y316699D01*
X292975Y316779D01*
X292983Y316852D01*
X292987Y316922D01*
X292994Y316983D01*
X293006Y317041D01*
X293013Y317094D01*
X293025Y317141D01*
X293037Y317183D01*
X293044Y317221D01*
X293052Y317252D01*
X293063Y317275D01*
X293067Y317294D01*
X293075Y317309D01*
X293079Y317317D01*
Y317321D01*
X293121Y317409D01*
X293171Y317486D01*
X293225Y317547D01*
X293275Y317605D01*
X293321Y317647D01*
X293355Y317678D01*
X293371Y317686D01*
X293382Y317693D01*
X293386Y317701D01*
X293390D01*
X293467Y317747D01*
X293547Y317778D01*
X293620Y317801D01*
X293689Y317820D01*
X293751Y317828D01*
X293778Y317832D01*
X293797D01*
X293816Y317835D01*
X293839D01*
X293900Y317832D01*
D02*
G37*
G36*
X299000Y315301D02*
X298666D01*
Y316422D01*
X298236D01*
X298197Y316419D01*
X298167D01*
X298140Y316415D01*
X298121Y316411D01*
X298105D01*
X298098Y316407D01*
X298094D01*
X298036Y316388D01*
X297990Y316365D01*
X297971Y316353D01*
X297955Y316346D01*
X297948Y316342D01*
X297944Y316338D01*
X297913Y316319D01*
X297886Y316292D01*
X297829Y316238D01*
X297810Y316211D01*
X297790Y316188D01*
X297779Y316173D01*
X297775Y316169D01*
X297737Y316119D01*
X297698Y316065D01*
X297656Y316008D01*
X297618Y315950D01*
X297583Y315900D01*
X297556Y315862D01*
X297549Y315846D01*
X297541Y315835D01*
X297533Y315827D01*
Y315823D01*
X297199Y315301D01*
X296780D01*
X297218Y315985D01*
X297268Y316058D01*
X297318Y316123D01*
X297364Y316180D01*
X297406Y316230D01*
X297441Y316269D01*
X297468Y316300D01*
X297487Y316315D01*
X297495Y316323D01*
X297522Y316346D01*
X297556Y316369D01*
X297621Y316411D01*
X297648Y316426D01*
X297671Y316438D01*
X297687Y316445D01*
X297694Y316449D01*
X297629Y316461D01*
X297568Y316472D01*
X297510Y316488D01*
X297460Y316507D01*
X297410Y316526D01*
X297368Y316545D01*
X297326Y316564D01*
X297291Y316584D01*
X297260Y316603D01*
X297234Y316618D01*
X297211Y316637D01*
X297191Y316649D01*
X297180Y316664D01*
X297168Y316672D01*
X297161Y316680D01*
X297130Y316714D01*
X297103Y316753D01*
X297057Y316829D01*
X297026Y316902D01*
X297007Y316975D01*
X296992Y317037D01*
X296988Y317064D01*
Y317087D01*
X296984Y317106D01*
Y317121D01*
Y317129D01*
Y317133D01*
X296988Y317210D01*
X296999Y317279D01*
X297019Y317344D01*
X297038Y317402D01*
X297057Y317448D01*
X297076Y317482D01*
X297088Y317505D01*
X297092Y317513D01*
X297134Y317574D01*
X297180Y317624D01*
X297226Y317667D01*
X297272Y317697D01*
X297310Y317724D01*
X297341Y317743D01*
X297364Y317751D01*
X297368Y317755D01*
X297372D01*
X297406Y317766D01*
X297445Y317778D01*
X297525Y317793D01*
X297610Y317809D01*
X297691Y317816D01*
X297767Y317820D01*
X297798D01*
X297829Y317824D01*
X299000D01*
Y315301D01*
D02*
G37*
G36*
X295905Y326828D02*
X296001Y326809D01*
X296089Y326782D01*
X296162Y326751D01*
X296220Y326716D01*
X296243Y326701D01*
X296262Y326690D01*
X296281Y326678D01*
X296293Y326670D01*
X296297Y326667D01*
X296301Y326663D01*
X296370Y326594D01*
X296423Y326517D01*
X296469Y326436D01*
X296500Y326359D01*
X296527Y326290D01*
X296535Y326259D01*
X296542Y326233D01*
X296546Y326213D01*
X296550Y326198D01*
X296554Y326187D01*
Y326183D01*
X296243Y326129D01*
X296228Y326210D01*
X296204Y326279D01*
X296181Y326336D01*
X296155Y326382D01*
X296131Y326421D01*
X296112Y326448D01*
X296097Y326463D01*
X296093Y326467D01*
X296043Y326505D01*
X295993Y326532D01*
X295943Y326555D01*
X295893Y326567D01*
X295855Y326574D01*
X295820Y326582D01*
X295790D01*
X295725Y326578D01*
X295667Y326563D01*
X295617Y326548D01*
X295575Y326524D01*
X295540Y326505D01*
X295513Y326486D01*
X295498Y326471D01*
X295494Y326467D01*
X295456Y326425D01*
X295429Y326375D01*
X295406Y326329D01*
X295394Y326286D01*
X295387Y326244D01*
X295379Y326213D01*
Y326194D01*
Y326190D01*
Y326187D01*
X295387Y326110D01*
X295406Y326045D01*
X295429Y325991D01*
X295460Y325949D01*
X295490Y325914D01*
X295513Y325887D01*
X295532Y325872D01*
X295540Y325868D01*
X295602Y325833D01*
X295663Y325810D01*
X295721Y325791D01*
X295774Y325780D01*
X295824Y325772D01*
X295859Y325768D01*
X295909D01*
X295924Y325772D01*
X295943D01*
X295978Y325499D01*
X295932Y325511D01*
X295890Y325518D01*
X295851Y325522D01*
X295820Y325526D01*
X295794Y325530D01*
X295759D01*
X295682Y325522D01*
X295617Y325507D01*
X295555Y325488D01*
X295506Y325461D01*
X295463Y325434D01*
X295433Y325415D01*
X295417Y325399D01*
X295410Y325392D01*
X295363Y325338D01*
X295329Y325280D01*
X295302Y325219D01*
X295287Y325165D01*
X295275Y325115D01*
X295271Y325077D01*
X295268Y325061D01*
Y325050D01*
Y325046D01*
Y325042D01*
X295275Y324962D01*
X295291Y324889D01*
X295314Y324823D01*
X295340Y324770D01*
X295371Y324724D01*
X295394Y324693D01*
X295410Y324674D01*
X295417Y324666D01*
X295475Y324616D01*
X295536Y324578D01*
X295598Y324555D01*
X295659Y324535D01*
X295709Y324524D01*
X295747Y324520D01*
X295763Y324516D01*
X295786D01*
X295851Y324520D01*
X295913Y324535D01*
X295966Y324555D01*
X296009Y324574D01*
X296047Y324597D01*
X296074Y324612D01*
X296089Y324627D01*
X296097Y324631D01*
X296139Y324681D01*
X296178Y324739D01*
X296208Y324804D01*
X296231Y324866D01*
X296251Y324923D01*
X296262Y324969D01*
X296270Y324985D01*
Y325000D01*
X296274Y325008D01*
Y325011D01*
X296585Y324969D01*
X296577Y324912D01*
X296565Y324858D01*
X296531Y324758D01*
X296493Y324670D01*
X296446Y324593D01*
X296427Y324562D01*
X296404Y324535D01*
X296385Y324512D01*
X296370Y324489D01*
X296354Y324474D01*
X296343Y324462D01*
X296339Y324459D01*
X296335Y324455D01*
X296293Y324420D01*
X296247Y324389D01*
X296204Y324363D01*
X296158Y324343D01*
X296066Y324305D01*
X295978Y324282D01*
X295939Y324274D01*
X295901Y324270D01*
X295870Y324267D01*
X295840Y324263D01*
X295817Y324259D01*
X295786D01*
X295721Y324263D01*
X295655Y324270D01*
X295594Y324278D01*
X295536Y324293D01*
X295483Y324313D01*
X295433Y324332D01*
X295387Y324351D01*
X295344Y324374D01*
X295310Y324393D01*
X295275Y324412D01*
X295245Y324432D01*
X295221Y324451D01*
X295202Y324466D01*
X295191Y324474D01*
X295183Y324482D01*
X295179Y324485D01*
X295137Y324532D01*
X295099Y324578D01*
X295068Y324624D01*
X295041Y324670D01*
X295014Y324716D01*
X294995Y324766D01*
X294968Y324854D01*
X294956Y324892D01*
X294949Y324931D01*
X294945Y324962D01*
X294941Y324992D01*
X294937Y325015D01*
Y325031D01*
Y325042D01*
Y325046D01*
X294941Y325134D01*
X294956Y325215D01*
X294976Y325284D01*
X294999Y325342D01*
X295026Y325388D01*
X295045Y325422D01*
X295060Y325445D01*
X295064Y325453D01*
X295114Y325511D01*
X295171Y325557D01*
X295229Y325595D01*
X295283Y325622D01*
X295333Y325645D01*
X295371Y325657D01*
X295387Y325664D01*
X295398D01*
X295406Y325668D01*
X295410D01*
X295348Y325699D01*
X295294Y325737D01*
X295252Y325772D01*
X295214Y325806D01*
X295187Y325837D01*
X295164Y325860D01*
X295152Y325875D01*
X295148Y325883D01*
X295118Y325933D01*
X295099Y325987D01*
X295083Y326037D01*
X295072Y326083D01*
X295064Y326121D01*
X295060Y326152D01*
Y326171D01*
Y326179D01*
X295064Y326244D01*
X295075Y326302D01*
X295091Y326356D01*
X295106Y326405D01*
X295122Y326444D01*
X295137Y326475D01*
X295148Y326494D01*
X295152Y326501D01*
X295191Y326555D01*
X295233Y326605D01*
X295279Y326647D01*
X295321Y326682D01*
X295360Y326709D01*
X295390Y326728D01*
X295413Y326740D01*
X295417Y326743D01*
X295421D01*
X295486Y326774D01*
X295552Y326797D01*
X295617Y326813D01*
X295675Y326824D01*
X295725Y326832D01*
X295763Y326835D01*
X295851D01*
X295905Y326828D01*
D02*
G37*
G36*
X299000Y324301D02*
X298666D01*
Y325422D01*
X298236D01*
X298197Y325419D01*
X298167D01*
X298140Y325415D01*
X298121Y325411D01*
X298105D01*
X298098Y325407D01*
X298094D01*
X298036Y325388D01*
X297990Y325365D01*
X297971Y325353D01*
X297955Y325346D01*
X297948Y325342D01*
X297944Y325338D01*
X297913Y325319D01*
X297886Y325292D01*
X297829Y325238D01*
X297810Y325211D01*
X297790Y325188D01*
X297779Y325173D01*
X297775Y325169D01*
X297737Y325119D01*
X297698Y325065D01*
X297656Y325008D01*
X297618Y324950D01*
X297583Y324900D01*
X297556Y324862D01*
X297549Y324846D01*
X297541Y324835D01*
X297533Y324827D01*
Y324823D01*
X297199Y324301D01*
X296780D01*
X297218Y324985D01*
X297268Y325058D01*
X297318Y325123D01*
X297364Y325181D01*
X297406Y325230D01*
X297441Y325269D01*
X297468Y325300D01*
X297487Y325315D01*
X297495Y325323D01*
X297522Y325346D01*
X297556Y325369D01*
X297621Y325411D01*
X297648Y325426D01*
X297671Y325438D01*
X297687Y325445D01*
X297694Y325449D01*
X297629Y325461D01*
X297568Y325472D01*
X297510Y325488D01*
X297460Y325507D01*
X297410Y325526D01*
X297368Y325545D01*
X297326Y325565D01*
X297291Y325584D01*
X297260Y325603D01*
X297234Y325618D01*
X297211Y325637D01*
X297191Y325649D01*
X297180Y325664D01*
X297168Y325672D01*
X297161Y325680D01*
X297130Y325714D01*
X297103Y325753D01*
X297057Y325829D01*
X297026Y325902D01*
X297007Y325975D01*
X296992Y326037D01*
X296988Y326064D01*
Y326087D01*
X296984Y326106D01*
Y326121D01*
Y326129D01*
Y326133D01*
X296988Y326210D01*
X296999Y326279D01*
X297019Y326344D01*
X297038Y326402D01*
X297057Y326448D01*
X297076Y326482D01*
X297088Y326505D01*
X297092Y326513D01*
X297134Y326574D01*
X297180Y326624D01*
X297226Y326667D01*
X297272Y326697D01*
X297310Y326724D01*
X297341Y326743D01*
X297364Y326751D01*
X297368Y326755D01*
X297372D01*
X297406Y326766D01*
X297445Y326778D01*
X297525Y326793D01*
X297610Y326809D01*
X297691Y326816D01*
X297767Y326820D01*
X297798D01*
X297829Y326824D01*
X299000D01*
Y324301D01*
D02*
G37*
G36*
X293874Y326832D02*
X293927Y326828D01*
X294031Y326805D01*
X294123Y326778D01*
X294196Y326743D01*
X294231Y326724D01*
X294258Y326709D01*
X294281Y326690D01*
X294304Y326678D01*
X294319Y326667D01*
X294331Y326655D01*
X294334Y326651D01*
X294338Y326647D01*
X294373Y326613D01*
X294404Y326574D01*
X294430Y326536D01*
X294450Y326494D01*
X294488Y326417D01*
X294511Y326344D01*
X294523Y326279D01*
X294526Y326252D01*
X294530Y326229D01*
X294534Y326210D01*
Y326194D01*
Y326187D01*
Y326183D01*
X294530Y326117D01*
X294519Y326060D01*
X294503Y326006D01*
X294488Y325960D01*
X294473Y325922D01*
X294457Y325895D01*
X294446Y325879D01*
X294442Y325872D01*
X294404Y325826D01*
X294357Y325787D01*
X294311Y325753D01*
X294261Y325722D01*
X294219Y325703D01*
X294185Y325683D01*
X294162Y325676D01*
X294158Y325672D01*
X294154D01*
X294235Y325645D01*
X294307Y325611D01*
X294369Y325572D01*
X294419Y325534D01*
X294457Y325499D01*
X294488Y325468D01*
X294503Y325449D01*
X294511Y325445D01*
Y325442D01*
X294553Y325376D01*
X294580Y325307D01*
X294603Y325238D01*
X294619Y325173D01*
X294626Y325119D01*
X294630Y325092D01*
Y325073D01*
X294634Y325054D01*
Y325042D01*
Y325035D01*
Y325031D01*
X294630Y324969D01*
X294622Y324912D01*
X294615Y324858D01*
X294599Y324804D01*
X294561Y324712D01*
X294542Y324670D01*
X294519Y324631D01*
X294499Y324597D01*
X294480Y324566D01*
X294461Y324539D01*
X294442Y324516D01*
X294427Y324501D01*
X294419Y324489D01*
X294411Y324482D01*
X294407Y324478D01*
X294361Y324439D01*
X294315Y324405D01*
X294265Y324378D01*
X294215Y324351D01*
X294165Y324332D01*
X294115Y324313D01*
X294020Y324286D01*
X293973Y324278D01*
X293935Y324270D01*
X293897Y324267D01*
X293866Y324263D01*
X293839Y324259D01*
X293805D01*
X293735Y324263D01*
X293670Y324267D01*
X293609Y324278D01*
X293555Y324293D01*
X293501Y324309D01*
X293451Y324328D01*
X293405Y324347D01*
X293363Y324370D01*
X293324Y324389D01*
X293294Y324409D01*
X293267Y324428D01*
X293244Y324443D01*
X293225Y324459D01*
X293213Y324470D01*
X293205Y324474D01*
X293202Y324478D01*
X293159Y324520D01*
X293125Y324562D01*
X293094Y324608D01*
X293067Y324654D01*
X293044Y324700D01*
X293029Y324747D01*
X292998Y324831D01*
X292983Y324908D01*
X292979Y324942D01*
X292975Y324969D01*
X292971Y324992D01*
Y325008D01*
Y325019D01*
Y325023D01*
X292975Y325108D01*
X292990Y325184D01*
X293010Y325253D01*
X293033Y325311D01*
X293056Y325361D01*
X293075Y325395D01*
X293090Y325419D01*
X293094Y325426D01*
X293144Y325484D01*
X293202Y325538D01*
X293259Y325580D01*
X293317Y325614D01*
X293367Y325637D01*
X293409Y325657D01*
X293424Y325664D01*
X293436Y325668D01*
X293443Y325672D01*
X293447D01*
X293382Y325699D01*
X293324Y325733D01*
X293275Y325764D01*
X293236Y325795D01*
X293205Y325826D01*
X293182Y325849D01*
X293171Y325864D01*
X293167Y325868D01*
X293136Y325918D01*
X293113Y325972D01*
X293098Y326021D01*
X293086Y326071D01*
X293079Y326114D01*
X293075Y326144D01*
Y326167D01*
Y326175D01*
X293079Y326225D01*
X293083Y326275D01*
X293106Y326363D01*
X293140Y326444D01*
X293175Y326513D01*
X293213Y326567D01*
X293232Y326590D01*
X293248Y326609D01*
X293259Y326624D01*
X293271Y326636D01*
X293275Y326640D01*
X293278Y326643D01*
X293317Y326678D01*
X293359Y326709D01*
X293401Y326732D01*
X293447Y326755D01*
X293536Y326789D01*
X293620Y326813D01*
X293697Y326824D01*
X293728Y326832D01*
X293758D01*
X293781Y326835D01*
X293812D01*
X293874Y326832D01*
D02*
G37*
G36*
X295905Y335328D02*
X296001Y335309D01*
X296089Y335282D01*
X296162Y335251D01*
X296220Y335216D01*
X296243Y335201D01*
X296262Y335190D01*
X296281Y335178D01*
X296293Y335170D01*
X296297Y335167D01*
X296301Y335163D01*
X296370Y335094D01*
X296423Y335017D01*
X296469Y334936D01*
X296500Y334859D01*
X296527Y334790D01*
X296535Y334759D01*
X296542Y334733D01*
X296546Y334713D01*
X296550Y334698D01*
X296554Y334687D01*
Y334683D01*
X296243Y334629D01*
X296228Y334710D01*
X296204Y334779D01*
X296181Y334836D01*
X296155Y334882D01*
X296131Y334921D01*
X296112Y334948D01*
X296097Y334963D01*
X296093Y334967D01*
X296043Y335005D01*
X295993Y335032D01*
X295943Y335055D01*
X295893Y335067D01*
X295855Y335074D01*
X295820Y335082D01*
X295790D01*
X295725Y335078D01*
X295667Y335063D01*
X295617Y335048D01*
X295575Y335024D01*
X295540Y335005D01*
X295513Y334986D01*
X295498Y334971D01*
X295494Y334967D01*
X295456Y334925D01*
X295429Y334875D01*
X295406Y334829D01*
X295394Y334786D01*
X295387Y334744D01*
X295379Y334713D01*
Y334694D01*
Y334690D01*
Y334687D01*
X295387Y334610D01*
X295406Y334544D01*
X295429Y334491D01*
X295460Y334449D01*
X295490Y334414D01*
X295513Y334387D01*
X295532Y334372D01*
X295540Y334368D01*
X295602Y334333D01*
X295663Y334310D01*
X295721Y334291D01*
X295774Y334279D01*
X295824Y334272D01*
X295859Y334268D01*
X295909D01*
X295924Y334272D01*
X295943D01*
X295978Y333999D01*
X295932Y334011D01*
X295890Y334018D01*
X295851Y334022D01*
X295820Y334026D01*
X295794Y334030D01*
X295759D01*
X295682Y334022D01*
X295617Y334007D01*
X295555Y333988D01*
X295506Y333961D01*
X295463Y333934D01*
X295433Y333915D01*
X295417Y333899D01*
X295410Y333892D01*
X295363Y333838D01*
X295329Y333780D01*
X295302Y333719D01*
X295287Y333665D01*
X295275Y333615D01*
X295271Y333577D01*
X295268Y333561D01*
Y333550D01*
Y333546D01*
Y333542D01*
X295275Y333462D01*
X295291Y333389D01*
X295314Y333323D01*
X295340Y333270D01*
X295371Y333224D01*
X295394Y333193D01*
X295410Y333174D01*
X295417Y333166D01*
X295475Y333116D01*
X295536Y333078D01*
X295598Y333055D01*
X295659Y333035D01*
X295709Y333024D01*
X295747Y333020D01*
X295763Y333016D01*
X295786D01*
X295851Y333020D01*
X295913Y333035D01*
X295966Y333055D01*
X296009Y333074D01*
X296047Y333097D01*
X296074Y333112D01*
X296089Y333127D01*
X296097Y333131D01*
X296139Y333181D01*
X296178Y333239D01*
X296208Y333304D01*
X296231Y333366D01*
X296251Y333423D01*
X296262Y333469D01*
X296270Y333485D01*
Y333500D01*
X296274Y333508D01*
Y333511D01*
X296585Y333469D01*
X296577Y333412D01*
X296565Y333358D01*
X296531Y333258D01*
X296493Y333170D01*
X296446Y333093D01*
X296427Y333062D01*
X296404Y333035D01*
X296385Y333012D01*
X296370Y332989D01*
X296354Y332974D01*
X296343Y332962D01*
X296339Y332959D01*
X296335Y332955D01*
X296293Y332920D01*
X296247Y332889D01*
X296204Y332863D01*
X296158Y332843D01*
X296066Y332805D01*
X295978Y332782D01*
X295939Y332774D01*
X295901Y332770D01*
X295870Y332767D01*
X295840Y332763D01*
X295817Y332759D01*
X295786D01*
X295721Y332763D01*
X295655Y332770D01*
X295594Y332778D01*
X295536Y332793D01*
X295483Y332813D01*
X295433Y332832D01*
X295387Y332851D01*
X295344Y332874D01*
X295310Y332893D01*
X295275Y332912D01*
X295245Y332932D01*
X295221Y332951D01*
X295202Y332966D01*
X295191Y332974D01*
X295183Y332982D01*
X295179Y332985D01*
X295137Y333032D01*
X295099Y333078D01*
X295068Y333124D01*
X295041Y333170D01*
X295014Y333216D01*
X294995Y333266D01*
X294968Y333354D01*
X294956Y333393D01*
X294949Y333431D01*
X294945Y333462D01*
X294941Y333492D01*
X294937Y333515D01*
Y333531D01*
Y333542D01*
Y333546D01*
X294941Y333634D01*
X294956Y333715D01*
X294976Y333784D01*
X294999Y333842D01*
X295026Y333888D01*
X295045Y333922D01*
X295060Y333945D01*
X295064Y333953D01*
X295114Y334011D01*
X295171Y334057D01*
X295229Y334095D01*
X295283Y334122D01*
X295333Y334145D01*
X295371Y334157D01*
X295387Y334164D01*
X295398D01*
X295406Y334168D01*
X295410D01*
X295348Y334199D01*
X295294Y334237D01*
X295252Y334272D01*
X295214Y334306D01*
X295187Y334337D01*
X295164Y334360D01*
X295152Y334376D01*
X295148Y334383D01*
X295118Y334433D01*
X295099Y334487D01*
X295083Y334537D01*
X295072Y334583D01*
X295064Y334621D01*
X295060Y334652D01*
Y334671D01*
Y334679D01*
X295064Y334744D01*
X295075Y334802D01*
X295091Y334856D01*
X295106Y334905D01*
X295122Y334944D01*
X295137Y334975D01*
X295148Y334994D01*
X295152Y335001D01*
X295191Y335055D01*
X295233Y335105D01*
X295279Y335147D01*
X295321Y335182D01*
X295360Y335209D01*
X295390Y335228D01*
X295413Y335240D01*
X295417Y335243D01*
X295421D01*
X295486Y335274D01*
X295552Y335297D01*
X295617Y335313D01*
X295675Y335324D01*
X295725Y335332D01*
X295763Y335335D01*
X295851D01*
X295905Y335328D01*
D02*
G37*
G36*
X299000Y332801D02*
X298666D01*
Y333922D01*
X298236D01*
X298197Y333919D01*
X298167D01*
X298140Y333915D01*
X298121Y333911D01*
X298105D01*
X298098Y333907D01*
X298094D01*
X298036Y333888D01*
X297990Y333865D01*
X297971Y333853D01*
X297955Y333846D01*
X297948Y333842D01*
X297944Y333838D01*
X297913Y333819D01*
X297886Y333792D01*
X297829Y333738D01*
X297810Y333711D01*
X297790Y333688D01*
X297779Y333673D01*
X297775Y333669D01*
X297737Y333619D01*
X297698Y333565D01*
X297656Y333508D01*
X297618Y333450D01*
X297583Y333400D01*
X297556Y333362D01*
X297549Y333346D01*
X297541Y333335D01*
X297533Y333327D01*
Y333323D01*
X297199Y332801D01*
X296780D01*
X297218Y333485D01*
X297268Y333558D01*
X297318Y333623D01*
X297364Y333681D01*
X297406Y333730D01*
X297441Y333769D01*
X297468Y333800D01*
X297487Y333815D01*
X297495Y333823D01*
X297522Y333846D01*
X297556Y333869D01*
X297621Y333911D01*
X297648Y333926D01*
X297671Y333938D01*
X297687Y333945D01*
X297694Y333949D01*
X297629Y333961D01*
X297568Y333972D01*
X297510Y333988D01*
X297460Y334007D01*
X297410Y334026D01*
X297368Y334045D01*
X297326Y334065D01*
X297291Y334084D01*
X297260Y334103D01*
X297234Y334118D01*
X297211Y334137D01*
X297191Y334149D01*
X297180Y334164D01*
X297168Y334172D01*
X297161Y334180D01*
X297130Y334214D01*
X297103Y334253D01*
X297057Y334329D01*
X297026Y334402D01*
X297007Y334475D01*
X296992Y334537D01*
X296988Y334564D01*
Y334587D01*
X296984Y334606D01*
Y334621D01*
Y334629D01*
Y334633D01*
X296988Y334710D01*
X296999Y334779D01*
X297019Y334844D01*
X297038Y334902D01*
X297057Y334948D01*
X297076Y334982D01*
X297088Y335005D01*
X297092Y335013D01*
X297134Y335074D01*
X297180Y335124D01*
X297226Y335167D01*
X297272Y335197D01*
X297310Y335224D01*
X297341Y335243D01*
X297364Y335251D01*
X297368Y335255D01*
X297372D01*
X297406Y335266D01*
X297445Y335278D01*
X297525Y335293D01*
X297610Y335309D01*
X297691Y335316D01*
X297767Y335320D01*
X297798D01*
X297829Y335324D01*
X299000D01*
Y332801D01*
D02*
G37*
G36*
X294611Y334998D02*
X293374D01*
X293463Y334890D01*
X293543Y334779D01*
X293620Y334667D01*
X293689Y334564D01*
X293716Y334514D01*
X293743Y334472D01*
X293766Y334433D01*
X293785Y334399D01*
X293801Y334372D01*
X293812Y334352D01*
X293820Y334337D01*
X293824Y334333D01*
X293897Y334187D01*
X293962Y334041D01*
X294016Y333903D01*
X294039Y333838D01*
X294062Y333780D01*
X294081Y333723D01*
X294096Y333673D01*
X294112Y333631D01*
X294123Y333592D01*
X294131Y333561D01*
X294139Y333538D01*
X294142Y333523D01*
Y333519D01*
X294181Y333366D01*
X294196Y333296D01*
X294208Y333227D01*
X294219Y333166D01*
X294227Y333108D01*
X294235Y333051D01*
X294242Y333001D01*
X294246Y332959D01*
X294250Y332916D01*
X294254Y332882D01*
Y332855D01*
X294258Y332832D01*
Y332817D01*
Y332805D01*
Y332801D01*
X293939D01*
X293927Y332939D01*
X293912Y333070D01*
X293893Y333185D01*
X293881Y333239D01*
X293874Y333289D01*
X293862Y333331D01*
X293854Y333373D01*
X293847Y333408D01*
X293839Y333439D01*
X293831Y333462D01*
X293828Y333477D01*
X293824Y333488D01*
Y333492D01*
X293770Y333661D01*
X293712Y333819D01*
X293682Y333895D01*
X293651Y333968D01*
X293620Y334038D01*
X293593Y334099D01*
X293566Y334157D01*
X293540Y334210D01*
X293516Y334257D01*
X293497Y334295D01*
X293482Y334326D01*
X293470Y334349D01*
X293463Y334364D01*
X293459Y334368D01*
X293413Y334445D01*
X293371Y334521D01*
X293324Y334591D01*
X293282Y334656D01*
X293244Y334717D01*
X293202Y334771D01*
X293163Y334825D01*
X293129Y334871D01*
X293098Y334909D01*
X293067Y334948D01*
X293040Y334978D01*
X293021Y335005D01*
X293002Y335024D01*
X292990Y335040D01*
X292983Y335048D01*
X292979Y335051D01*
Y335293D01*
X294611D01*
Y334998D01*
D02*
G37*
G36*
X295905Y344828D02*
X296001Y344809D01*
X296089Y344782D01*
X296162Y344751D01*
X296220Y344717D01*
X296243Y344701D01*
X296262Y344690D01*
X296281Y344678D01*
X296293Y344670D01*
X296297Y344667D01*
X296301Y344663D01*
X296370Y344594D01*
X296423Y344517D01*
X296469Y344436D01*
X296500Y344359D01*
X296527Y344290D01*
X296535Y344260D01*
X296542Y344233D01*
X296546Y344213D01*
X296550Y344198D01*
X296554Y344187D01*
Y344183D01*
X296243Y344129D01*
X296228Y344210D01*
X296204Y344279D01*
X296181Y344336D01*
X296155Y344382D01*
X296131Y344421D01*
X296112Y344448D01*
X296097Y344463D01*
X296093Y344467D01*
X296043Y344505D01*
X295993Y344532D01*
X295943Y344555D01*
X295893Y344567D01*
X295855Y344574D01*
X295820Y344582D01*
X295790D01*
X295725Y344578D01*
X295667Y344563D01*
X295617Y344548D01*
X295575Y344525D01*
X295540Y344505D01*
X295513Y344486D01*
X295498Y344471D01*
X295494Y344467D01*
X295456Y344425D01*
X295429Y344375D01*
X295406Y344329D01*
X295394Y344286D01*
X295387Y344244D01*
X295379Y344213D01*
Y344194D01*
Y344190D01*
Y344187D01*
X295387Y344110D01*
X295406Y344044D01*
X295429Y343991D01*
X295460Y343949D01*
X295490Y343914D01*
X295513Y343887D01*
X295532Y343872D01*
X295540Y343868D01*
X295602Y343833D01*
X295663Y343810D01*
X295721Y343791D01*
X295774Y343779D01*
X295824Y343772D01*
X295859Y343768D01*
X295909D01*
X295924Y343772D01*
X295943D01*
X295978Y343499D01*
X295932Y343511D01*
X295890Y343518D01*
X295851Y343522D01*
X295820Y343526D01*
X295794Y343530D01*
X295759D01*
X295682Y343522D01*
X295617Y343507D01*
X295555Y343488D01*
X295506Y343461D01*
X295463Y343434D01*
X295433Y343415D01*
X295417Y343399D01*
X295410Y343392D01*
X295363Y343338D01*
X295329Y343280D01*
X295302Y343219D01*
X295287Y343165D01*
X295275Y343115D01*
X295271Y343077D01*
X295268Y343061D01*
Y343050D01*
Y343046D01*
Y343042D01*
X295275Y342962D01*
X295291Y342889D01*
X295314Y342823D01*
X295340Y342770D01*
X295371Y342723D01*
X295394Y342693D01*
X295410Y342674D01*
X295417Y342666D01*
X295475Y342616D01*
X295536Y342578D01*
X295598Y342555D01*
X295659Y342535D01*
X295709Y342524D01*
X295747Y342520D01*
X295763Y342516D01*
X295786D01*
X295851Y342520D01*
X295913Y342535D01*
X295966Y342555D01*
X296009Y342574D01*
X296047Y342597D01*
X296074Y342612D01*
X296089Y342628D01*
X296097Y342631D01*
X296139Y342681D01*
X296178Y342739D01*
X296208Y342804D01*
X296231Y342866D01*
X296251Y342923D01*
X296262Y342969D01*
X296270Y342985D01*
Y343000D01*
X296274Y343008D01*
Y343011D01*
X296585Y342969D01*
X296577Y342912D01*
X296565Y342858D01*
X296531Y342758D01*
X296493Y342670D01*
X296446Y342593D01*
X296427Y342562D01*
X296404Y342535D01*
X296385Y342512D01*
X296370Y342489D01*
X296354Y342474D01*
X296343Y342462D01*
X296339Y342459D01*
X296335Y342455D01*
X296293Y342420D01*
X296247Y342389D01*
X296204Y342363D01*
X296158Y342343D01*
X296066Y342305D01*
X295978Y342282D01*
X295939Y342274D01*
X295901Y342270D01*
X295870Y342267D01*
X295840Y342263D01*
X295817Y342259D01*
X295786D01*
X295721Y342263D01*
X295655Y342270D01*
X295594Y342278D01*
X295536Y342293D01*
X295483Y342313D01*
X295433Y342332D01*
X295387Y342351D01*
X295344Y342374D01*
X295310Y342393D01*
X295275Y342412D01*
X295245Y342432D01*
X295221Y342451D01*
X295202Y342466D01*
X295191Y342474D01*
X295183Y342482D01*
X295179Y342485D01*
X295137Y342531D01*
X295099Y342578D01*
X295068Y342624D01*
X295041Y342670D01*
X295014Y342716D01*
X294995Y342766D01*
X294968Y342854D01*
X294956Y342893D01*
X294949Y342931D01*
X294945Y342962D01*
X294941Y342992D01*
X294937Y343015D01*
Y343031D01*
Y343042D01*
Y343046D01*
X294941Y343134D01*
X294956Y343215D01*
X294976Y343284D01*
X294999Y343342D01*
X295026Y343388D01*
X295045Y343422D01*
X295060Y343445D01*
X295064Y343453D01*
X295114Y343511D01*
X295171Y343557D01*
X295229Y343595D01*
X295283Y343622D01*
X295333Y343645D01*
X295371Y343657D01*
X295387Y343664D01*
X295398D01*
X295406Y343668D01*
X295410D01*
X295348Y343699D01*
X295294Y343737D01*
X295252Y343772D01*
X295214Y343806D01*
X295187Y343837D01*
X295164Y343860D01*
X295152Y343876D01*
X295148Y343883D01*
X295118Y343933D01*
X295099Y343987D01*
X295083Y344037D01*
X295072Y344083D01*
X295064Y344121D01*
X295060Y344152D01*
Y344171D01*
Y344179D01*
X295064Y344244D01*
X295075Y344302D01*
X295091Y344356D01*
X295106Y344405D01*
X295122Y344444D01*
X295137Y344475D01*
X295148Y344494D01*
X295152Y344501D01*
X295191Y344555D01*
X295233Y344605D01*
X295279Y344647D01*
X295321Y344682D01*
X295360Y344709D01*
X295390Y344728D01*
X295413Y344740D01*
X295417Y344743D01*
X295421D01*
X295486Y344774D01*
X295552Y344797D01*
X295617Y344812D01*
X295675Y344824D01*
X295725Y344832D01*
X295763Y344835D01*
X295851D01*
X295905Y344828D01*
D02*
G37*
G36*
X293812Y344832D02*
X293881Y344824D01*
X293947Y344809D01*
X294008Y344789D01*
X294066Y344766D01*
X294115Y344743D01*
X294165Y344717D01*
X294208Y344690D01*
X294246Y344663D01*
X294281Y344636D01*
X294307Y344613D01*
X294334Y344590D01*
X294354Y344571D01*
X294365Y344555D01*
X294373Y344548D01*
X294377Y344544D01*
X294423Y344478D01*
X294465Y344402D01*
X294499Y344325D01*
X294530Y344236D01*
X294557Y344152D01*
X294580Y344064D01*
X294599Y343975D01*
X294611Y343887D01*
X294622Y343806D01*
X294630Y343730D01*
X294638Y343660D01*
X294642Y343599D01*
X294645Y343549D01*
Y343511D01*
Y343499D01*
Y343488D01*
Y343484D01*
Y343480D01*
X294642Y343361D01*
X294634Y343253D01*
X294622Y343150D01*
X294607Y343058D01*
X294588Y342973D01*
X294569Y342896D01*
X294546Y342827D01*
X294523Y342766D01*
X294503Y342712D01*
X294480Y342666D01*
X294461Y342628D01*
X294442Y342597D01*
X294427Y342574D01*
X294415Y342558D01*
X294407Y342547D01*
X294404Y342543D01*
X294357Y342493D01*
X294307Y342451D01*
X294254Y342412D01*
X294200Y342378D01*
X294146Y342351D01*
X294096Y342328D01*
X294043Y342309D01*
X293993Y342293D01*
X293947Y342282D01*
X293904Y342274D01*
X293866Y342267D01*
X293835Y342263D01*
X293808D01*
X293785Y342259D01*
X293770D01*
X293689Y342263D01*
X293613Y342274D01*
X293543Y342293D01*
X293482Y342313D01*
X293436Y342332D01*
X293397Y342351D01*
X293374Y342363D01*
X293367Y342366D01*
X293301Y342412D01*
X293248Y342462D01*
X293198Y342512D01*
X293156Y342562D01*
X293125Y342608D01*
X293102Y342643D01*
X293094Y342658D01*
X293086Y342670D01*
X293083Y342674D01*
Y342677D01*
X293048Y342754D01*
X293021Y342831D01*
X293006Y342908D01*
X292990Y342973D01*
X292983Y343035D01*
Y343058D01*
X292979Y343081D01*
Y343096D01*
Y343108D01*
Y343115D01*
Y343119D01*
X292983Y343184D01*
X292987Y343250D01*
X292998Y343307D01*
X293013Y343365D01*
X293029Y343415D01*
X293048Y343465D01*
X293067Y343507D01*
X293086Y343549D01*
X293109Y343584D01*
X293129Y343614D01*
X293148Y343641D01*
X293163Y343664D01*
X293179Y343684D01*
X293190Y343695D01*
X293194Y343703D01*
X293198Y343707D01*
X293240Y343749D01*
X293282Y343783D01*
X293328Y343814D01*
X293374Y343841D01*
X293417Y343864D01*
X293463Y343879D01*
X293543Y343910D01*
X293616Y343925D01*
X293647Y343929D01*
X293674Y343933D01*
X293697Y343937D01*
X293728D01*
X293793Y343933D01*
X293854Y343925D01*
X293912Y343910D01*
X293962Y343895D01*
X294004Y343879D01*
X294039Y343864D01*
X294058Y343856D01*
X294066Y343852D01*
X294123Y343818D01*
X294177Y343779D01*
X294223Y343737D01*
X294261Y343695D01*
X294296Y343657D01*
X294319Y343626D01*
X294334Y343607D01*
X294338Y343603D01*
Y343668D01*
X294334Y343733D01*
X294331Y343795D01*
X294327Y343852D01*
X294319Y343902D01*
X294311Y343952D01*
X294304Y343995D01*
X294296Y344033D01*
X294288Y344068D01*
X294281Y344098D01*
X294273Y344125D01*
X294265Y344144D01*
X294261Y344160D01*
X294258Y344175D01*
X294254Y344179D01*
Y344183D01*
X294219Y344256D01*
X294181Y344321D01*
X294142Y344375D01*
X294104Y344417D01*
X294073Y344451D01*
X294046Y344478D01*
X294031Y344494D01*
X294023Y344498D01*
X293977Y344525D01*
X293935Y344548D01*
X293889Y344563D01*
X293847Y344571D01*
X293812Y344578D01*
X293785Y344582D01*
X293758D01*
X293693Y344578D01*
X293632Y344563D01*
X293578Y344540D01*
X293532Y344517D01*
X293497Y344490D01*
X293470Y344471D01*
X293451Y344455D01*
X293447Y344448D01*
X293421Y344413D01*
X293397Y344375D01*
X293359Y344286D01*
X293348Y344248D01*
X293336Y344217D01*
X293328Y344194D01*
Y344190D01*
Y344187D01*
X293021Y344210D01*
X293040Y344313D01*
X293075Y344405D01*
X293109Y344482D01*
X293152Y344548D01*
X293190Y344597D01*
X293221Y344636D01*
X293244Y344659D01*
X293248Y344667D01*
X293251D01*
X293290Y344697D01*
X293328Y344724D01*
X293409Y344763D01*
X293490Y344793D01*
X293566Y344816D01*
X293636Y344828D01*
X293666Y344832D01*
X293689D01*
X293712Y344835D01*
X293739D01*
X293812Y344832D01*
D02*
G37*
G36*
X299000Y342301D02*
X298666D01*
Y343422D01*
X298236D01*
X298197Y343419D01*
X298167D01*
X298140Y343415D01*
X298121Y343411D01*
X298105D01*
X298098Y343407D01*
X298094D01*
X298036Y343388D01*
X297990Y343365D01*
X297971Y343353D01*
X297955Y343346D01*
X297948Y343342D01*
X297944Y343338D01*
X297913Y343319D01*
X297886Y343292D01*
X297829Y343238D01*
X297810Y343211D01*
X297790Y343188D01*
X297779Y343173D01*
X297775Y343169D01*
X297737Y343119D01*
X297698Y343065D01*
X297656Y343008D01*
X297618Y342950D01*
X297583Y342900D01*
X297556Y342862D01*
X297549Y342846D01*
X297541Y342835D01*
X297533Y342827D01*
Y342823D01*
X297199Y342301D01*
X296780D01*
X297218Y342985D01*
X297268Y343058D01*
X297318Y343123D01*
X297364Y343180D01*
X297406Y343230D01*
X297441Y343269D01*
X297468Y343300D01*
X297487Y343315D01*
X297495Y343323D01*
X297522Y343346D01*
X297556Y343369D01*
X297621Y343411D01*
X297648Y343426D01*
X297671Y343438D01*
X297687Y343445D01*
X297694Y343449D01*
X297629Y343461D01*
X297568Y343472D01*
X297510Y343488D01*
X297460Y343507D01*
X297410Y343526D01*
X297368Y343545D01*
X297326Y343565D01*
X297291Y343584D01*
X297260Y343603D01*
X297234Y343618D01*
X297211Y343637D01*
X297191Y343649D01*
X297180Y343664D01*
X297168Y343672D01*
X297161Y343680D01*
X297130Y343714D01*
X297103Y343753D01*
X297057Y343829D01*
X297026Y343902D01*
X297007Y343975D01*
X296992Y344037D01*
X296988Y344064D01*
Y344087D01*
X296984Y344106D01*
Y344121D01*
Y344129D01*
Y344133D01*
X296988Y344210D01*
X296999Y344279D01*
X297019Y344344D01*
X297038Y344402D01*
X297057Y344448D01*
X297076Y344482D01*
X297088Y344505D01*
X297092Y344513D01*
X297134Y344574D01*
X297180Y344624D01*
X297226Y344667D01*
X297272Y344697D01*
X297310Y344724D01*
X297341Y344743D01*
X297364Y344751D01*
X297368Y344755D01*
X297372D01*
X297406Y344766D01*
X297445Y344778D01*
X297525Y344793D01*
X297610Y344809D01*
X297691Y344816D01*
X297767Y344820D01*
X297798D01*
X297829Y344824D01*
X299000D01*
Y342301D01*
D02*
G37*
G36*
X295905Y353828D02*
X296001Y353809D01*
X296089Y353782D01*
X296162Y353751D01*
X296220Y353716D01*
X296243Y353701D01*
X296262Y353690D01*
X296281Y353678D01*
X296293Y353670D01*
X296297Y353667D01*
X296301Y353663D01*
X296370Y353594D01*
X296423Y353517D01*
X296469Y353436D01*
X296500Y353359D01*
X296527Y353290D01*
X296535Y353259D01*
X296542Y353233D01*
X296546Y353213D01*
X296550Y353198D01*
X296554Y353187D01*
Y353183D01*
X296243Y353129D01*
X296228Y353210D01*
X296204Y353279D01*
X296181Y353336D01*
X296155Y353382D01*
X296131Y353421D01*
X296112Y353448D01*
X296097Y353463D01*
X296093Y353467D01*
X296043Y353505D01*
X295993Y353532D01*
X295943Y353555D01*
X295893Y353567D01*
X295855Y353574D01*
X295820Y353582D01*
X295790D01*
X295725Y353578D01*
X295667Y353563D01*
X295617Y353548D01*
X295575Y353524D01*
X295540Y353505D01*
X295513Y353486D01*
X295498Y353471D01*
X295494Y353467D01*
X295456Y353425D01*
X295429Y353375D01*
X295406Y353329D01*
X295394Y353286D01*
X295387Y353244D01*
X295379Y353213D01*
Y353194D01*
Y353190D01*
Y353187D01*
X295387Y353110D01*
X295406Y353045D01*
X295429Y352991D01*
X295460Y352948D01*
X295490Y352914D01*
X295513Y352887D01*
X295532Y352872D01*
X295540Y352868D01*
X295602Y352833D01*
X295663Y352810D01*
X295721Y352791D01*
X295774Y352780D01*
X295824Y352772D01*
X295859Y352768D01*
X295909D01*
X295924Y352772D01*
X295943D01*
X295978Y352499D01*
X295932Y352511D01*
X295890Y352518D01*
X295851Y352522D01*
X295820Y352526D01*
X295794Y352530D01*
X295759D01*
X295682Y352522D01*
X295617Y352507D01*
X295555Y352488D01*
X295506Y352461D01*
X295463Y352434D01*
X295433Y352415D01*
X295417Y352399D01*
X295410Y352392D01*
X295363Y352338D01*
X295329Y352280D01*
X295302Y352219D01*
X295287Y352165D01*
X295275Y352115D01*
X295271Y352077D01*
X295268Y352061D01*
Y352050D01*
Y352046D01*
Y352042D01*
X295275Y351962D01*
X295291Y351889D01*
X295314Y351823D01*
X295340Y351770D01*
X295371Y351724D01*
X295394Y351693D01*
X295410Y351674D01*
X295417Y351666D01*
X295475Y351616D01*
X295536Y351578D01*
X295598Y351555D01*
X295659Y351535D01*
X295709Y351524D01*
X295747Y351520D01*
X295763Y351516D01*
X295786D01*
X295851Y351520D01*
X295913Y351535D01*
X295966Y351555D01*
X296009Y351574D01*
X296047Y351597D01*
X296074Y351612D01*
X296089Y351627D01*
X296097Y351631D01*
X296139Y351681D01*
X296178Y351739D01*
X296208Y351804D01*
X296231Y351866D01*
X296251Y351923D01*
X296262Y351969D01*
X296270Y351985D01*
Y352000D01*
X296274Y352008D01*
Y352011D01*
X296585Y351969D01*
X296577Y351912D01*
X296565Y351858D01*
X296531Y351758D01*
X296493Y351670D01*
X296446Y351593D01*
X296427Y351562D01*
X296404Y351535D01*
X296385Y351512D01*
X296370Y351489D01*
X296354Y351474D01*
X296343Y351462D01*
X296339Y351459D01*
X296335Y351455D01*
X296293Y351420D01*
X296247Y351389D01*
X296204Y351363D01*
X296158Y351343D01*
X296066Y351305D01*
X295978Y351282D01*
X295939Y351274D01*
X295901Y351270D01*
X295870Y351267D01*
X295840Y351263D01*
X295817Y351259D01*
X295786D01*
X295721Y351263D01*
X295655Y351270D01*
X295594Y351278D01*
X295536Y351293D01*
X295483Y351313D01*
X295433Y351332D01*
X295387Y351351D01*
X295344Y351374D01*
X295310Y351393D01*
X295275Y351413D01*
X295245Y351432D01*
X295221Y351451D01*
X295202Y351466D01*
X295191Y351474D01*
X295183Y351482D01*
X295179Y351485D01*
X295137Y351532D01*
X295099Y351578D01*
X295068Y351624D01*
X295041Y351670D01*
X295014Y351716D01*
X294995Y351766D01*
X294968Y351854D01*
X294956Y351892D01*
X294949Y351931D01*
X294945Y351962D01*
X294941Y351992D01*
X294937Y352015D01*
Y352031D01*
Y352042D01*
Y352046D01*
X294941Y352134D01*
X294956Y352215D01*
X294976Y352284D01*
X294999Y352342D01*
X295026Y352388D01*
X295045Y352422D01*
X295060Y352445D01*
X295064Y352453D01*
X295114Y352511D01*
X295171Y352557D01*
X295229Y352595D01*
X295283Y352622D01*
X295333Y352645D01*
X295371Y352657D01*
X295387Y352664D01*
X295398D01*
X295406Y352668D01*
X295410D01*
X295348Y352699D01*
X295294Y352737D01*
X295252Y352772D01*
X295214Y352806D01*
X295187Y352837D01*
X295164Y352860D01*
X295152Y352875D01*
X295148Y352883D01*
X295118Y352933D01*
X295099Y352987D01*
X295083Y353037D01*
X295072Y353083D01*
X295064Y353121D01*
X295060Y353152D01*
Y353171D01*
Y353179D01*
X295064Y353244D01*
X295075Y353302D01*
X295091Y353356D01*
X295106Y353405D01*
X295122Y353444D01*
X295137Y353475D01*
X295148Y353494D01*
X295152Y353501D01*
X295191Y353555D01*
X295233Y353605D01*
X295279Y353647D01*
X295321Y353682D01*
X295360Y353709D01*
X295390Y353728D01*
X295413Y353740D01*
X295417Y353743D01*
X295421D01*
X295486Y353774D01*
X295552Y353797D01*
X295617Y353813D01*
X295675Y353824D01*
X295725Y353832D01*
X295763Y353836D01*
X295851D01*
X295905Y353828D01*
D02*
G37*
G36*
X294576Y352491D02*
X294285Y352449D01*
X294258Y352488D01*
X294227Y352522D01*
X294196Y352553D01*
X294169Y352580D01*
X294142Y352599D01*
X294119Y352614D01*
X294104Y352622D01*
X294100Y352626D01*
X294054Y352649D01*
X294008Y352668D01*
X293962Y352680D01*
X293920Y352691D01*
X293881Y352695D01*
X293854Y352699D01*
X293828D01*
X293743Y352691D01*
X293666Y352676D01*
X293597Y352649D01*
X293543Y352622D01*
X293497Y352595D01*
X293467Y352568D01*
X293447Y352553D01*
X293440Y352545D01*
X293390Y352484D01*
X293351Y352415D01*
X293324Y352346D01*
X293309Y352280D01*
X293298Y352219D01*
X293294Y352192D01*
Y352169D01*
X293290Y352154D01*
Y352138D01*
Y352131D01*
Y352127D01*
X293298Y352027D01*
X293313Y351939D01*
X293340Y351862D01*
X293367Y351797D01*
X293394Y351747D01*
X293421Y351708D01*
X293436Y351685D01*
X293443Y351681D01*
Y351677D01*
X293474Y351647D01*
X293505Y351624D01*
X293566Y351581D01*
X293632Y351555D01*
X293689Y351532D01*
X293743Y351520D01*
X293785Y351516D01*
X293801Y351512D01*
X293824D01*
X293889Y351516D01*
X293950Y351532D01*
X294004Y351551D01*
X294050Y351570D01*
X294089Y351593D01*
X294115Y351608D01*
X294131Y351624D01*
X294139Y351627D01*
X294185Y351677D01*
X294219Y351735D01*
X294250Y351793D01*
X294269Y351850D01*
X294285Y351904D01*
X294296Y351946D01*
X294300Y351962D01*
X294304Y351973D01*
Y351981D01*
Y351985D01*
X294630Y351962D01*
X294622Y351904D01*
X294611Y351846D01*
X294580Y351747D01*
X294538Y351658D01*
X294496Y351585D01*
X294473Y351555D01*
X294453Y351528D01*
X294434Y351505D01*
X294419Y351485D01*
X294404Y351470D01*
X294392Y351459D01*
X294388Y351455D01*
X294384Y351451D01*
X294342Y351416D01*
X294296Y351389D01*
X294250Y351363D01*
X294204Y351340D01*
X294112Y351305D01*
X294023Y351282D01*
X293981Y351274D01*
X293943Y351270D01*
X293908Y351267D01*
X293881Y351263D01*
X293858Y351259D01*
X293824D01*
X293747Y351263D01*
X293674Y351270D01*
X293609Y351286D01*
X293543Y351305D01*
X293486Y351328D01*
X293428Y351355D01*
X293378Y351382D01*
X293336Y351413D01*
X293294Y351439D01*
X293259Y351466D01*
X293229Y351493D01*
X293205Y351516D01*
X293186Y351535D01*
X293171Y351551D01*
X293163Y351558D01*
X293159Y351562D01*
X293125Y351608D01*
X293094Y351658D01*
X293067Y351708D01*
X293044Y351762D01*
X293010Y351858D01*
X292983Y351950D01*
X292975Y351992D01*
X292971Y352031D01*
X292967Y352065D01*
X292964Y352096D01*
X292960Y352119D01*
Y352138D01*
Y352150D01*
Y352154D01*
X292964Y352219D01*
X292971Y352284D01*
X292983Y352342D01*
X292994Y352399D01*
X293013Y352449D01*
X293033Y352499D01*
X293052Y352541D01*
X293075Y352584D01*
X293098Y352618D01*
X293117Y352649D01*
X293136Y352676D01*
X293156Y352699D01*
X293167Y352718D01*
X293179Y352730D01*
X293186Y352737D01*
X293190Y352741D01*
X293232Y352783D01*
X293278Y352818D01*
X293324Y352849D01*
X293374Y352875D01*
X293421Y352899D01*
X293467Y352914D01*
X293555Y352945D01*
X293593Y352952D01*
X293632Y352960D01*
X293662Y352964D01*
X293693Y352968D01*
X293716Y352972D01*
X293747D01*
X293839Y352964D01*
X293927Y352945D01*
X294008Y352922D01*
X294077Y352891D01*
X294139Y352860D01*
X294162Y352849D01*
X294185Y352837D01*
X294200Y352826D01*
X294212Y352818D01*
X294219Y352814D01*
X294223Y352810D01*
X294085Y353490D01*
X293079D01*
Y353786D01*
X294331D01*
X294576Y352491D01*
D02*
G37*
G36*
X299000Y351301D02*
X298666D01*
Y352422D01*
X298236D01*
X298197Y352419D01*
X298167D01*
X298140Y352415D01*
X298121Y352411D01*
X298105D01*
X298098Y352407D01*
X298094D01*
X298036Y352388D01*
X297990Y352365D01*
X297971Y352353D01*
X297955Y352346D01*
X297948Y352342D01*
X297944Y352338D01*
X297913Y352319D01*
X297886Y352292D01*
X297829Y352238D01*
X297810Y352211D01*
X297790Y352188D01*
X297779Y352173D01*
X297775Y352169D01*
X297737Y352119D01*
X297698Y352065D01*
X297656Y352008D01*
X297618Y351950D01*
X297583Y351900D01*
X297556Y351862D01*
X297549Y351846D01*
X297541Y351835D01*
X297533Y351827D01*
Y351823D01*
X297199Y351301D01*
X296780D01*
X297218Y351985D01*
X297268Y352058D01*
X297318Y352123D01*
X297364Y352181D01*
X297406Y352230D01*
X297441Y352269D01*
X297468Y352299D01*
X297487Y352315D01*
X297495Y352323D01*
X297522Y352346D01*
X297556Y352369D01*
X297621Y352411D01*
X297648Y352426D01*
X297671Y352438D01*
X297687Y352445D01*
X297694Y352449D01*
X297629Y352461D01*
X297568Y352472D01*
X297510Y352488D01*
X297460Y352507D01*
X297410Y352526D01*
X297368Y352545D01*
X297326Y352565D01*
X297291Y352584D01*
X297260Y352603D01*
X297234Y352618D01*
X297211Y352637D01*
X297191Y352649D01*
X297180Y352664D01*
X297168Y352672D01*
X297161Y352680D01*
X297130Y352714D01*
X297103Y352753D01*
X297057Y352829D01*
X297026Y352902D01*
X297007Y352975D01*
X296992Y353037D01*
X296988Y353064D01*
Y353087D01*
X296984Y353106D01*
Y353121D01*
Y353129D01*
Y353133D01*
X296988Y353210D01*
X296999Y353279D01*
X297019Y353344D01*
X297038Y353402D01*
X297057Y353448D01*
X297076Y353482D01*
X297088Y353505D01*
X297092Y353513D01*
X297134Y353574D01*
X297180Y353624D01*
X297226Y353667D01*
X297272Y353697D01*
X297310Y353724D01*
X297341Y353743D01*
X297364Y353751D01*
X297368Y353755D01*
X297372D01*
X297406Y353766D01*
X297445Y353778D01*
X297525Y353793D01*
X297610Y353809D01*
X297691Y353816D01*
X297767Y353820D01*
X297798D01*
X297829Y353824D01*
X299000D01*
Y351301D01*
D02*
G37*
G36*
X295905Y371828D02*
X296001Y371809D01*
X296089Y371782D01*
X296162Y371751D01*
X296220Y371716D01*
X296243Y371701D01*
X296262Y371690D01*
X296281Y371678D01*
X296293Y371670D01*
X296297Y371667D01*
X296301Y371663D01*
X296370Y371594D01*
X296423Y371517D01*
X296469Y371436D01*
X296500Y371359D01*
X296527Y371290D01*
X296535Y371259D01*
X296542Y371233D01*
X296546Y371213D01*
X296550Y371198D01*
X296554Y371187D01*
Y371183D01*
X296243Y371129D01*
X296228Y371210D01*
X296204Y371279D01*
X296181Y371336D01*
X296155Y371382D01*
X296131Y371421D01*
X296112Y371448D01*
X296097Y371463D01*
X296093Y371467D01*
X296043Y371505D01*
X295993Y371532D01*
X295943Y371555D01*
X295893Y371567D01*
X295855Y371574D01*
X295820Y371582D01*
X295790D01*
X295725Y371578D01*
X295667Y371563D01*
X295617Y371548D01*
X295575Y371525D01*
X295540Y371505D01*
X295513Y371486D01*
X295498Y371471D01*
X295494Y371467D01*
X295456Y371425D01*
X295429Y371375D01*
X295406Y371329D01*
X295394Y371286D01*
X295387Y371244D01*
X295379Y371213D01*
Y371194D01*
Y371190D01*
Y371187D01*
X295387Y371110D01*
X295406Y371044D01*
X295429Y370991D01*
X295460Y370949D01*
X295490Y370914D01*
X295513Y370887D01*
X295532Y370872D01*
X295540Y370868D01*
X295602Y370833D01*
X295663Y370810D01*
X295721Y370791D01*
X295774Y370779D01*
X295824Y370772D01*
X295859Y370768D01*
X295909D01*
X295924Y370772D01*
X295943D01*
X295978Y370499D01*
X295932Y370511D01*
X295890Y370518D01*
X295851Y370522D01*
X295820Y370526D01*
X295794Y370530D01*
X295759D01*
X295682Y370522D01*
X295617Y370507D01*
X295555Y370488D01*
X295506Y370461D01*
X295463Y370434D01*
X295433Y370415D01*
X295417Y370399D01*
X295410Y370392D01*
X295363Y370338D01*
X295329Y370280D01*
X295302Y370219D01*
X295287Y370165D01*
X295275Y370115D01*
X295271Y370077D01*
X295268Y370061D01*
Y370050D01*
Y370046D01*
Y370042D01*
X295275Y369962D01*
X295291Y369889D01*
X295314Y369823D01*
X295340Y369770D01*
X295371Y369724D01*
X295394Y369693D01*
X295410Y369674D01*
X295417Y369666D01*
X295475Y369616D01*
X295536Y369578D01*
X295598Y369555D01*
X295659Y369535D01*
X295709Y369524D01*
X295747Y369520D01*
X295763Y369516D01*
X295786D01*
X295851Y369520D01*
X295913Y369535D01*
X295966Y369555D01*
X296009Y369574D01*
X296047Y369597D01*
X296074Y369612D01*
X296089Y369627D01*
X296097Y369631D01*
X296139Y369681D01*
X296178Y369739D01*
X296208Y369804D01*
X296231Y369866D01*
X296251Y369923D01*
X296262Y369969D01*
X296270Y369985D01*
Y370000D01*
X296274Y370008D01*
Y370011D01*
X296585Y369969D01*
X296577Y369912D01*
X296565Y369858D01*
X296531Y369758D01*
X296493Y369670D01*
X296446Y369593D01*
X296427Y369562D01*
X296404Y369535D01*
X296385Y369512D01*
X296370Y369489D01*
X296354Y369474D01*
X296343Y369462D01*
X296339Y369459D01*
X296335Y369455D01*
X296293Y369420D01*
X296247Y369389D01*
X296204Y369363D01*
X296158Y369343D01*
X296066Y369305D01*
X295978Y369282D01*
X295939Y369274D01*
X295901Y369270D01*
X295870Y369267D01*
X295840Y369263D01*
X295817Y369259D01*
X295786D01*
X295721Y369263D01*
X295655Y369270D01*
X295594Y369278D01*
X295536Y369293D01*
X295483Y369313D01*
X295433Y369332D01*
X295387Y369351D01*
X295344Y369374D01*
X295310Y369393D01*
X295275Y369412D01*
X295245Y369432D01*
X295221Y369451D01*
X295202Y369466D01*
X295191Y369474D01*
X295183Y369482D01*
X295179Y369485D01*
X295137Y369531D01*
X295099Y369578D01*
X295068Y369624D01*
X295041Y369670D01*
X295014Y369716D01*
X294995Y369766D01*
X294968Y369854D01*
X294956Y369893D01*
X294949Y369931D01*
X294945Y369962D01*
X294941Y369992D01*
X294937Y370015D01*
Y370031D01*
Y370042D01*
Y370046D01*
X294941Y370134D01*
X294956Y370215D01*
X294976Y370284D01*
X294999Y370342D01*
X295026Y370388D01*
X295045Y370422D01*
X295060Y370445D01*
X295064Y370453D01*
X295114Y370511D01*
X295171Y370557D01*
X295229Y370595D01*
X295283Y370622D01*
X295333Y370645D01*
X295371Y370657D01*
X295387Y370664D01*
X295398D01*
X295406Y370668D01*
X295410D01*
X295348Y370699D01*
X295294Y370737D01*
X295252Y370772D01*
X295214Y370806D01*
X295187Y370837D01*
X295164Y370860D01*
X295152Y370876D01*
X295148Y370883D01*
X295118Y370933D01*
X295099Y370987D01*
X295083Y371037D01*
X295072Y371083D01*
X295064Y371121D01*
X295060Y371152D01*
Y371171D01*
Y371179D01*
X295064Y371244D01*
X295075Y371302D01*
X295091Y371356D01*
X295106Y371405D01*
X295122Y371444D01*
X295137Y371475D01*
X295148Y371494D01*
X295152Y371501D01*
X295191Y371555D01*
X295233Y371605D01*
X295279Y371647D01*
X295321Y371682D01*
X295360Y371709D01*
X295390Y371728D01*
X295413Y371740D01*
X295417Y371743D01*
X295421D01*
X295486Y371774D01*
X295552Y371797D01*
X295617Y371813D01*
X295675Y371824D01*
X295725Y371832D01*
X295763Y371835D01*
X295851D01*
X295905Y371828D01*
D02*
G37*
G36*
X293947D02*
X294043Y371809D01*
X294131Y371782D01*
X294204Y371751D01*
X294261Y371716D01*
X294285Y371701D01*
X294304Y371690D01*
X294323Y371678D01*
X294334Y371670D01*
X294338Y371667D01*
X294342Y371663D01*
X294411Y371594D01*
X294465Y371517D01*
X294511Y371436D01*
X294542Y371359D01*
X294569Y371290D01*
X294576Y371259D01*
X294584Y371233D01*
X294588Y371213D01*
X294592Y371198D01*
X294596Y371187D01*
Y371183D01*
X294285Y371129D01*
X294269Y371210D01*
X294246Y371279D01*
X294223Y371336D01*
X294196Y371382D01*
X294173Y371421D01*
X294154Y371448D01*
X294139Y371463D01*
X294135Y371467D01*
X294085Y371505D01*
X294035Y371532D01*
X293985Y371555D01*
X293935Y371567D01*
X293897Y371574D01*
X293862Y371582D01*
X293831D01*
X293766Y371578D01*
X293708Y371563D01*
X293659Y371548D01*
X293616Y371525D01*
X293582Y371505D01*
X293555Y371486D01*
X293540Y371471D01*
X293536Y371467D01*
X293497Y371425D01*
X293470Y371375D01*
X293447Y371329D01*
X293436Y371286D01*
X293428Y371244D01*
X293421Y371213D01*
Y371194D01*
Y371190D01*
Y371187D01*
X293428Y371110D01*
X293447Y371044D01*
X293470Y370991D01*
X293501Y370949D01*
X293532Y370914D01*
X293555Y370887D01*
X293574Y370872D01*
X293582Y370868D01*
X293643Y370833D01*
X293705Y370810D01*
X293762Y370791D01*
X293816Y370779D01*
X293866Y370772D01*
X293900Y370768D01*
X293950D01*
X293966Y370772D01*
X293985D01*
X294020Y370499D01*
X293973Y370511D01*
X293931Y370518D01*
X293893Y370522D01*
X293862Y370526D01*
X293835Y370530D01*
X293801D01*
X293724Y370522D01*
X293659Y370507D01*
X293597Y370488D01*
X293547Y370461D01*
X293505Y370434D01*
X293474Y370415D01*
X293459Y370399D01*
X293451Y370392D01*
X293405Y370338D01*
X293371Y370280D01*
X293344Y370219D01*
X293328Y370165D01*
X293317Y370115D01*
X293313Y370077D01*
X293309Y370061D01*
Y370050D01*
Y370046D01*
Y370042D01*
X293317Y369962D01*
X293332Y369889D01*
X293355Y369823D01*
X293382Y369770D01*
X293413Y369724D01*
X293436Y369693D01*
X293451Y369674D01*
X293459Y369666D01*
X293516Y369616D01*
X293578Y369578D01*
X293639Y369555D01*
X293701Y369535D01*
X293751Y369524D01*
X293789Y369520D01*
X293805Y369516D01*
X293828D01*
X293893Y369520D01*
X293954Y369535D01*
X294008Y369555D01*
X294050Y369574D01*
X294089Y369597D01*
X294115Y369612D01*
X294131Y369627D01*
X294139Y369631D01*
X294181Y369681D01*
X294219Y369739D01*
X294250Y369804D01*
X294273Y369866D01*
X294292Y369923D01*
X294304Y369969D01*
X294311Y369985D01*
Y370000D01*
X294315Y370008D01*
Y370011D01*
X294626Y369969D01*
X294619Y369912D01*
X294607Y369858D01*
X294572Y369758D01*
X294534Y369670D01*
X294488Y369593D01*
X294469Y369562D01*
X294446Y369535D01*
X294427Y369512D01*
X294411Y369489D01*
X294396Y369474D01*
X294384Y369462D01*
X294380Y369459D01*
X294377Y369455D01*
X294334Y369420D01*
X294288Y369389D01*
X294246Y369363D01*
X294200Y369343D01*
X294108Y369305D01*
X294020Y369282D01*
X293981Y369274D01*
X293943Y369270D01*
X293912Y369267D01*
X293881Y369263D01*
X293858Y369259D01*
X293828D01*
X293762Y369263D01*
X293697Y369270D01*
X293636Y369278D01*
X293578Y369293D01*
X293524Y369313D01*
X293474Y369332D01*
X293428Y369351D01*
X293386Y369374D01*
X293351Y369393D01*
X293317Y369412D01*
X293286Y369432D01*
X293263Y369451D01*
X293244Y369466D01*
X293232Y369474D01*
X293225Y369482D01*
X293221Y369485D01*
X293179Y369531D01*
X293140Y369578D01*
X293109Y369624D01*
X293083Y369670D01*
X293056Y369716D01*
X293037Y369766D01*
X293010Y369854D01*
X292998Y369893D01*
X292990Y369931D01*
X292987Y369962D01*
X292983Y369992D01*
X292979Y370015D01*
Y370031D01*
Y370042D01*
Y370046D01*
X292983Y370134D01*
X292998Y370215D01*
X293017Y370284D01*
X293040Y370342D01*
X293067Y370388D01*
X293086Y370422D01*
X293102Y370445D01*
X293106Y370453D01*
X293156Y370511D01*
X293213Y370557D01*
X293271Y370595D01*
X293324Y370622D01*
X293374Y370645D01*
X293413Y370657D01*
X293428Y370664D01*
X293440D01*
X293447Y370668D01*
X293451D01*
X293390Y370699D01*
X293336Y370737D01*
X293294Y370772D01*
X293255Y370806D01*
X293229Y370837D01*
X293205Y370860D01*
X293194Y370876D01*
X293190Y370883D01*
X293159Y370933D01*
X293140Y370987D01*
X293125Y371037D01*
X293113Y371083D01*
X293106Y371121D01*
X293102Y371152D01*
Y371171D01*
Y371179D01*
X293106Y371244D01*
X293117Y371302D01*
X293132Y371356D01*
X293148Y371405D01*
X293163Y371444D01*
X293179Y371475D01*
X293190Y371494D01*
X293194Y371501D01*
X293232Y371555D01*
X293275Y371605D01*
X293321Y371647D01*
X293363Y371682D01*
X293401Y371709D01*
X293432Y371728D01*
X293455Y371740D01*
X293459Y371743D01*
X293463D01*
X293528Y371774D01*
X293593Y371797D01*
X293659Y371813D01*
X293716Y371824D01*
X293766Y371832D01*
X293805Y371835D01*
X293893D01*
X293947Y371828D01*
D02*
G37*
G36*
X299000Y369301D02*
X298666D01*
Y370422D01*
X298236D01*
X298197Y370419D01*
X298167D01*
X298140Y370415D01*
X298121Y370411D01*
X298105D01*
X298098Y370407D01*
X298094D01*
X298036Y370388D01*
X297990Y370365D01*
X297971Y370353D01*
X297955Y370346D01*
X297948Y370342D01*
X297944Y370338D01*
X297913Y370319D01*
X297886Y370292D01*
X297829Y370238D01*
X297810Y370211D01*
X297790Y370188D01*
X297779Y370173D01*
X297775Y370169D01*
X297737Y370119D01*
X297698Y370065D01*
X297656Y370008D01*
X297618Y369950D01*
X297583Y369900D01*
X297556Y369862D01*
X297549Y369846D01*
X297541Y369835D01*
X297533Y369827D01*
Y369823D01*
X297199Y369301D01*
X296780D01*
X297218Y369985D01*
X297268Y370058D01*
X297318Y370123D01*
X297364Y370181D01*
X297406Y370230D01*
X297441Y370269D01*
X297468Y370300D01*
X297487Y370315D01*
X297495Y370323D01*
X297522Y370346D01*
X297556Y370369D01*
X297621Y370411D01*
X297648Y370426D01*
X297671Y370438D01*
X297687Y370445D01*
X297694Y370449D01*
X297629Y370461D01*
X297568Y370472D01*
X297510Y370488D01*
X297460Y370507D01*
X297410Y370526D01*
X297368Y370545D01*
X297326Y370565D01*
X297291Y370584D01*
X297260Y370603D01*
X297234Y370618D01*
X297211Y370637D01*
X297191Y370649D01*
X297180Y370664D01*
X297168Y370672D01*
X297161Y370680D01*
X297130Y370714D01*
X297103Y370753D01*
X297057Y370829D01*
X297026Y370902D01*
X297007Y370975D01*
X296992Y371037D01*
X296988Y371064D01*
Y371087D01*
X296984Y371106D01*
Y371121D01*
Y371129D01*
Y371133D01*
X296988Y371210D01*
X296999Y371279D01*
X297019Y371344D01*
X297038Y371402D01*
X297057Y371448D01*
X297076Y371482D01*
X297088Y371505D01*
X297092Y371513D01*
X297134Y371574D01*
X297180Y371624D01*
X297226Y371667D01*
X297272Y371697D01*
X297310Y371724D01*
X297341Y371743D01*
X297364Y371751D01*
X297368Y371755D01*
X297372D01*
X297406Y371766D01*
X297445Y371778D01*
X297525Y371793D01*
X297610Y371809D01*
X297691Y371816D01*
X297767Y371820D01*
X297798D01*
X297829Y371824D01*
X299000D01*
Y369301D01*
D02*
G37*
G36*
X295905Y362828D02*
X296001Y362809D01*
X296089Y362782D01*
X296162Y362751D01*
X296220Y362717D01*
X296243Y362701D01*
X296262Y362690D01*
X296281Y362678D01*
X296293Y362670D01*
X296297Y362667D01*
X296301Y362663D01*
X296370Y362594D01*
X296423Y362517D01*
X296469Y362436D01*
X296500Y362359D01*
X296527Y362290D01*
X296535Y362260D01*
X296542Y362233D01*
X296546Y362213D01*
X296550Y362198D01*
X296554Y362187D01*
Y362183D01*
X296243Y362129D01*
X296228Y362210D01*
X296204Y362279D01*
X296181Y362336D01*
X296155Y362382D01*
X296131Y362421D01*
X296112Y362448D01*
X296097Y362463D01*
X296093Y362467D01*
X296043Y362505D01*
X295993Y362532D01*
X295943Y362555D01*
X295893Y362567D01*
X295855Y362574D01*
X295820Y362582D01*
X295790D01*
X295725Y362578D01*
X295667Y362563D01*
X295617Y362547D01*
X295575Y362525D01*
X295540Y362505D01*
X295513Y362486D01*
X295498Y362471D01*
X295494Y362467D01*
X295456Y362425D01*
X295429Y362375D01*
X295406Y362329D01*
X295394Y362286D01*
X295387Y362244D01*
X295379Y362213D01*
Y362194D01*
Y362190D01*
Y362187D01*
X295387Y362110D01*
X295406Y362045D01*
X295429Y361991D01*
X295460Y361948D01*
X295490Y361914D01*
X295513Y361887D01*
X295532Y361872D01*
X295540Y361868D01*
X295602Y361833D01*
X295663Y361810D01*
X295721Y361791D01*
X295774Y361779D01*
X295824Y361772D01*
X295859Y361768D01*
X295909D01*
X295924Y361772D01*
X295943D01*
X295978Y361499D01*
X295932Y361511D01*
X295890Y361518D01*
X295851Y361522D01*
X295820Y361526D01*
X295794Y361530D01*
X295759D01*
X295682Y361522D01*
X295617Y361507D01*
X295555Y361488D01*
X295506Y361461D01*
X295463Y361434D01*
X295433Y361415D01*
X295417Y361399D01*
X295410Y361392D01*
X295363Y361338D01*
X295329Y361280D01*
X295302Y361219D01*
X295287Y361165D01*
X295275Y361115D01*
X295271Y361077D01*
X295268Y361061D01*
Y361050D01*
Y361046D01*
Y361042D01*
X295275Y360962D01*
X295291Y360889D01*
X295314Y360823D01*
X295340Y360770D01*
X295371Y360723D01*
X295394Y360693D01*
X295410Y360674D01*
X295417Y360666D01*
X295475Y360616D01*
X295536Y360578D01*
X295598Y360555D01*
X295659Y360535D01*
X295709Y360524D01*
X295747Y360520D01*
X295763Y360516D01*
X295786D01*
X295851Y360520D01*
X295913Y360535D01*
X295966Y360555D01*
X296009Y360574D01*
X296047Y360597D01*
X296074Y360612D01*
X296089Y360628D01*
X296097Y360631D01*
X296139Y360681D01*
X296178Y360739D01*
X296208Y360804D01*
X296231Y360866D01*
X296251Y360923D01*
X296262Y360969D01*
X296270Y360985D01*
Y361000D01*
X296274Y361008D01*
Y361012D01*
X296585Y360969D01*
X296577Y360912D01*
X296565Y360858D01*
X296531Y360758D01*
X296493Y360670D01*
X296446Y360593D01*
X296427Y360562D01*
X296404Y360535D01*
X296385Y360512D01*
X296370Y360489D01*
X296354Y360474D01*
X296343Y360462D01*
X296339Y360459D01*
X296335Y360455D01*
X296293Y360420D01*
X296247Y360389D01*
X296204Y360363D01*
X296158Y360343D01*
X296066Y360305D01*
X295978Y360282D01*
X295939Y360274D01*
X295901Y360270D01*
X295870Y360267D01*
X295840Y360263D01*
X295817Y360259D01*
X295786D01*
X295721Y360263D01*
X295655Y360270D01*
X295594Y360278D01*
X295536Y360293D01*
X295483Y360313D01*
X295433Y360332D01*
X295387Y360351D01*
X295344Y360374D01*
X295310Y360393D01*
X295275Y360413D01*
X295245Y360432D01*
X295221Y360451D01*
X295202Y360466D01*
X295191Y360474D01*
X295183Y360482D01*
X295179Y360485D01*
X295137Y360531D01*
X295099Y360578D01*
X295068Y360624D01*
X295041Y360670D01*
X295014Y360716D01*
X294995Y360766D01*
X294968Y360854D01*
X294956Y360893D01*
X294949Y360931D01*
X294945Y360962D01*
X294941Y360992D01*
X294937Y361015D01*
Y361031D01*
Y361042D01*
Y361046D01*
X294941Y361134D01*
X294956Y361215D01*
X294976Y361284D01*
X294999Y361342D01*
X295026Y361388D01*
X295045Y361422D01*
X295060Y361445D01*
X295064Y361453D01*
X295114Y361511D01*
X295171Y361557D01*
X295229Y361595D01*
X295283Y361622D01*
X295333Y361645D01*
X295371Y361657D01*
X295387Y361664D01*
X295398D01*
X295406Y361668D01*
X295410D01*
X295348Y361699D01*
X295294Y361737D01*
X295252Y361772D01*
X295214Y361806D01*
X295187Y361837D01*
X295164Y361860D01*
X295152Y361876D01*
X295148Y361883D01*
X295118Y361933D01*
X295099Y361987D01*
X295083Y362037D01*
X295072Y362083D01*
X295064Y362121D01*
X295060Y362152D01*
Y362171D01*
Y362179D01*
X295064Y362244D01*
X295075Y362302D01*
X295091Y362355D01*
X295106Y362405D01*
X295122Y362444D01*
X295137Y362475D01*
X295148Y362494D01*
X295152Y362501D01*
X295191Y362555D01*
X295233Y362605D01*
X295279Y362647D01*
X295321Y362682D01*
X295360Y362709D01*
X295390Y362728D01*
X295413Y362739D01*
X295417Y362743D01*
X295421D01*
X295486Y362774D01*
X295552Y362797D01*
X295617Y362812D01*
X295675Y362824D01*
X295725Y362832D01*
X295763Y362836D01*
X295851D01*
X295905Y362828D01*
D02*
G37*
G36*
X299000Y360301D02*
X298666D01*
Y361422D01*
X298236D01*
X298197Y361419D01*
X298167D01*
X298140Y361415D01*
X298121Y361411D01*
X298105D01*
X298098Y361407D01*
X298094D01*
X298036Y361388D01*
X297990Y361365D01*
X297971Y361353D01*
X297955Y361346D01*
X297948Y361342D01*
X297944Y361338D01*
X297913Y361319D01*
X297886Y361292D01*
X297829Y361238D01*
X297810Y361211D01*
X297790Y361188D01*
X297779Y361173D01*
X297775Y361169D01*
X297737Y361119D01*
X297698Y361065D01*
X297656Y361008D01*
X297618Y360950D01*
X297583Y360900D01*
X297556Y360862D01*
X297549Y360846D01*
X297541Y360835D01*
X297533Y360827D01*
Y360823D01*
X297199Y360301D01*
X296780D01*
X297218Y360985D01*
X297268Y361058D01*
X297318Y361123D01*
X297364Y361180D01*
X297406Y361230D01*
X297441Y361269D01*
X297468Y361299D01*
X297487Y361315D01*
X297495Y361323D01*
X297522Y361346D01*
X297556Y361369D01*
X297621Y361411D01*
X297648Y361426D01*
X297671Y361438D01*
X297687Y361445D01*
X297694Y361449D01*
X297629Y361461D01*
X297568Y361472D01*
X297510Y361488D01*
X297460Y361507D01*
X297410Y361526D01*
X297368Y361545D01*
X297326Y361564D01*
X297291Y361584D01*
X297260Y361603D01*
X297234Y361618D01*
X297211Y361637D01*
X297191Y361649D01*
X297180Y361664D01*
X297168Y361672D01*
X297161Y361680D01*
X297130Y361714D01*
X297103Y361753D01*
X297057Y361829D01*
X297026Y361902D01*
X297007Y361975D01*
X296992Y362037D01*
X296988Y362064D01*
Y362087D01*
X296984Y362106D01*
Y362121D01*
Y362129D01*
Y362133D01*
X296988Y362210D01*
X296999Y362279D01*
X297019Y362344D01*
X297038Y362402D01*
X297057Y362448D01*
X297076Y362482D01*
X297088Y362505D01*
X297092Y362513D01*
X297134Y362574D01*
X297180Y362624D01*
X297226Y362667D01*
X297272Y362697D01*
X297310Y362724D01*
X297341Y362743D01*
X297364Y362751D01*
X297368Y362755D01*
X297372D01*
X297406Y362766D01*
X297445Y362778D01*
X297525Y362793D01*
X297610Y362809D01*
X297691Y362816D01*
X297767Y362820D01*
X297798D01*
X297829Y362824D01*
X299000D01*
Y360301D01*
D02*
G37*
G36*
X294734Y361188D02*
Y360904D01*
X293639D01*
Y360301D01*
X293328D01*
Y360904D01*
X292987D01*
Y361188D01*
X293328D01*
Y362820D01*
X293582D01*
X294734Y361188D01*
D02*
G37*
G36*
X295905Y389328D02*
X296001Y389309D01*
X296089Y389282D01*
X296162Y389251D01*
X296220Y389216D01*
X296243Y389201D01*
X296262Y389190D01*
X296281Y389178D01*
X296293Y389170D01*
X296297Y389167D01*
X296301Y389163D01*
X296370Y389094D01*
X296423Y389017D01*
X296469Y388936D01*
X296500Y388859D01*
X296527Y388790D01*
X296535Y388759D01*
X296542Y388733D01*
X296546Y388713D01*
X296550Y388698D01*
X296554Y388687D01*
Y388683D01*
X296243Y388629D01*
X296228Y388710D01*
X296204Y388779D01*
X296181Y388836D01*
X296155Y388882D01*
X296131Y388921D01*
X296112Y388948D01*
X296097Y388963D01*
X296093Y388967D01*
X296043Y389005D01*
X295993Y389032D01*
X295943Y389055D01*
X295893Y389067D01*
X295855Y389074D01*
X295820Y389082D01*
X295790D01*
X295725Y389078D01*
X295667Y389063D01*
X295617Y389048D01*
X295575Y389024D01*
X295540Y389005D01*
X295513Y388986D01*
X295498Y388971D01*
X295494Y388967D01*
X295456Y388925D01*
X295429Y388875D01*
X295406Y388829D01*
X295394Y388786D01*
X295387Y388744D01*
X295379Y388713D01*
Y388694D01*
Y388690D01*
Y388687D01*
X295387Y388610D01*
X295406Y388545D01*
X295429Y388491D01*
X295460Y388449D01*
X295490Y388414D01*
X295513Y388387D01*
X295532Y388372D01*
X295540Y388368D01*
X295602Y388333D01*
X295663Y388310D01*
X295721Y388291D01*
X295774Y388280D01*
X295824Y388272D01*
X295859Y388268D01*
X295909D01*
X295924Y388272D01*
X295943D01*
X295978Y387999D01*
X295932Y388011D01*
X295890Y388018D01*
X295851Y388022D01*
X295820Y388026D01*
X295794Y388030D01*
X295759D01*
X295682Y388022D01*
X295617Y388007D01*
X295555Y387988D01*
X295506Y387961D01*
X295463Y387934D01*
X295433Y387915D01*
X295417Y387899D01*
X295410Y387892D01*
X295363Y387838D01*
X295329Y387780D01*
X295302Y387719D01*
X295287Y387665D01*
X295275Y387615D01*
X295271Y387577D01*
X295268Y387561D01*
Y387550D01*
Y387546D01*
Y387542D01*
X295275Y387462D01*
X295291Y387389D01*
X295314Y387323D01*
X295340Y387270D01*
X295371Y387224D01*
X295394Y387193D01*
X295410Y387174D01*
X295417Y387166D01*
X295475Y387116D01*
X295536Y387078D01*
X295598Y387055D01*
X295659Y387035D01*
X295709Y387024D01*
X295747Y387020D01*
X295763Y387016D01*
X295786D01*
X295851Y387020D01*
X295913Y387035D01*
X295966Y387055D01*
X296009Y387074D01*
X296047Y387097D01*
X296074Y387112D01*
X296089Y387127D01*
X296097Y387131D01*
X296139Y387181D01*
X296178Y387239D01*
X296208Y387304D01*
X296231Y387366D01*
X296251Y387423D01*
X296262Y387469D01*
X296270Y387485D01*
Y387500D01*
X296274Y387508D01*
Y387511D01*
X296585Y387469D01*
X296577Y387412D01*
X296565Y387358D01*
X296531Y387258D01*
X296493Y387170D01*
X296446Y387093D01*
X296427Y387062D01*
X296404Y387035D01*
X296385Y387012D01*
X296370Y386989D01*
X296354Y386974D01*
X296343Y386962D01*
X296339Y386959D01*
X296335Y386955D01*
X296293Y386920D01*
X296247Y386889D01*
X296204Y386863D01*
X296158Y386843D01*
X296066Y386805D01*
X295978Y386782D01*
X295939Y386774D01*
X295901Y386770D01*
X295870Y386767D01*
X295840Y386763D01*
X295817Y386759D01*
X295786D01*
X295721Y386763D01*
X295655Y386770D01*
X295594Y386778D01*
X295536Y386793D01*
X295483Y386813D01*
X295433Y386832D01*
X295387Y386851D01*
X295344Y386874D01*
X295310Y386893D01*
X295275Y386912D01*
X295245Y386932D01*
X295221Y386951D01*
X295202Y386966D01*
X295191Y386974D01*
X295183Y386982D01*
X295179Y386985D01*
X295137Y387032D01*
X295099Y387078D01*
X295068Y387124D01*
X295041Y387170D01*
X295014Y387216D01*
X294995Y387266D01*
X294968Y387354D01*
X294956Y387392D01*
X294949Y387431D01*
X294945Y387462D01*
X294941Y387492D01*
X294937Y387515D01*
Y387531D01*
Y387542D01*
Y387546D01*
X294941Y387634D01*
X294956Y387715D01*
X294976Y387784D01*
X294999Y387842D01*
X295026Y387888D01*
X295045Y387922D01*
X295060Y387945D01*
X295064Y387953D01*
X295114Y388011D01*
X295171Y388057D01*
X295229Y388095D01*
X295283Y388122D01*
X295333Y388145D01*
X295371Y388157D01*
X295387Y388164D01*
X295398D01*
X295406Y388168D01*
X295410D01*
X295348Y388199D01*
X295294Y388237D01*
X295252Y388272D01*
X295214Y388306D01*
X295187Y388337D01*
X295164Y388360D01*
X295152Y388375D01*
X295148Y388383D01*
X295118Y388433D01*
X295099Y388487D01*
X295083Y388537D01*
X295072Y388583D01*
X295064Y388621D01*
X295060Y388652D01*
Y388671D01*
Y388679D01*
X295064Y388744D01*
X295075Y388802D01*
X295091Y388856D01*
X295106Y388905D01*
X295122Y388944D01*
X295137Y388975D01*
X295148Y388994D01*
X295152Y389001D01*
X295191Y389055D01*
X295233Y389105D01*
X295279Y389147D01*
X295321Y389182D01*
X295360Y389209D01*
X295390Y389228D01*
X295413Y389240D01*
X295417Y389243D01*
X295421D01*
X295486Y389274D01*
X295552Y389297D01*
X295617Y389313D01*
X295675Y389324D01*
X295725Y389332D01*
X295763Y389335D01*
X295851D01*
X295905Y389328D01*
D02*
G37*
G36*
X293701Y389274D02*
X293743Y389213D01*
X293789Y389155D01*
X293835Y389101D01*
X293877Y389059D01*
X293912Y389024D01*
X293935Y389001D01*
X293939Y388998D01*
X293943Y388994D01*
X294016Y388932D01*
X294092Y388875D01*
X294169Y388825D01*
X294238Y388783D01*
X294300Y388748D01*
X294327Y388737D01*
X294350Y388725D01*
X294365Y388713D01*
X294380Y388706D01*
X294388Y388702D01*
X294392D01*
Y388399D01*
X294338Y388422D01*
X294281Y388449D01*
X294227Y388472D01*
X294177Y388498D01*
X294135Y388521D01*
X294100Y388541D01*
X294077Y388556D01*
X294073Y388560D01*
X294069D01*
X294004Y388598D01*
X293947Y388640D01*
X293897Y388675D01*
X293854Y388710D01*
X293820Y388737D01*
X293793Y388756D01*
X293778Y388771D01*
X293774Y388775D01*
Y386801D01*
X293463D01*
Y389335D01*
X293666D01*
X293701Y389274D01*
D02*
G37*
G36*
X299000Y386801D02*
X298666D01*
Y387922D01*
X298236D01*
X298197Y387919D01*
X298167D01*
X298140Y387915D01*
X298121Y387911D01*
X298105D01*
X298098Y387907D01*
X298094D01*
X298036Y387888D01*
X297990Y387865D01*
X297971Y387853D01*
X297955Y387846D01*
X297948Y387842D01*
X297944Y387838D01*
X297913Y387819D01*
X297886Y387792D01*
X297829Y387738D01*
X297810Y387711D01*
X297790Y387688D01*
X297779Y387673D01*
X297775Y387669D01*
X297737Y387619D01*
X297698Y387565D01*
X297656Y387508D01*
X297618Y387450D01*
X297583Y387400D01*
X297556Y387362D01*
X297549Y387346D01*
X297541Y387335D01*
X297533Y387327D01*
Y387323D01*
X297199Y386801D01*
X296780D01*
X297218Y387485D01*
X297268Y387558D01*
X297318Y387623D01*
X297364Y387681D01*
X297406Y387730D01*
X297441Y387769D01*
X297468Y387800D01*
X297487Y387815D01*
X297495Y387823D01*
X297522Y387846D01*
X297556Y387869D01*
X297621Y387911D01*
X297648Y387926D01*
X297671Y387938D01*
X297687Y387945D01*
X297694Y387949D01*
X297629Y387961D01*
X297568Y387972D01*
X297510Y387988D01*
X297460Y388007D01*
X297410Y388026D01*
X297368Y388045D01*
X297326Y388065D01*
X297291Y388084D01*
X297260Y388103D01*
X297234Y388118D01*
X297211Y388137D01*
X297191Y388149D01*
X297180Y388164D01*
X297168Y388172D01*
X297161Y388180D01*
X297130Y388214D01*
X297103Y388253D01*
X297057Y388329D01*
X297026Y388402D01*
X297007Y388475D01*
X296992Y388537D01*
X296988Y388564D01*
Y388587D01*
X296984Y388606D01*
Y388621D01*
Y388629D01*
Y388633D01*
X296988Y388710D01*
X296999Y388779D01*
X297019Y388844D01*
X297038Y388902D01*
X297057Y388948D01*
X297076Y388982D01*
X297088Y389005D01*
X297092Y389013D01*
X297134Y389074D01*
X297180Y389124D01*
X297226Y389167D01*
X297272Y389197D01*
X297310Y389224D01*
X297341Y389243D01*
X297364Y389251D01*
X297368Y389255D01*
X297372D01*
X297406Y389266D01*
X297445Y389278D01*
X297525Y389293D01*
X297610Y389309D01*
X297691Y389316D01*
X297767Y389320D01*
X297798D01*
X297829Y389324D01*
X299000D01*
Y386801D01*
D02*
G37*
G36*
X295905Y380828D02*
X296001Y380809D01*
X296089Y380782D01*
X296162Y380751D01*
X296220Y380716D01*
X296243Y380701D01*
X296262Y380690D01*
X296281Y380678D01*
X296293Y380670D01*
X296297Y380667D01*
X296301Y380663D01*
X296370Y380594D01*
X296423Y380517D01*
X296469Y380436D01*
X296500Y380359D01*
X296527Y380290D01*
X296535Y380259D01*
X296542Y380233D01*
X296546Y380213D01*
X296550Y380198D01*
X296554Y380187D01*
Y380183D01*
X296243Y380129D01*
X296228Y380210D01*
X296204Y380279D01*
X296181Y380336D01*
X296155Y380382D01*
X296131Y380421D01*
X296112Y380448D01*
X296097Y380463D01*
X296093Y380467D01*
X296043Y380505D01*
X295993Y380532D01*
X295943Y380555D01*
X295893Y380567D01*
X295855Y380574D01*
X295820Y380582D01*
X295790D01*
X295725Y380578D01*
X295667Y380563D01*
X295617Y380547D01*
X295575Y380524D01*
X295540Y380505D01*
X295513Y380486D01*
X295498Y380471D01*
X295494Y380467D01*
X295456Y380425D01*
X295429Y380375D01*
X295406Y380329D01*
X295394Y380286D01*
X295387Y380244D01*
X295379Y380213D01*
Y380194D01*
Y380190D01*
Y380187D01*
X295387Y380110D01*
X295406Y380045D01*
X295429Y379991D01*
X295460Y379948D01*
X295490Y379914D01*
X295513Y379887D01*
X295532Y379872D01*
X295540Y379868D01*
X295602Y379833D01*
X295663Y379810D01*
X295721Y379791D01*
X295774Y379780D01*
X295824Y379772D01*
X295859Y379768D01*
X295909D01*
X295924Y379772D01*
X295943D01*
X295978Y379499D01*
X295932Y379511D01*
X295890Y379518D01*
X295851Y379522D01*
X295820Y379526D01*
X295794Y379530D01*
X295759D01*
X295682Y379522D01*
X295617Y379507D01*
X295555Y379488D01*
X295506Y379461D01*
X295463Y379434D01*
X295433Y379415D01*
X295417Y379399D01*
X295410Y379392D01*
X295363Y379338D01*
X295329Y379280D01*
X295302Y379219D01*
X295287Y379165D01*
X295275Y379115D01*
X295271Y379077D01*
X295268Y379061D01*
Y379050D01*
Y379046D01*
Y379042D01*
X295275Y378962D01*
X295291Y378889D01*
X295314Y378823D01*
X295340Y378770D01*
X295371Y378724D01*
X295394Y378693D01*
X295410Y378674D01*
X295417Y378666D01*
X295475Y378616D01*
X295536Y378578D01*
X295598Y378555D01*
X295659Y378535D01*
X295709Y378524D01*
X295747Y378520D01*
X295763Y378516D01*
X295786D01*
X295851Y378520D01*
X295913Y378535D01*
X295966Y378555D01*
X296009Y378574D01*
X296047Y378597D01*
X296074Y378612D01*
X296089Y378627D01*
X296097Y378631D01*
X296139Y378681D01*
X296178Y378739D01*
X296208Y378804D01*
X296231Y378866D01*
X296251Y378923D01*
X296262Y378969D01*
X296270Y378985D01*
Y379000D01*
X296274Y379008D01*
Y379012D01*
X296585Y378969D01*
X296577Y378912D01*
X296565Y378858D01*
X296531Y378758D01*
X296493Y378670D01*
X296446Y378593D01*
X296427Y378562D01*
X296404Y378535D01*
X296385Y378512D01*
X296370Y378489D01*
X296354Y378474D01*
X296343Y378462D01*
X296339Y378459D01*
X296335Y378455D01*
X296293Y378420D01*
X296247Y378389D01*
X296204Y378363D01*
X296158Y378343D01*
X296066Y378305D01*
X295978Y378282D01*
X295939Y378274D01*
X295901Y378270D01*
X295870Y378267D01*
X295840Y378263D01*
X295817Y378259D01*
X295786D01*
X295721Y378263D01*
X295655Y378270D01*
X295594Y378278D01*
X295536Y378293D01*
X295483Y378313D01*
X295433Y378332D01*
X295387Y378351D01*
X295344Y378374D01*
X295310Y378393D01*
X295275Y378413D01*
X295245Y378432D01*
X295221Y378451D01*
X295202Y378466D01*
X295191Y378474D01*
X295183Y378482D01*
X295179Y378485D01*
X295137Y378532D01*
X295099Y378578D01*
X295068Y378624D01*
X295041Y378670D01*
X295014Y378716D01*
X294995Y378766D01*
X294968Y378854D01*
X294956Y378892D01*
X294949Y378931D01*
X294945Y378962D01*
X294941Y378992D01*
X294937Y379015D01*
Y379031D01*
Y379042D01*
Y379046D01*
X294941Y379134D01*
X294956Y379215D01*
X294976Y379284D01*
X294999Y379342D01*
X295026Y379388D01*
X295045Y379422D01*
X295060Y379445D01*
X295064Y379453D01*
X295114Y379511D01*
X295171Y379557D01*
X295229Y379595D01*
X295283Y379622D01*
X295333Y379645D01*
X295371Y379657D01*
X295387Y379664D01*
X295398D01*
X295406Y379668D01*
X295410D01*
X295348Y379699D01*
X295294Y379737D01*
X295252Y379772D01*
X295214Y379806D01*
X295187Y379837D01*
X295164Y379860D01*
X295152Y379875D01*
X295148Y379883D01*
X295118Y379933D01*
X295099Y379987D01*
X295083Y380037D01*
X295072Y380083D01*
X295064Y380121D01*
X295060Y380152D01*
Y380171D01*
Y380179D01*
X295064Y380244D01*
X295075Y380302D01*
X295091Y380356D01*
X295106Y380405D01*
X295122Y380444D01*
X295137Y380475D01*
X295148Y380494D01*
X295152Y380501D01*
X295191Y380555D01*
X295233Y380605D01*
X295279Y380647D01*
X295321Y380682D01*
X295360Y380709D01*
X295390Y380728D01*
X295413Y380739D01*
X295417Y380743D01*
X295421D01*
X295486Y380774D01*
X295552Y380797D01*
X295617Y380813D01*
X295675Y380824D01*
X295725Y380832D01*
X295763Y380836D01*
X295851D01*
X295905Y380828D01*
D02*
G37*
G36*
X293862Y380832D02*
X293923Y380828D01*
X294039Y380805D01*
X294089Y380793D01*
X294139Y380778D01*
X294181Y380759D01*
X294219Y380743D01*
X294254Y380724D01*
X294285Y380709D01*
X294311Y380690D01*
X294334Y380678D01*
X294350Y380667D01*
X294361Y380655D01*
X294369Y380651D01*
X294373Y380647D01*
X294411Y380609D01*
X294442Y380571D01*
X294499Y380482D01*
X294542Y380394D01*
X294572Y380306D01*
X294596Y380229D01*
X294599Y380194D01*
X294607Y380164D01*
X294611Y380140D01*
X294615Y380121D01*
Y380110D01*
Y380106D01*
X294296Y380071D01*
X294288Y380156D01*
X294273Y380229D01*
X294254Y380290D01*
X294227Y380344D01*
X294204Y380386D01*
X294181Y380417D01*
X294165Y380432D01*
X294162Y380440D01*
X294108Y380486D01*
X294050Y380521D01*
X293989Y380544D01*
X293931Y380563D01*
X293881Y380571D01*
X293843Y380574D01*
X293828Y380578D01*
X293805D01*
X293728Y380574D01*
X293659Y380559D01*
X293601Y380540D01*
X293551Y380517D01*
X293513Y380490D01*
X293482Y380471D01*
X293467Y380455D01*
X293459Y380451D01*
X293413Y380402D01*
X293382Y380348D01*
X293359Y380298D01*
X293340Y380248D01*
X293332Y380206D01*
X293328Y380171D01*
X293324Y380148D01*
Y380144D01*
Y380140D01*
X293332Y380075D01*
X293348Y380006D01*
X293371Y379945D01*
X293397Y379887D01*
X293424Y379837D01*
X293447Y379799D01*
X293455Y379783D01*
X293463Y379772D01*
X293470Y379768D01*
Y379764D01*
X293501Y379726D01*
X293536Y379683D01*
X293574Y379641D01*
X293620Y379599D01*
X293712Y379511D01*
X293805Y379422D01*
X293889Y379349D01*
X293927Y379315D01*
X293962Y379288D01*
X293989Y379261D01*
X294008Y379246D01*
X294023Y379234D01*
X294027Y379230D01*
X294119Y379150D01*
X294204Y379077D01*
X294273Y379012D01*
X294331Y378958D01*
X294377Y378912D01*
X294407Y378877D01*
X294427Y378854D01*
X294434Y378850D01*
Y378846D01*
X294484Y378785D01*
X294523Y378727D01*
X294561Y378670D01*
X294588Y378620D01*
X294611Y378574D01*
X294626Y378543D01*
X294634Y378520D01*
X294638Y378516D01*
Y378512D01*
X294649Y378474D01*
X294661Y378435D01*
X294665Y378401D01*
X294669Y378370D01*
X294672Y378343D01*
Y378320D01*
Y378305D01*
Y378301D01*
X293002D01*
Y378597D01*
X294242D01*
X294200Y378658D01*
X294158Y378708D01*
X294139Y378731D01*
X294123Y378747D01*
X294115Y378758D01*
X294112Y378762D01*
X294092Y378781D01*
X294073Y378800D01*
X294023Y378846D01*
X293962Y378900D01*
X293904Y378954D01*
X293847Y379004D01*
X293801Y379042D01*
X293781Y379058D01*
X293766Y379069D01*
X293758Y379077D01*
X293755Y379081D01*
X293693Y379134D01*
X293639Y379181D01*
X293586Y379227D01*
X293540Y379269D01*
X293497Y379311D01*
X293459Y379346D01*
X293421Y379380D01*
X293390Y379411D01*
X293363Y379438D01*
X293340Y379461D01*
X293305Y379495D01*
X293286Y379518D01*
X293278Y379526D01*
X293229Y379588D01*
X293182Y379641D01*
X293148Y379695D01*
X293121Y379741D01*
X293098Y379780D01*
X293083Y379806D01*
X293075Y379826D01*
X293071Y379833D01*
X293048Y379887D01*
X293033Y379941D01*
X293021Y379991D01*
X293013Y380037D01*
X293010Y380075D01*
X293006Y380106D01*
Y380125D01*
Y380133D01*
X293010Y380187D01*
X293013Y380240D01*
X293040Y380336D01*
X293075Y380421D01*
X293113Y380494D01*
X293152Y380551D01*
X293171Y380574D01*
X293186Y380597D01*
X293202Y380613D01*
X293213Y380624D01*
X293217Y380628D01*
X293221Y380632D01*
X293263Y380667D01*
X293305Y380701D01*
X293351Y380728D01*
X293401Y380751D01*
X293497Y380786D01*
X293589Y380809D01*
X293632Y380820D01*
X293670Y380824D01*
X293705Y380828D01*
X293735Y380832D01*
X293762Y380836D01*
X293797D01*
X293862Y380832D01*
D02*
G37*
G36*
X299000Y378301D02*
X298666D01*
Y379422D01*
X298236D01*
X298197Y379419D01*
X298167D01*
X298140Y379415D01*
X298121Y379411D01*
X298105D01*
X298098Y379407D01*
X298094D01*
X298036Y379388D01*
X297990Y379365D01*
X297971Y379353D01*
X297955Y379346D01*
X297948Y379342D01*
X297944Y379338D01*
X297913Y379319D01*
X297886Y379292D01*
X297829Y379238D01*
X297810Y379211D01*
X297790Y379188D01*
X297779Y379173D01*
X297775Y379169D01*
X297737Y379119D01*
X297698Y379065D01*
X297656Y379008D01*
X297618Y378950D01*
X297583Y378900D01*
X297556Y378862D01*
X297549Y378846D01*
X297541Y378835D01*
X297533Y378827D01*
Y378823D01*
X297199Y378301D01*
X296780D01*
X297218Y378985D01*
X297268Y379058D01*
X297318Y379123D01*
X297364Y379181D01*
X297406Y379230D01*
X297441Y379269D01*
X297468Y379299D01*
X297487Y379315D01*
X297495Y379323D01*
X297522Y379346D01*
X297556Y379369D01*
X297621Y379411D01*
X297648Y379426D01*
X297671Y379438D01*
X297687Y379445D01*
X297694Y379449D01*
X297629Y379461D01*
X297568Y379472D01*
X297510Y379488D01*
X297460Y379507D01*
X297410Y379526D01*
X297368Y379545D01*
X297326Y379564D01*
X297291Y379584D01*
X297260Y379603D01*
X297234Y379618D01*
X297211Y379637D01*
X297191Y379649D01*
X297180Y379664D01*
X297168Y379672D01*
X297161Y379680D01*
X297130Y379714D01*
X297103Y379753D01*
X297057Y379829D01*
X297026Y379902D01*
X297007Y379975D01*
X296992Y380037D01*
X296988Y380064D01*
Y380087D01*
X296984Y380106D01*
Y380121D01*
Y380129D01*
Y380133D01*
X296988Y380210D01*
X296999Y380279D01*
X297019Y380344D01*
X297038Y380402D01*
X297057Y380448D01*
X297076Y380482D01*
X297088Y380505D01*
X297092Y380513D01*
X297134Y380574D01*
X297180Y380624D01*
X297226Y380667D01*
X297272Y380697D01*
X297310Y380724D01*
X297341Y380743D01*
X297364Y380751D01*
X297368Y380755D01*
X297372D01*
X297406Y380766D01*
X297445Y380778D01*
X297525Y380793D01*
X297610Y380809D01*
X297691Y380816D01*
X297767Y380820D01*
X297798D01*
X297829Y380824D01*
X299000D01*
Y378301D01*
D02*
G37*
%LPC*%
G36*
X298666Y272501D02*
X297871D01*
X297771Y272498D01*
X297687Y272482D01*
X297618Y272467D01*
X297560Y272444D01*
X297518Y272425D01*
X297483Y272405D01*
X297468Y272390D01*
X297460Y272386D01*
X297418Y272340D01*
X297383Y272290D01*
X297360Y272240D01*
X297345Y272194D01*
X297337Y272152D01*
X297330Y272121D01*
Y272098D01*
Y272094D01*
Y272091D01*
X297333Y272044D01*
X297341Y272002D01*
X297353Y271964D01*
X297364Y271933D01*
X297376Y271902D01*
X297387Y271883D01*
X297395Y271868D01*
X297399Y271864D01*
X297426Y271829D01*
X297456Y271799D01*
X297491Y271772D01*
X297522Y271749D01*
X297549Y271733D01*
X297571Y271722D01*
X297587Y271718D01*
X297595Y271714D01*
X297644Y271699D01*
X297702Y271687D01*
X297763Y271680D01*
X297821Y271676D01*
X297871Y271672D01*
X297913Y271668D01*
X298666D01*
Y272501D01*
D02*
G37*
G36*
X295598Y272275D02*
Y271146D01*
X296389D01*
X295598Y272275D01*
D02*
G37*
G36*
X293639D02*
Y271146D01*
X294430D01*
X293639Y272275D01*
D02*
G37*
G36*
X298666Y281544D02*
X297871D01*
X297771Y281540D01*
X297687Y281524D01*
X297618Y281509D01*
X297560Y281486D01*
X297518Y281467D01*
X297483Y281448D01*
X297468Y281432D01*
X297460Y281429D01*
X297418Y281382D01*
X297383Y281332D01*
X297360Y281283D01*
X297345Y281237D01*
X297337Y281194D01*
X297330Y281164D01*
Y281140D01*
Y281137D01*
Y281133D01*
X297333Y281087D01*
X297341Y281045D01*
X297353Y281006D01*
X297364Y280975D01*
X297376Y280945D01*
X297387Y280925D01*
X297395Y280910D01*
X297399Y280906D01*
X297426Y280872D01*
X297456Y280841D01*
X297491Y280814D01*
X297522Y280791D01*
X297549Y280776D01*
X297571Y280764D01*
X297587Y280760D01*
X297595Y280756D01*
X297644Y280741D01*
X297702Y280730D01*
X297763Y280722D01*
X297821Y280718D01*
X297871Y280714D01*
X297913Y280710D01*
X298666D01*
Y281544D01*
D02*
G37*
G36*
X295598Y281317D02*
Y280188D01*
X296389D01*
X295598Y281317D01*
D02*
G37*
G36*
X298666Y290501D02*
X297871D01*
X297771Y290498D01*
X297687Y290482D01*
X297618Y290467D01*
X297560Y290444D01*
X297518Y290425D01*
X297483Y290405D01*
X297468Y290390D01*
X297460Y290386D01*
X297418Y290340D01*
X297383Y290290D01*
X297360Y290240D01*
X297345Y290194D01*
X297337Y290152D01*
X297330Y290121D01*
Y290098D01*
Y290094D01*
Y290091D01*
X297333Y290044D01*
X297341Y290002D01*
X297353Y289964D01*
X297364Y289933D01*
X297376Y289902D01*
X297387Y289883D01*
X297395Y289868D01*
X297399Y289864D01*
X297426Y289829D01*
X297456Y289799D01*
X297491Y289772D01*
X297522Y289749D01*
X297549Y289733D01*
X297571Y289722D01*
X297587Y289718D01*
X297595Y289714D01*
X297644Y289699D01*
X297702Y289687D01*
X297763Y289680D01*
X297821Y289676D01*
X297871Y289672D01*
X297913Y289668D01*
X298666D01*
Y290501D01*
D02*
G37*
G36*
X295598Y290275D02*
Y289146D01*
X296389D01*
X295598Y290275D01*
D02*
G37*
G36*
X298666Y299001D02*
X297871D01*
X297771Y298998D01*
X297687Y298982D01*
X297618Y298967D01*
X297560Y298944D01*
X297518Y298925D01*
X297483Y298905D01*
X297468Y298890D01*
X297460Y298886D01*
X297418Y298840D01*
X297383Y298790D01*
X297360Y298740D01*
X297345Y298694D01*
X297337Y298652D01*
X297330Y298621D01*
Y298598D01*
Y298594D01*
Y298591D01*
X297333Y298545D01*
X297341Y298502D01*
X297353Y298464D01*
X297364Y298433D01*
X297376Y298402D01*
X297387Y298383D01*
X297395Y298368D01*
X297399Y298364D01*
X297426Y298329D01*
X297456Y298299D01*
X297491Y298272D01*
X297522Y298249D01*
X297549Y298233D01*
X297571Y298222D01*
X297587Y298218D01*
X297595Y298214D01*
X297644Y298199D01*
X297702Y298187D01*
X297763Y298180D01*
X297821Y298176D01*
X297871Y298172D01*
X297913Y298168D01*
X298666D01*
Y299001D01*
D02*
G37*
G36*
X295598Y298775D02*
Y297646D01*
X296389D01*
X295598Y298775D01*
D02*
G37*
G36*
X298666Y308544D02*
X297871D01*
X297771Y308540D01*
X297687Y308524D01*
X297618Y308509D01*
X297560Y308486D01*
X297518Y308467D01*
X297483Y308448D01*
X297468Y308432D01*
X297460Y308429D01*
X297418Y308382D01*
X297383Y308332D01*
X297360Y308283D01*
X297345Y308237D01*
X297337Y308194D01*
X297330Y308163D01*
Y308140D01*
Y308137D01*
Y308133D01*
X297333Y308087D01*
X297341Y308045D01*
X297353Y308006D01*
X297364Y307975D01*
X297376Y307945D01*
X297387Y307925D01*
X297395Y307910D01*
X297399Y307906D01*
X297426Y307872D01*
X297456Y307841D01*
X297491Y307814D01*
X297522Y307791D01*
X297549Y307776D01*
X297571Y307764D01*
X297587Y307760D01*
X297595Y307756D01*
X297644Y307741D01*
X297702Y307730D01*
X297763Y307722D01*
X297821Y307718D01*
X297871Y307714D01*
X297913Y307710D01*
X298666D01*
Y308544D01*
D02*
G37*
G36*
X295598Y308317D02*
Y307188D01*
X296389D01*
X295598Y308317D01*
D02*
G37*
G36*
X293831Y308578D02*
X293812D01*
X293774Y308574D01*
X293735Y308571D01*
X293666Y308547D01*
X293605Y308513D01*
X293551Y308475D01*
X293509Y308436D01*
X293478Y308402D01*
X293459Y308379D01*
X293451Y308375D01*
Y308371D01*
X293424Y308329D01*
X293401Y308279D01*
X293382Y308221D01*
X293367Y308156D01*
X293340Y308021D01*
X293324Y307883D01*
X293317Y307814D01*
X293313Y307753D01*
X293309Y307695D01*
Y307645D01*
X293305Y307603D01*
Y307572D01*
Y307553D01*
Y307545D01*
Y307434D01*
X293313Y307330D01*
X293317Y307238D01*
X293328Y307154D01*
X293340Y307077D01*
X293351Y307008D01*
X293363Y306950D01*
X293378Y306896D01*
X293394Y306854D01*
X293405Y306816D01*
X293417Y306781D01*
X293428Y306758D01*
X293436Y306739D01*
X293443Y306727D01*
X293451Y306720D01*
Y306716D01*
X293478Y306681D01*
X293509Y306651D01*
X293540Y306620D01*
X293570Y306597D01*
X293628Y306562D01*
X293685Y306539D01*
X293735Y306524D01*
X293774Y306516D01*
X293789Y306512D01*
X293808D01*
X293847Y306516D01*
X293885Y306520D01*
X293954Y306543D01*
X294016Y306578D01*
X294069Y306616D01*
X294112Y306651D01*
X294142Y306685D01*
X294162Y306708D01*
X294169Y306712D01*
Y306716D01*
X294192Y306758D01*
X294215Y306812D01*
X294235Y306869D01*
X294250Y306931D01*
X294277Y307069D01*
X294292Y307207D01*
X294300Y307273D01*
X294304Y307338D01*
X294307Y307396D01*
Y307445D01*
X294311Y307488D01*
Y307518D01*
Y307538D01*
Y307545D01*
Y307657D01*
X294304Y307760D01*
X294296Y307853D01*
X294288Y307937D01*
X294273Y308018D01*
X294261Y308087D01*
X294246Y308148D01*
X294231Y308202D01*
X294219Y308248D01*
X294204Y308290D01*
X294188Y308321D01*
X294177Y308348D01*
X294169Y308367D01*
X294162Y308382D01*
X294154Y308390D01*
Y308394D01*
X294131Y308425D01*
X294104Y308455D01*
X294046Y308501D01*
X293989Y308532D01*
X293935Y308555D01*
X293885Y308571D01*
X293847Y308574D01*
X293831Y308578D01*
D02*
G37*
G36*
X293820Y317578D02*
X293801D01*
X293728Y317571D01*
X293662Y317555D01*
X293605Y317528D01*
X293555Y317501D01*
X293513Y317471D01*
X293486Y317444D01*
X293467Y317428D01*
X293459Y317421D01*
X293413Y317355D01*
X293378Y317286D01*
X293351Y317217D01*
X293336Y317148D01*
X293324Y317087D01*
X293321Y317064D01*
Y317041D01*
X293317Y317021D01*
Y317006D01*
Y316998D01*
Y316995D01*
X293324Y316902D01*
X293340Y316818D01*
X293363Y316749D01*
X293386Y316687D01*
X293413Y316641D01*
X293436Y316607D01*
X293451Y316587D01*
X293459Y316580D01*
X293513Y316530D01*
X293570Y316492D01*
X293632Y316469D01*
X293685Y316449D01*
X293735Y316438D01*
X293774Y316434D01*
X293789Y316430D01*
X293808D01*
X293885Y316438D01*
X293954Y316453D01*
X294016Y316476D01*
X294069Y316507D01*
X294112Y316534D01*
X294142Y316557D01*
X294162Y316572D01*
X294169Y316580D01*
X294215Y316641D01*
X294250Y316703D01*
X294277Y316768D01*
X294292Y316833D01*
X294304Y316887D01*
X294307Y316933D01*
X294311Y316949D01*
Y316960D01*
Y316968D01*
Y316971D01*
X294304Y317068D01*
X294288Y317152D01*
X294265Y317229D01*
X294235Y317290D01*
X294208Y317340D01*
X294185Y317379D01*
X294169Y317402D01*
X294162Y317409D01*
X294131Y317440D01*
X294100Y317467D01*
X294039Y317505D01*
X293981Y317536D01*
X293923Y317559D01*
X293874Y317571D01*
X293835Y317574D01*
X293820Y317578D01*
D02*
G37*
G36*
X298666Y317544D02*
X297871D01*
X297771Y317540D01*
X297687Y317525D01*
X297618Y317509D01*
X297560Y317486D01*
X297518Y317467D01*
X297483Y317448D01*
X297468Y317432D01*
X297460Y317428D01*
X297418Y317382D01*
X297383Y317333D01*
X297360Y317283D01*
X297345Y317236D01*
X297337Y317194D01*
X297330Y317163D01*
Y317141D01*
Y317137D01*
Y317133D01*
X297333Y317087D01*
X297341Y317044D01*
X297353Y317006D01*
X297364Y316975D01*
X297376Y316945D01*
X297387Y316925D01*
X297395Y316910D01*
X297399Y316906D01*
X297426Y316872D01*
X297456Y316841D01*
X297491Y316814D01*
X297522Y316791D01*
X297549Y316776D01*
X297571Y316764D01*
X297587Y316760D01*
X297595Y316757D01*
X297644Y316741D01*
X297702Y316730D01*
X297763Y316722D01*
X297821Y316718D01*
X297871Y316714D01*
X297913Y316710D01*
X298666D01*
Y317544D01*
D02*
G37*
G36*
Y326544D02*
X297871D01*
X297771Y326540D01*
X297687Y326524D01*
X297618Y326509D01*
X297560Y326486D01*
X297518Y326467D01*
X297483Y326448D01*
X297468Y326432D01*
X297460Y326429D01*
X297418Y326382D01*
X297383Y326332D01*
X297360Y326283D01*
X297345Y326237D01*
X297337Y326194D01*
X297330Y326164D01*
Y326140D01*
Y326137D01*
Y326133D01*
X297333Y326087D01*
X297341Y326045D01*
X297353Y326006D01*
X297364Y325975D01*
X297376Y325945D01*
X297387Y325925D01*
X297395Y325910D01*
X297399Y325906D01*
X297426Y325872D01*
X297456Y325841D01*
X297491Y325814D01*
X297522Y325791D01*
X297549Y325776D01*
X297571Y325764D01*
X297587Y325760D01*
X297595Y325757D01*
X297644Y325741D01*
X297702Y325730D01*
X297763Y325722D01*
X297821Y325718D01*
X297871Y325714D01*
X297913Y325710D01*
X298666D01*
Y326544D01*
D02*
G37*
G36*
X293835Y326582D02*
X293805D01*
X293739Y326578D01*
X293685Y326563D01*
X293636Y326544D01*
X293593Y326524D01*
X293559Y326501D01*
X293532Y326482D01*
X293516Y326467D01*
X293513Y326463D01*
X293474Y326417D01*
X293443Y326371D01*
X293424Y326321D01*
X293409Y326279D01*
X293401Y326240D01*
X293394Y326206D01*
Y326187D01*
Y326183D01*
Y326179D01*
X293397Y326121D01*
X293413Y326067D01*
X293428Y326018D01*
X293451Y325979D01*
X293470Y325945D01*
X293490Y325922D01*
X293505Y325906D01*
X293509Y325902D01*
X293555Y325864D01*
X293605Y325837D01*
X293655Y325818D01*
X293701Y325806D01*
X293743Y325799D01*
X293774Y325791D01*
X293805D01*
X293870Y325795D01*
X293927Y325810D01*
X293981Y325826D01*
X294023Y325849D01*
X294058Y325868D01*
X294085Y325887D01*
X294100Y325899D01*
X294104Y325902D01*
X294142Y325949D01*
X294169Y325998D01*
X294188Y326045D01*
X294200Y326091D01*
X294208Y326133D01*
X294215Y326164D01*
Y326187D01*
Y326194D01*
X294212Y326252D01*
X294196Y326302D01*
X294177Y326352D01*
X294158Y326390D01*
X294135Y326421D01*
X294119Y326448D01*
X294104Y326463D01*
X294100Y326467D01*
X294054Y326505D01*
X294004Y326532D01*
X293954Y326555D01*
X293908Y326567D01*
X293866Y326574D01*
X293835Y326582D01*
D02*
G37*
G36*
X293831Y325538D02*
X293812D01*
X293731Y325530D01*
X293659Y325515D01*
X293593Y325491D01*
X293540Y325465D01*
X293497Y325434D01*
X293467Y325411D01*
X293447Y325395D01*
X293440Y325388D01*
X293390Y325330D01*
X293351Y325269D01*
X293324Y325207D01*
X293309Y325150D01*
X293298Y325096D01*
X293294Y325058D01*
X293290Y325042D01*
Y325031D01*
Y325023D01*
Y325019D01*
X293298Y324939D01*
X293313Y324869D01*
X293336Y324804D01*
X293363Y324754D01*
X293390Y324712D01*
X293413Y324681D01*
X293428Y324662D01*
X293436Y324654D01*
X293493Y324608D01*
X293551Y324574D01*
X293613Y324547D01*
X293670Y324532D01*
X293724Y324520D01*
X293762Y324516D01*
X293778Y324512D01*
X293801D01*
X293854Y324516D01*
X293904Y324524D01*
X293947Y324532D01*
X293989Y324547D01*
X294023Y324558D01*
X294046Y324566D01*
X294062Y324574D01*
X294069Y324578D01*
X294112Y324605D01*
X294150Y324635D01*
X294181Y324670D01*
X294208Y324700D01*
X294227Y324727D01*
X294242Y324750D01*
X294250Y324766D01*
X294254Y324770D01*
X294273Y324816D01*
X294288Y324862D01*
X294300Y324908D01*
X294307Y324946D01*
X294311Y324981D01*
X294315Y325004D01*
Y325023D01*
Y325027D01*
X294307Y325104D01*
X294292Y325177D01*
X294269Y325238D01*
X294242Y325292D01*
X294219Y325334D01*
X294196Y325365D01*
X294181Y325384D01*
X294173Y325392D01*
X294115Y325442D01*
X294058Y325476D01*
X293997Y325503D01*
X293939Y325518D01*
X293889Y325530D01*
X293847Y325534D01*
X293831Y325538D01*
D02*
G37*
G36*
X298666Y335044D02*
X297871D01*
X297771Y335040D01*
X297687Y335024D01*
X297618Y335009D01*
X297560Y334986D01*
X297518Y334967D01*
X297483Y334948D01*
X297468Y334932D01*
X297460Y334928D01*
X297418Y334882D01*
X297383Y334833D01*
X297360Y334783D01*
X297345Y334736D01*
X297337Y334694D01*
X297330Y334664D01*
Y334641D01*
Y334637D01*
Y334633D01*
X297333Y334587D01*
X297341Y334544D01*
X297353Y334506D01*
X297364Y334475D01*
X297376Y334445D01*
X297387Y334425D01*
X297395Y334410D01*
X297399Y334406D01*
X297426Y334372D01*
X297456Y334341D01*
X297491Y334314D01*
X297522Y334291D01*
X297549Y334276D01*
X297571Y334264D01*
X297587Y334260D01*
X297595Y334257D01*
X297644Y334241D01*
X297702Y334230D01*
X297763Y334222D01*
X297821Y334218D01*
X297871Y334214D01*
X297913Y334210D01*
X298666D01*
Y335044D01*
D02*
G37*
G36*
X293808Y343664D02*
X293789D01*
X293712Y343657D01*
X293643Y343641D01*
X293582Y343614D01*
X293532Y343587D01*
X293490Y343561D01*
X293459Y343534D01*
X293443Y343518D01*
X293436Y343511D01*
X293390Y343449D01*
X293355Y343384D01*
X293332Y343315D01*
X293313Y343250D01*
X293305Y343192D01*
X293301Y343165D01*
Y343142D01*
X293298Y343127D01*
Y343111D01*
Y343104D01*
Y343100D01*
X293305Y343004D01*
X293321Y342919D01*
X293344Y342843D01*
X293367Y342781D01*
X293394Y342735D01*
X293417Y342701D01*
X293432Y342677D01*
X293440Y342670D01*
X293493Y342616D01*
X293551Y342578D01*
X293609Y342551D01*
X293659Y342531D01*
X293708Y342520D01*
X293743Y342516D01*
X293758Y342512D01*
X293778D01*
X293828Y342516D01*
X293874Y342524D01*
X293920Y342535D01*
X293958Y342551D01*
X293989Y342562D01*
X294012Y342574D01*
X294031Y342581D01*
X294035Y342585D01*
X294077Y342616D01*
X294115Y342654D01*
X294146Y342689D01*
X294173Y342727D01*
X294196Y342758D01*
X294212Y342785D01*
X294219Y342800D01*
X294223Y342808D01*
X294246Y342866D01*
X294261Y342919D01*
X294273Y342969D01*
X294281Y343019D01*
X294285Y343058D01*
X294288Y343088D01*
Y343108D01*
Y343115D01*
X294281Y343203D01*
X294265Y343280D01*
X294242Y343349D01*
X294215Y343407D01*
X294188Y343449D01*
X294165Y343484D01*
X294150Y343503D01*
X294142Y343511D01*
X294085Y343561D01*
X294027Y343599D01*
X293966Y343626D01*
X293912Y343645D01*
X293862Y343657D01*
X293824Y343660D01*
X293808Y343664D01*
D02*
G37*
G36*
X298666Y344544D02*
X297871D01*
X297771Y344540D01*
X297687Y344525D01*
X297618Y344509D01*
X297560Y344486D01*
X297518Y344467D01*
X297483Y344448D01*
X297468Y344432D01*
X297460Y344428D01*
X297418Y344382D01*
X297383Y344333D01*
X297360Y344283D01*
X297345Y344236D01*
X297337Y344194D01*
X297330Y344163D01*
Y344141D01*
Y344137D01*
Y344133D01*
X297333Y344087D01*
X297341Y344044D01*
X297353Y344006D01*
X297364Y343975D01*
X297376Y343945D01*
X297387Y343925D01*
X297395Y343910D01*
X297399Y343906D01*
X297426Y343872D01*
X297456Y343841D01*
X297491Y343814D01*
X297522Y343791D01*
X297549Y343776D01*
X297571Y343764D01*
X297587Y343760D01*
X297595Y343757D01*
X297644Y343741D01*
X297702Y343730D01*
X297763Y343722D01*
X297821Y343718D01*
X297871Y343714D01*
X297913Y343710D01*
X298666D01*
Y344544D01*
D02*
G37*
G36*
Y353544D02*
X297871D01*
X297771Y353540D01*
X297687Y353524D01*
X297618Y353509D01*
X297560Y353486D01*
X297518Y353467D01*
X297483Y353448D01*
X297468Y353432D01*
X297460Y353429D01*
X297418Y353382D01*
X297383Y353332D01*
X297360Y353283D01*
X297345Y353237D01*
X297337Y353194D01*
X297330Y353164D01*
Y353140D01*
Y353137D01*
Y353133D01*
X297333Y353087D01*
X297341Y353045D01*
X297353Y353006D01*
X297364Y352975D01*
X297376Y352945D01*
X297387Y352925D01*
X297395Y352910D01*
X297399Y352906D01*
X297426Y352872D01*
X297456Y352841D01*
X297491Y352814D01*
X297522Y352791D01*
X297549Y352776D01*
X297571Y352764D01*
X297587Y352760D01*
X297595Y352757D01*
X297644Y352741D01*
X297702Y352730D01*
X297763Y352722D01*
X297821Y352718D01*
X297871Y352714D01*
X297913Y352710D01*
X298666D01*
Y353544D01*
D02*
G37*
G36*
Y371544D02*
X297871D01*
X297771Y371540D01*
X297687Y371525D01*
X297618Y371509D01*
X297560Y371486D01*
X297518Y371467D01*
X297483Y371448D01*
X297468Y371432D01*
X297460Y371428D01*
X297418Y371382D01*
X297383Y371333D01*
X297360Y371283D01*
X297345Y371236D01*
X297337Y371194D01*
X297330Y371164D01*
Y371141D01*
Y371137D01*
Y371133D01*
X297333Y371087D01*
X297341Y371044D01*
X297353Y371006D01*
X297364Y370975D01*
X297376Y370945D01*
X297387Y370925D01*
X297395Y370910D01*
X297399Y370906D01*
X297426Y370872D01*
X297456Y370841D01*
X297491Y370814D01*
X297522Y370791D01*
X297549Y370776D01*
X297571Y370764D01*
X297587Y370760D01*
X297595Y370757D01*
X297644Y370741D01*
X297702Y370730D01*
X297763Y370722D01*
X297821Y370718D01*
X297871Y370714D01*
X297913Y370710D01*
X298666D01*
Y371544D01*
D02*
G37*
G36*
Y362544D02*
X297871D01*
X297771Y362540D01*
X297687Y362525D01*
X297618Y362509D01*
X297560Y362486D01*
X297518Y362467D01*
X297483Y362448D01*
X297468Y362432D01*
X297460Y362428D01*
X297418Y362382D01*
X297383Y362333D01*
X297360Y362283D01*
X297345Y362236D01*
X297337Y362194D01*
X297330Y362163D01*
Y362140D01*
Y362137D01*
Y362133D01*
X297333Y362087D01*
X297341Y362045D01*
X297353Y362006D01*
X297364Y361975D01*
X297376Y361945D01*
X297387Y361925D01*
X297395Y361910D01*
X297399Y361906D01*
X297426Y361872D01*
X297456Y361841D01*
X297491Y361814D01*
X297522Y361791D01*
X297549Y361776D01*
X297571Y361764D01*
X297587Y361760D01*
X297595Y361756D01*
X297644Y361741D01*
X297702Y361730D01*
X297763Y361722D01*
X297821Y361718D01*
X297871Y361714D01*
X297913Y361710D01*
X298666D01*
Y362544D01*
D02*
G37*
G36*
X293639Y362317D02*
Y361188D01*
X294430D01*
X293639Y362317D01*
D02*
G37*
G36*
X298666Y389044D02*
X297871D01*
X297771Y389040D01*
X297687Y389024D01*
X297618Y389009D01*
X297560Y388986D01*
X297518Y388967D01*
X297483Y388948D01*
X297468Y388932D01*
X297460Y388929D01*
X297418Y388882D01*
X297383Y388832D01*
X297360Y388783D01*
X297345Y388737D01*
X297337Y388694D01*
X297330Y388664D01*
Y388640D01*
Y388637D01*
Y388633D01*
X297333Y388587D01*
X297341Y388545D01*
X297353Y388506D01*
X297364Y388475D01*
X297376Y388445D01*
X297387Y388425D01*
X297395Y388410D01*
X297399Y388406D01*
X297426Y388372D01*
X297456Y388341D01*
X297491Y388314D01*
X297522Y388291D01*
X297549Y388276D01*
X297571Y388264D01*
X297587Y388260D01*
X297595Y388257D01*
X297644Y388241D01*
X297702Y388230D01*
X297763Y388222D01*
X297821Y388218D01*
X297871Y388214D01*
X297913Y388210D01*
X298666D01*
Y389044D01*
D02*
G37*
G36*
Y380544D02*
X297871D01*
X297771Y380540D01*
X297687Y380524D01*
X297618Y380509D01*
X297560Y380486D01*
X297518Y380467D01*
X297483Y380448D01*
X297468Y380432D01*
X297460Y380429D01*
X297418Y380382D01*
X297383Y380332D01*
X297360Y380283D01*
X297345Y380237D01*
X297337Y380194D01*
X297330Y380164D01*
Y380140D01*
Y380137D01*
Y380133D01*
X297333Y380087D01*
X297341Y380045D01*
X297353Y380006D01*
X297364Y379975D01*
X297376Y379945D01*
X297387Y379925D01*
X297395Y379910D01*
X297399Y379906D01*
X297426Y379872D01*
X297456Y379841D01*
X297491Y379814D01*
X297522Y379791D01*
X297549Y379776D01*
X297571Y379764D01*
X297587Y379760D01*
X297595Y379756D01*
X297644Y379741D01*
X297702Y379730D01*
X297763Y379722D01*
X297821Y379718D01*
X297871Y379714D01*
X297913Y379710D01*
X298666D01*
Y380544D01*
D02*
G37*
%LPD*%
D11*
X294472Y273264D02*
X303528D01*
X294472Y268736D02*
Y273264D01*
Y268736D02*
X303528D01*
Y273264D01*
X294472Y282264D02*
X303528D01*
X294472Y277736D02*
Y282264D01*
Y277736D02*
X303528D01*
Y282264D01*
X294472Y291264D02*
X303528D01*
X294472Y286736D02*
Y291264D01*
Y286736D02*
X303528D01*
Y291264D01*
X294472Y299764D02*
X303528D01*
X294472Y295236D02*
Y299764D01*
Y295236D02*
X303528D01*
Y299764D01*
X294472Y309264D02*
X303528D01*
X294472Y304736D02*
Y309264D01*
Y304736D02*
X303528D01*
Y309264D01*
X294472Y318264D02*
X303528D01*
X294472Y313736D02*
Y318264D01*
Y313736D02*
X303528D01*
Y318264D01*
X294472Y327264D02*
X303528D01*
X294472Y322736D02*
Y327264D01*
Y322736D02*
X303528D01*
Y327264D01*
X294472Y335764D02*
X303528D01*
X294472Y331236D02*
Y335764D01*
Y331236D02*
X303528D01*
Y335764D01*
X294472Y345264D02*
X303528D01*
X294472Y340736D02*
Y345264D01*
Y340736D02*
X303528D01*
Y345264D01*
X294472Y354264D02*
X303528D01*
X294472Y349736D02*
Y354264D01*
Y349736D02*
X303528D01*
Y354264D01*
X294472Y372264D02*
X303528D01*
X294472Y367736D02*
Y372264D01*
Y367736D02*
X303528D01*
Y372264D01*
X294472Y363264D02*
X303528D01*
X294472Y358736D02*
Y363264D01*
Y358736D02*
X303528D01*
Y363264D01*
X294472Y389764D02*
X303528D01*
X294472Y385236D02*
Y389764D01*
Y385236D02*
X303528D01*
Y389764D01*
X294472Y381264D02*
X303528D01*
X294472Y376736D02*
Y381264D01*
Y376736D02*
X303528D01*
Y381264D01*
M02*
