G04*
G04 #@! TF.GenerationSoftware,Altium Limited,Altium Designer,21.0.9 (235)*
G04*
G04 Layer_Color=8388736*
%FSLAX25Y25*%
%MOIN*%
G70*
G04*
G04 #@! TF.SameCoordinates,8E47622B-7771-418E-90A4-0877E0867BD3*
G04*
G04*
G04 #@! TF.FilePolarity,Positive*
G04*
G01*
G75*
%ADD11C,0.01181*%
%ADD13C,0.00600*%
D11*
X407000Y228035D02*
Y437090D01*
D13*
X412787Y316421D02*
X408789D01*
Y318421D01*
X409455Y319087D01*
X410788D01*
X411454Y318421D01*
Y316421D01*
X409455Y323086D02*
X408789Y322419D01*
Y321086D01*
X409455Y320420D01*
X412121D01*
X412787Y321086D01*
Y322419D01*
X412121Y323086D01*
X408789Y324419D02*
X412787D01*
Y326418D01*
X412121Y327084D01*
X411454D01*
X410788Y326418D01*
Y324419D01*
Y326418D01*
X410122Y327084D01*
X409455D01*
X408789Y326418D01*
Y324419D01*
Y335082D02*
Y332416D01*
X412787D01*
Y335082D01*
X410788Y332416D02*
Y333749D01*
X408789Y339081D02*
X412787D01*
Y337081D01*
X412121Y336415D01*
X410788D01*
X410122Y337081D01*
Y339081D01*
X414120Y341746D02*
Y342413D01*
X413454Y343079D01*
X410122D01*
Y341080D01*
X410788Y340413D01*
X412121D01*
X412787Y341080D01*
Y343079D01*
Y346412D02*
Y345079D01*
X412121Y344412D01*
X410788D01*
X410122Y345079D01*
Y346412D01*
X410788Y347078D01*
X411454D01*
Y344412D01*
M02*
